<svg width="184" height="184" viewBox="0 0 184 184" fill="none" xmlns="http://www.w3.org/2000/svg">
<path d="M91.6843 183.398C121.924 183.398 146.439 181.794 146.439 179.814C146.439 177.835 121.924 176.23 91.6843 176.23C61.4442 176.23 36.9298 177.835 36.9298 179.814C36.9298 181.794 61.4442 183.398 91.6843 183.398Z" fill="#263238"/>
<path d="M37.328 154.922C38.0926 155.252 39.9602 155.213 39.9602 155.213C39.9602 155.213 39.562 153.99 39.5261 153.914C39.1279 153.058 37.8218 151.645 36.7665 151.788C36.5903 151.816 36.422 151.881 36.2728 151.979C36.1237 152.077 35.9971 152.206 35.9014 152.356C35.8058 152.507 35.7433 152.676 35.718 152.853C35.6928 153.029 35.7054 153.209 35.755 153.381C35.9263 154.094 36.6749 154.635 37.328 154.922Z" fill="#263238"/>
<path d="M37.9691 160.326C38.7655 160.441 40.4261 159.959 40.5615 159.927C40.835 160.878 41.1715 161.809 41.569 162.715C41.7999 163.245 42.0468 163.774 42.3017 164.308C42.1504 164.089 42.011 163.91 41.9871 163.862C41.3659 163.145 39.7451 162.122 38.7655 162.54C38.6049 162.613 38.4615 162.72 38.3448 162.852C38.228 162.985 38.1405 163.141 38.0879 163.309C38.0353 163.478 38.0189 163.656 38.0395 163.831C38.0602 164.007 38.1176 164.176 38.208 164.328C38.5704 164.985 39.4345 165.311 40.1394 165.411C40.8442 165.51 42.2778 165.132 42.6561 165.013C42.7557 165.216 42.8512 165.411 42.9508 165.614C43.4366 166.578 43.9184 167.533 44.3684 168.485C44.5237 168.82 44.6671 169.158 44.8144 169.493C44.679 169.293 44.5635 169.13 44.5436 169.094C43.9224 168.378 42.2977 167.354 41.3181 167.768C41.1579 167.842 41.015 167.949 40.8986 168.082C40.7822 168.214 40.6949 168.37 40.6424 168.538C40.5898 168.707 40.5732 168.885 40.5936 169.06C40.6139 169.235 40.6708 169.404 40.7606 169.556C41.123 170.217 41.9911 170.54 42.6919 170.643C43.3928 170.747 44.683 170.4 45.141 170.277C45.2763 170.623 45.4157 170.974 45.5392 171.316C45.6108 171.555 45.7024 171.774 45.7622 172.017C45.8219 172.26 45.8936 172.491 45.9613 172.726C46.0688 173.18 46.1843 173.65 46.2798 174.092C46.3475 174.403 46.4073 174.701 46.471 175C46.3157 174.661 46.0011 174.012 45.9692 173.961C45.4635 173.164 44.014 171.898 42.9866 172.161C42.8166 172.209 42.6588 172.293 42.5232 172.406C42.3877 172.52 42.2774 172.661 42.1997 172.819C42.122 172.978 42.0785 173.152 42.0721 173.328C42.0656 173.505 42.0964 173.681 42.1623 173.845C42.4211 174.55 43.2255 175.004 43.9065 175.211C44.6512 175.438 46.2958 175.211 46.5108 175.211C46.6104 175.705 46.702 176.187 46.7816 176.641C46.9608 177.644 47.0922 178.548 47.1798 179.309H47.8767C47.7532 178.512 47.594 177.58 47.3869 176.521C47.2873 176.019 47.1719 175.486 47.0484 174.928C47.5462 174.729 48.0316 174.501 48.5019 174.243C49.0474 174.833 50.4412 175.526 50.6204 175.613C50.4292 176.079 50.2421 176.529 50.0549 176.955C49.6567 177.843 49.3063 178.628 48.9797 179.297H49.7364C50.0111 178.679 50.3177 177.978 50.6363 177.198C50.8314 176.728 51.0345 176.218 51.2297 175.693C51.4288 175.733 53.0654 176.067 53.83 175.896C54.5189 175.737 55.3591 175.346 55.6658 174.661C55.7443 174.503 55.7885 174.331 55.7957 174.154C55.8029 173.978 55.7728 173.802 55.7074 173.638C55.642 173.475 55.5428 173.326 55.4162 173.203C55.2896 173.081 55.1386 172.986 54.9729 172.925C53.9654 172.587 52.4283 173.722 51.8628 174.494C51.831 174.538 51.5243 175.068 51.3372 175.406C51.4168 175.191 51.4965 174.984 51.5761 174.761C51.7354 174.323 51.8827 173.881 52.046 173.403C52.1137 173.172 52.1854 172.937 52.2571 172.702C52.3287 172.467 52.3805 172.212 52.4442 171.965C52.5836 171.388 52.6911 170.799 52.7907 170.201C53.1889 170.341 54.5468 170.819 55.2596 170.771C55.9724 170.723 56.8524 170.46 57.2507 169.831C57.352 169.686 57.4218 169.522 57.4555 169.349C57.4892 169.176 57.486 168.997 57.4462 168.825C57.4064 168.653 57.3308 168.491 57.2244 168.35C57.118 168.209 56.9831 168.093 56.8286 168.007C55.8808 167.517 54.1884 168.405 53.5154 169.086C53.4716 169.13 53.0455 169.664 52.8146 169.962C52.8703 169.604 52.93 169.246 52.9738 168.879C53.1052 167.824 53.2048 166.753 53.3083 165.694C53.3402 165.367 53.376 165.041 53.4119 164.714C53.5473 164.766 55.164 165.367 55.9604 165.311C56.6693 165.264 57.5533 165.005 57.9515 164.375C58.0527 164.231 58.1223 164.066 58.1557 163.893C58.1891 163.719 58.1855 163.541 58.1453 163.369C58.1052 163.196 58.0292 163.035 57.9224 162.894C57.8156 162.753 57.6803 162.637 57.5254 162.552C56.5817 162.062 54.8893 162.95 54.2163 163.631C54.1645 163.683 53.5473 164.451 53.4198 164.654C53.4955 163.937 53.5791 163.221 53.6906 162.52C53.8335 161.578 54.0384 160.647 54.3039 159.732C54.3636 159.756 56.052 160.393 56.8684 160.338C57.5732 160.286 58.4612 160.027 58.8595 159.398C58.9608 159.253 59.0306 159.089 59.0643 158.916C59.098 158.742 59.0948 158.564 59.055 158.392C59.0152 158.22 58.9396 158.058 58.8332 157.917C58.7268 157.776 58.5919 157.659 58.4373 157.574C57.4896 157.084 55.7972 157.972 55.1242 158.653C55.0724 158.705 54.4074 159.537 54.2999 159.696C54.2999 159.641 54.3278 159.585 54.3437 159.529C54.6342 158.613 55.006 157.724 55.4547 156.873C55.6976 156.399 55.9525 155.961 56.2153 155.539C56.5179 155.69 57.9037 156.363 58.6444 156.395C59.3851 156.427 60.2612 156.264 60.739 155.682C60.8557 155.55 60.9432 155.394 60.9958 155.226C61.0484 155.057 61.0649 154.879 61.0442 154.704C61.0236 154.528 60.9662 154.359 60.8759 154.207C60.7856 154.056 60.6643 153.925 60.52 153.823C59.632 153.233 57.848 153.942 57.1073 154.532C57.0675 154.563 56.7091 154.93 56.4224 155.213C56.5458 155.025 56.6653 154.814 56.7848 154.651C57.2308 153.982 57.6768 153.393 58.079 152.879C58.3099 152.588 58.525 152.329 58.728 152.083C59.0984 152.083 60.6036 152.031 61.2607 151.724C61.9177 151.418 62.6385 150.86 62.7938 150.131C62.8356 149.96 62.841 149.782 62.8096 149.608C62.7783 149.435 62.7109 149.269 62.6119 149.124C62.5128 148.978 62.3843 148.854 62.2346 148.761C62.0848 148.668 61.9172 148.607 61.7425 148.582C60.6833 148.471 59.4289 149.92 59.0426 150.784C59.0068 150.86 58.6205 152.095 58.6444 152.095H58.6683C58.4652 152.322 58.2701 152.564 58.0312 152.839C57.633 153.349 57.1511 153.926 56.6932 154.587C56.1881 155.296 55.7253 156.034 55.3074 156.797C54.8293 157.647 54.4295 158.539 54.1127 159.462C54.1127 159.462 54.1127 159.485 54.1127 159.497C54.1127 159.187 54.1127 158.303 54.0928 158.247C53.9734 157.303 53.1849 155.559 52.1376 155.364C51.9622 155.336 51.7829 155.346 51.6116 155.393C51.4403 155.439 51.2809 155.522 51.1439 155.635C51.0069 155.748 50.8954 155.889 50.8168 156.048C50.7382 156.207 50.6944 156.381 50.6881 156.559C50.6244 157.307 51.1659 158.056 51.6956 158.55C52.2929 159.083 53.9495 159.597 54.0849 159.637C53.7887 160.584 53.5546 161.55 53.384 162.528C53.2844 163.097 53.2008 163.671 53.1212 164.252C53.1212 163.981 53.1212 163.738 53.1212 163.706C52.9977 162.763 52.2093 161.019 51.162 160.823C50.9866 160.796 50.8073 160.805 50.636 160.852C50.4647 160.899 50.3053 160.981 50.1683 161.094C50.0312 161.207 49.9198 161.348 49.8412 161.507C49.7626 161.667 49.7187 161.841 49.7125 162.018C49.6487 162.767 50.1943 163.515 50.7199 163.989C51.2456 164.463 52.6593 164.937 53.0336 165.056L52.9499 165.721C52.8225 166.789 52.6991 167.852 52.5517 168.907C52.5 169.274 52.4323 169.632 52.3686 169.994C52.3686 169.755 52.3686 169.552 52.3686 169.52C52.2491 168.581 51.4606 166.832 50.4133 166.637C50.2381 166.611 50.0593 166.622 49.8886 166.669C49.7178 166.716 49.5589 166.799 49.4222 166.911C49.2854 167.024 49.174 167.164 49.095 167.323C49.016 167.482 48.9713 167.655 48.9638 167.832C48.9001 168.577 49.4417 169.329 49.9713 169.799C50.5009 170.269 51.7752 170.703 52.2172 170.846C52.1416 171.213 52.0619 171.579 51.9703 171.93C51.9026 172.169 51.8549 172.403 51.7712 172.638C51.6876 172.873 51.6199 173.108 51.5482 173.339C51.3889 173.777 51.2257 174.231 51.0584 174.657C50.9469 174.952 50.8314 175.231 50.716 175.514C50.7757 175.151 50.8713 174.434 50.8752 174.371C50.8643 173.531 50.638 172.708 50.2182 171.981C50.2262 171.889 50.2262 171.795 50.2182 171.703C50.1962 171.527 50.1374 171.358 50.0457 171.207C49.954 171.056 49.8315 170.925 49.686 170.825C49.5406 170.724 49.3756 170.655 49.2018 170.623C49.0279 170.59 48.8491 170.594 48.6771 170.635C47.6497 170.906 47.0006 172.71 46.9528 173.658C46.9528 173.714 46.9847 174.327 47.0126 174.709C46.9608 174.486 46.913 174.271 46.8573 174.04C46.7497 173.586 46.6303 173.136 46.5028 172.65L46.2878 171.946C46.2241 171.711 46.1245 171.468 46.0409 171.229C45.8378 170.671 45.6029 170.118 45.356 169.568C45.7542 169.473 47.1639 169.114 47.7453 168.68C48.3267 168.246 48.8762 167.47 48.8762 166.729C48.8812 166.552 48.849 166.377 48.7816 166.213C48.7143 166.05 48.6132 165.903 48.4851 165.781C48.357 165.659 48.2047 165.566 48.0381 165.507C47.8716 165.448 47.6944 165.425 47.5183 165.439C46.463 165.554 45.5272 167.239 45.352 168.166C45.352 168.226 45.2763 168.907 45.2525 169.285C45.1011 168.955 44.9498 168.624 44.7865 168.294C44.3127 167.342 43.8069 166.394 43.3052 165.447C43.1499 165.156 42.9986 164.861 42.8472 164.571C42.9906 164.539 44.6711 164.149 45.3042 163.663C45.8697 163.233 46.467 162.528 46.459 161.775C46.4635 161.599 46.4309 161.424 46.3632 161.261C46.2956 161.098 46.1945 160.951 46.0664 160.83C45.9384 160.708 45.7863 160.615 45.62 160.557C45.4537 160.498 45.2769 160.475 45.1011 160.489C44.0459 160.6 43.1101 162.285 42.9348 163.217C42.9348 163.284 42.8313 164.268 42.8194 164.519C42.4888 163.878 42.1623 163.237 41.8676 162.591C41.4644 161.721 41.1173 160.826 40.8283 159.911C40.896 159.911 42.6521 159.513 43.3012 159C43.8627 158.566 44.46 157.861 44.456 157.112C44.4605 156.935 44.4277 156.759 44.3599 156.596C44.2921 156.433 44.1907 156.285 44.0623 156.164C43.9339 156.042 43.7813 155.949 43.6145 155.89C43.4478 155.831 43.2705 155.808 43.0941 155.822C42.0389 155.937 41.1031 157.622 40.9318 158.55C40.9318 158.625 40.8203 159.681 40.8163 159.872C40.8163 159.82 40.7765 159.768 40.7606 159.712C40.4977 158.788 40.3178 157.842 40.223 156.885C40.1633 156.355 40.1354 155.85 40.1234 155.352C40.4579 155.312 41.9871 155.109 42.6203 154.727C43.2534 154.344 43.8945 153.723 43.9742 152.975C43.9982 152.801 43.9856 152.624 43.9372 152.455C43.8889 152.287 43.8058 152.13 43.6933 151.995C43.5808 151.861 43.4414 151.751 43.284 151.674C43.1267 151.596 42.9548 151.552 42.7795 151.545C41.7163 151.545 40.6212 153.118 40.3265 154.018C40.3265 154.07 40.2031 154.587 40.1314 154.966C40.1314 154.739 40.1314 154.512 40.1314 154.297C40.1314 153.5 40.1832 152.756 40.231 152.103C40.2628 151.732 40.2987 151.398 40.3385 151.087C40.6451 150.876 41.8756 150.008 42.2539 149.387C42.6322 148.765 42.9229 147.909 42.6521 147.208C42.5926 147.042 42.4988 146.89 42.3768 146.763C42.2548 146.635 42.1073 146.535 41.944 146.468C41.7806 146.401 41.605 146.369 41.4286 146.375C41.2521 146.38 41.0788 146.423 40.9199 146.5C39.9761 146.985 39.7252 148.889 39.8845 149.825C39.8845 149.904 40.2549 151.147 40.2827 151.135C40.2429 151.434 40.2031 151.756 40.1633 152.11C40.0996 152.76 40.0319 153.496 40.0119 154.305C39.9828 155.175 40.0041 156.045 40.0757 156.913C40.1514 157.884 40.3126 158.846 40.5575 159.788V159.824C40.3903 159.561 39.8965 158.84 39.8527 158.789C39.2314 158.072 37.6107 157.048 36.6311 157.466C36.4705 157.54 36.3271 157.647 36.2104 157.779C36.0936 157.912 36.0061 158.067 35.9535 158.236C35.9009 158.405 35.8844 158.583 35.9051 158.758C35.9258 158.934 35.9832 159.103 36.0736 159.254C36.4041 159.904 37.2682 160.222 37.9691 160.326Z" fill="#263238"/>
<path d="M56.2034 155.332C56.2034 155.332 56.5418 154.09 56.5538 154.01C56.6852 153.07 56.3865 151.175 55.4268 150.713C55.2658 150.64 55.0914 150.603 54.9148 150.602C54.7382 150.601 54.5635 150.638 54.402 150.709C54.2405 150.781 54.0958 150.885 53.9774 151.016C53.8589 151.147 53.7694 151.301 53.7145 151.469C53.4597 152.174 53.7822 153.042 54.1685 153.636C54.6225 154.328 56.2034 155.328 56.2034 155.332Z" fill="#263238"/>
<path d="M129.997 158.163C130.662 158.454 132.278 158.414 132.278 158.414C132.278 158.414 131.932 157.355 131.9 157.291C131.546 156.551 130.423 155.324 129.511 155.447C129.359 155.472 129.215 155.527 129.087 155.611C128.958 155.695 128.849 155.805 128.767 155.934C128.684 156.063 128.629 156.208 128.607 156.36C128.584 156.511 128.593 156.666 128.635 156.813C128.786 157.447 129.435 157.912 129.997 158.163Z" fill="#263238"/>
<path d="M130.558 162.85C131.243 162.95 132.688 162.532 132.8 162.496C133.039 163.322 133.332 164.132 133.676 164.921C133.875 165.383 134.074 165.837 134.313 166.295C134.178 166.1 134.062 165.928 134.042 165.897C133.501 165.271 132.095 164.387 131.255 164.746C131.116 164.81 130.992 164.902 130.891 165.017C130.79 165.132 130.714 165.267 130.669 165.413C130.624 165.559 130.609 165.713 130.627 165.865C130.645 166.017 130.695 166.163 130.773 166.295C131.084 166.868 131.836 167.151 132.446 167.239C133.055 167.326 134.301 166.996 134.628 166.904L134.887 167.426C135.285 168.258 135.723 169.086 136.113 169.915C136.249 170.205 136.372 170.496 136.511 170.787L136.276 170.452C135.735 169.831 134.329 168.943 133.489 169.301C133.349 169.365 133.225 169.458 133.124 169.573C133.022 169.688 132.946 169.824 132.901 169.97C132.855 170.117 132.841 170.271 132.86 170.424C132.878 170.576 132.928 170.723 133.007 170.854C133.318 171.424 134.07 171.707 134.68 171.794C135.289 171.882 136.412 171.583 136.802 171.476C136.921 171.778 137.041 172.081 137.141 172.38C137.208 172.583 137.284 172.778 137.34 172.985C137.395 173.192 137.451 173.383 137.511 173.598C137.602 173.996 137.702 174.395 137.786 174.793C137.845 175.064 137.897 175.318 137.949 175.589C137.817 175.298 137.551 174.733 137.519 174.689C137.081 173.992 135.822 172.905 134.93 173.132C134.783 173.174 134.646 173.246 134.528 173.344C134.411 173.442 134.315 173.564 134.248 173.701C134.18 173.839 134.143 173.989 134.138 174.142C134.132 174.295 134.16 174.448 134.218 174.59C134.441 175.203 135.138 175.593 135.727 175.784C136.376 175.983 137.81 175.804 137.989 175.784C138.072 176.21 138.152 176.629 138.22 177.023C138.375 177.895 138.49 178.675 138.578 179.336H139.183C139.076 178.655 138.94 177.839 138.757 176.923C138.674 176.489 138.574 176.023 138.467 175.549C138.897 175.376 139.317 175.178 139.725 174.956C140.281 175.437 140.9 175.839 141.565 176.151C141.397 176.549 141.234 176.947 141.075 177.313C140.74 178.082 140.422 178.767 140.143 179.344H140.796C141.035 178.811 141.302 178.201 141.593 177.525C141.764 177.126 141.935 176.672 142.106 176.218C142.281 176.254 143.699 176.545 144.36 176.394C144.961 176.258 145.686 175.92 145.953 175.326C146.02 175.189 146.058 175.038 146.064 174.885C146.069 174.732 146.043 174.579 145.986 174.437C145.929 174.295 145.843 174.166 145.733 174.059C145.623 173.953 145.492 173.87 145.348 173.817C144.476 173.526 143.142 174.518 142.652 175.179C142.624 175.219 142.357 175.677 142.194 175.975C142.266 175.788 142.333 175.609 142.405 175.414C142.544 175.036 142.672 174.653 142.803 174.239C142.863 174.036 142.923 173.841 142.986 173.63C143.05 173.419 143.094 173.204 143.15 172.989C143.269 172.491 143.365 171.981 143.448 171.464C143.783 171.583 144.973 171.997 145.587 171.953C146.2 171.91 146.972 171.687 147.327 171.157C147.417 171.031 147.479 170.888 147.509 170.736C147.539 170.585 147.537 170.429 147.502 170.278C147.468 170.128 147.402 169.986 147.308 169.863C147.215 169.74 147.096 169.638 146.96 169.564C146.14 169.142 144.671 169.919 144.089 170.5C144.05 170.536 143.691 171.002 143.48 171.261C143.528 170.946 143.58 170.635 143.619 170.321C143.731 169.405 143.819 168.477 143.91 167.533C143.938 167.251 143.966 166.968 143.998 166.685C144.117 166.729 145.519 167.255 146.208 167.203C146.821 167.163 147.59 166.936 147.948 166.406C148.038 166.28 148.1 166.137 148.13 165.985C148.16 165.833 148.157 165.677 148.122 165.526C148.087 165.376 148.02 165.234 147.927 165.111C147.833 164.989 147.714 164.887 147.578 164.813C146.781 164.391 145.292 165.168 144.707 165.749C144.663 165.793 144.129 166.462 144.002 166.637C144.069 166.016 144.141 165.395 144.237 164.79C144.359 163.966 144.536 163.152 144.766 162.353C144.822 162.372 146.284 162.926 146.988 162.874C147.602 162.834 148.374 162.607 148.729 162.078C148.818 161.952 148.881 161.809 148.911 161.657C148.941 161.506 148.939 161.349 148.904 161.199C148.87 161.048 148.803 160.907 148.71 160.784C148.616 160.661 148.498 160.559 148.362 160.485C147.542 160.063 146.072 160.839 145.491 161.421C145.443 161.468 144.87 162.185 144.774 162.325C144.774 162.277 144.798 162.229 144.81 162.181C145.064 161.387 145.388 160.617 145.778 159.88C145.985 159.481 146.208 159.083 146.435 158.721C146.698 158.852 147.9 159.438 148.541 159.461C149.183 159.485 149.943 159.35 150.357 158.844C150.458 158.729 150.533 158.594 150.578 158.448C150.624 158.301 150.638 158.147 150.62 157.995C150.602 157.844 150.552 157.697 150.474 157.565C150.396 157.434 150.291 157.32 150.166 157.231C149.398 156.722 147.852 157.335 147.207 157.849C147.176 157.877 146.849 158.199 146.618 158.438C146.722 158.275 146.825 158.104 146.929 157.952C147.327 157.371 147.725 156.861 148.052 156.415C148.251 156.16 148.45 155.937 148.613 155.73C148.936 155.73 150.242 155.682 150.811 155.416C151.381 155.149 152.006 154.667 152.141 154.03C152.177 153.881 152.182 153.726 152.154 153.576C152.126 153.425 152.068 153.282 151.981 153.155C151.895 153.029 151.783 152.922 151.653 152.842C151.523 152.761 151.377 152.709 151.225 152.688C150.309 152.588 149.234 153.843 148.888 154.595C148.856 154.663 148.521 155.73 148.537 155.73H148.557C148.386 155.925 148.199 156.128 148.004 156.375C147.645 156.817 147.247 157.319 146.845 157.893C146.41 158.507 146.011 159.147 145.65 159.808C145.241 160.548 144.897 161.322 144.623 162.122C144.624 162.131 144.624 162.14 144.623 162.149C144.623 161.879 144.623 161.122 144.623 161.066C144.515 160.27 143.827 158.733 142.923 158.566C142.771 158.542 142.617 158.551 142.47 158.592C142.322 158.632 142.185 158.703 142.067 158.8C141.948 158.897 141.852 159.018 141.783 159.154C141.715 159.291 141.675 159.44 141.668 159.593C141.612 160.242 142.066 160.891 142.54 161.301C143.058 161.763 144.496 162.209 144.611 162.245C144.352 163.065 144.148 163.902 144.002 164.75C143.914 165.244 143.842 165.741 143.775 166.243C143.775 166.008 143.775 165.801 143.775 165.773C143.667 164.957 142.978 163.44 142.078 163.272C141.927 163.249 141.772 163.257 141.624 163.297C141.476 163.337 141.339 163.408 141.22 163.505C141.101 163.602 141.004 163.723 140.935 163.86C140.866 163.997 140.827 164.147 140.82 164.3C140.764 164.949 141.238 165.598 141.696 166.004C142.154 166.41 143.377 166.828 143.687 166.932L143.615 167.509C143.504 168.433 143.396 169.357 143.265 170.261C143.221 170.58 143.162 170.89 143.106 171.201C143.106 170.994 143.106 170.803 143.106 170.803C143.002 170.006 142.309 168.469 141.409 168.302C141.258 168.278 141.103 168.287 140.955 168.327C140.807 168.367 140.67 168.438 140.551 168.535C140.432 168.632 140.335 168.752 140.266 168.889C140.197 169.026 140.158 169.176 140.151 169.329C140.099 169.978 140.569 170.627 141.027 171.034C141.625 171.435 142.282 171.742 142.974 171.942C142.907 172.26 142.839 172.579 142.759 172.881C142.704 173.088 142.66 173.28 142.588 173.499C142.516 173.718 142.457 173.897 142.393 174.104C142.254 174.482 142.114 174.876 141.971 175.247C141.871 175.502 141.772 175.744 141.672 175.991C141.724 175.673 141.808 175.052 141.812 175C141.801 174.276 141.605 173.567 141.242 172.941C141.248 172.86 141.248 172.779 141.242 172.698C141.223 172.546 141.172 172.4 141.092 172.269C141.013 172.139 140.907 172.026 140.781 171.939C140.655 171.852 140.512 171.792 140.362 171.764C140.212 171.735 140.057 171.739 139.908 171.774C139.016 172.009 138.451 173.574 138.411 174.395C138.411 174.442 138.439 174.972 138.467 175.306C138.419 175.111 138.379 174.908 138.331 174.725C138.236 174.327 138.132 173.929 138.021 173.53C137.961 173.331 137.897 173.132 137.837 172.921C137.778 172.71 137.694 172.523 137.622 172.3C137.443 171.818 137.244 171.336 137.029 170.858C137.375 170.779 138.594 170.46 139.084 170.09C139.574 169.719 140.087 169.102 140.083 168.453C140.088 168.298 140.06 168.144 140 168.001C139.941 167.859 139.852 167.73 139.739 167.624C139.626 167.518 139.491 167.438 139.345 167.388C139.198 167.338 139.043 167.319 138.889 167.334C137.973 167.434 137.176 168.895 137.013 169.7C137.013 169.751 136.945 170.345 136.925 170.667C136.794 170.385 136.663 170.094 136.527 169.811C136.129 168.987 135.675 168.162 135.241 167.342C135.106 167.087 134.978 166.836 134.843 166.586C134.962 166.554 136.436 166.219 136.973 165.789C137.459 165.415 137.977 164.802 137.973 164.152C137.977 163.998 137.949 163.844 137.89 163.701C137.83 163.558 137.741 163.429 137.628 163.323C137.515 163.217 137.381 163.137 137.234 163.087C137.088 163.037 136.932 163.019 136.778 163.033C135.862 163.133 135.066 164.594 134.899 165.399C134.899 165.459 134.811 166.311 134.803 166.53C134.512 165.972 134.23 165.419 133.975 164.857C133.625 164.104 133.324 163.328 133.075 162.536C133.13 162.536 134.668 162.173 135.217 161.739C135.707 161.365 136.221 160.752 136.217 160.103C136.221 159.948 136.193 159.794 136.134 159.651C136.074 159.508 135.985 159.379 135.872 159.273C135.759 159.168 135.625 159.087 135.478 159.037C135.332 158.987 135.176 158.969 135.022 158.984C134.106 159.083 133.31 160.545 133.146 161.349C133.146 161.413 133.051 162.333 133.047 162.496C133.047 162.452 133.011 162.404 132.999 162.36C132.772 161.558 132.616 160.737 132.533 159.907C132.481 159.45 132.458 159.008 132.446 158.577C132.736 158.542 134.062 158.366 134.608 158.036C135.153 157.705 135.719 157.164 135.783 156.515C135.804 156.363 135.793 156.209 135.751 156.062C135.708 155.914 135.635 155.778 135.536 155.661C135.437 155.544 135.315 155.449 135.177 155.383C135.039 155.317 134.888 155.28 134.735 155.276C133.811 155.276 132.864 156.638 132.609 157.423C132.609 157.466 132.501 157.912 132.442 158.239C132.442 158.048 132.442 157.841 132.442 157.662C132.442 156.965 132.489 156.328 132.533 155.762C132.557 155.44 132.589 155.149 132.621 154.878C132.888 154.695 133.955 153.942 134.281 153.405C134.608 152.867 134.867 152.122 134.628 151.517C134.576 151.373 134.494 151.241 134.388 151.13C134.282 151.019 134.154 150.932 134.012 150.874C133.871 150.815 133.718 150.788 133.565 150.792C133.411 150.797 133.261 150.833 133.123 150.9C132.306 151.322 132.091 152.971 132.227 153.783C132.227 153.855 132.545 154.93 132.561 154.922C132.525 155.181 132.489 155.459 132.458 155.766C132.402 156.332 132.342 156.961 132.326 157.67C132.299 158.424 132.316 159.179 132.378 159.931C132.443 160.775 132.584 161.61 132.8 162.428C132.799 162.437 132.799 162.447 132.8 162.456C132.653 162.229 132.227 161.604 132.191 161.56C131.649 160.939 130.243 160.051 129.403 160.409C129.264 160.474 129.14 160.566 129.039 160.682C128.938 160.797 128.862 160.932 128.817 161.079C128.772 161.225 128.757 161.379 128.775 161.532C128.793 161.684 128.843 161.83 128.921 161.962C129.196 162.48 129.949 162.763 130.558 162.85Z" fill="#263238"/>
<path d="M146.367 158.518C146.367 158.518 146.658 157.443 146.67 157.375C146.781 156.578 146.522 154.914 145.694 154.516C145.554 154.453 145.403 154.42 145.25 154.42C145.097 154.419 144.945 154.451 144.805 154.513C144.665 154.575 144.539 154.666 144.437 154.779C144.334 154.893 144.256 155.027 144.209 155.173C143.986 155.782 144.269 156.535 144.607 157.048C144.993 157.658 146.363 158.518 146.367 158.518Z" fill="#263238"/>
<path d="M111.87 162.217C112.414 162.36 112.976 162.422 113.538 162.4C113.538 162.4 113.283 161.624 113.264 161.58C113.005 161.034 112.18 160.138 111.511 160.226C111.4 160.244 111.294 160.285 111.2 160.346C111.106 160.408 111.026 160.489 110.965 160.584C110.905 160.679 110.865 160.785 110.849 160.897C110.832 161.008 110.84 161.121 110.87 161.23C110.956 161.456 111.09 161.662 111.262 161.832C111.435 162.003 111.642 162.134 111.87 162.217Z" fill="#263238"/>
<path d="M112.28 165.646C112.837 165.641 113.39 165.554 113.921 165.387C114.095 165.992 114.309 166.586 114.562 167.163C114.71 167.497 114.866 167.832 115.028 168.166C114.932 168.023 114.844 167.9 114.829 167.884C114.43 167.426 113.407 166.777 112.786 167.043C112.684 167.09 112.593 167.157 112.519 167.241C112.445 167.325 112.39 167.423 112.356 167.53C112.323 167.637 112.312 167.749 112.325 167.86C112.338 167.971 112.374 168.078 112.431 168.174C112.572 168.372 112.755 168.536 112.966 168.655C113.177 168.774 113.412 168.845 113.654 168.863C114.194 168.865 114.731 168.783 115.247 168.62L115.438 169.019C115.744 169.628 116.051 170.213 116.334 170.838C116.433 171.05 116.525 171.265 116.617 171.48C116.533 171.352 116.457 171.249 116.445 171.233C116.047 170.779 115.02 170.13 114.402 170.392C114.3 170.439 114.209 170.506 114.135 170.59C114.06 170.674 114.004 170.773 113.971 170.881C113.937 170.988 113.927 171.101 113.94 171.212C113.954 171.324 113.99 171.431 114.048 171.527C114.19 171.724 114.372 171.888 114.583 172.007C114.794 172.126 115.029 172.197 115.271 172.216C115.797 172.22 116.321 172.14 116.824 171.981C116.911 172.204 116.999 172.423 117.074 172.642C117.122 172.794 117.178 172.933 117.218 173.088C117.258 173.244 117.301 173.387 117.341 173.538C117.413 173.825 117.485 174.124 117.544 174.406C117.588 174.602 117.628 174.805 117.664 174.98C117.568 174.765 117.369 174.351 117.349 174.319C117.027 173.809 116.107 173.013 115.454 173.18C115.346 173.21 115.246 173.263 115.159 173.335C115.073 173.407 115.003 173.496 114.954 173.597C114.905 173.698 114.877 173.808 114.874 173.92C114.87 174.032 114.89 174.143 114.932 174.247C115.043 174.463 115.199 174.652 115.391 174.801C115.582 174.95 115.803 175.056 116.039 175.111C116.587 175.195 117.144 175.195 117.692 175.111C117.755 175.426 117.815 175.733 117.863 176.019C117.974 176.656 118.062 177.214 118.126 177.716H118.564C118.488 177.214 118.385 176.617 118.253 175.948C118.189 175.629 118.118 175.291 118.038 174.94C118.354 174.814 118.663 174.669 118.962 174.506C119.367 174.855 119.819 175.148 120.304 175.374C120.185 175.669 120.065 175.96 119.95 176.226C119.703 176.788 119.472 177.29 119.265 177.716H119.758C119.938 177.317 120.129 176.875 120.332 176.382C120.455 176.083 120.583 175.76 120.706 175.426C121.247 175.553 121.805 175.596 122.359 175.553C122.6 175.513 122.829 175.422 123.03 175.284C123.232 175.146 123.401 174.967 123.526 174.757C123.575 174.656 123.604 174.547 123.608 174.434C123.613 174.322 123.593 174.211 123.552 174.106C123.51 174.002 123.447 173.908 123.366 173.83C123.285 173.752 123.189 173.692 123.084 173.654C122.442 173.439 121.467 174.164 121.092 174.649C121.073 174.677 120.877 175.012 120.758 175.227C120.81 175.091 120.861 174.96 120.913 174.829C121.013 174.554 121.108 174.271 121.208 173.968C121.252 173.821 121.3 173.674 121.343 173.522C121.387 173.371 121.423 173.212 121.463 173.057C121.55 172.69 121.622 172.316 121.682 171.938C122.182 172.136 122.71 172.257 123.247 172.296C123.49 172.296 123.73 172.243 123.95 172.14C124.17 172.038 124.365 171.888 124.521 171.703C124.586 171.611 124.63 171.506 124.652 171.396C124.673 171.286 124.671 171.172 124.646 171.062C124.62 170.953 124.572 170.85 124.504 170.761C124.435 170.671 124.349 170.597 124.25 170.544C123.653 170.237 122.578 170.807 122.152 171.229C122.124 171.257 121.853 171.595 121.706 171.786C121.742 171.559 121.777 171.332 121.805 171.097C121.889 170.428 121.953 169.751 122.02 169.074C122.04 168.863 122.06 168.656 122.084 168.453C122.601 168.659 123.146 168.787 123.701 168.831C123.944 168.83 124.183 168.775 124.403 168.672C124.623 168.569 124.818 168.42 124.975 168.234C125.039 168.142 125.083 168.038 125.104 167.928C125.125 167.818 125.123 167.705 125.098 167.596C125.072 167.487 125.024 167.385 124.956 167.296C124.888 167.207 124.802 167.133 124.704 167.079C124.107 166.769 123.032 167.338 122.606 167.764C122.57 167.796 122.18 168.286 122.088 168.413C122.136 167.959 122.188 167.505 122.259 167.059C122.353 166.457 122.486 165.861 122.657 165.275C123.177 165.489 123.726 165.623 124.286 165.674C124.529 165.672 124.768 165.618 124.987 165.515C125.207 165.412 125.401 165.262 125.556 165.076C125.621 164.985 125.666 164.88 125.688 164.77C125.71 164.66 125.708 164.547 125.683 164.437C125.658 164.328 125.61 164.225 125.542 164.135C125.474 164.046 125.388 163.971 125.29 163.917C124.688 163.611 123.613 164.18 123.187 164.606C123.155 164.638 122.733 165.164 122.665 165.263C122.665 165.232 122.665 165.196 122.693 165.16C122.877 164.578 123.112 164.014 123.398 163.475C123.549 163.177 123.713 162.898 123.88 162.631C124.363 162.889 124.883 163.072 125.421 163.173C125.662 163.197 125.906 163.17 126.136 163.091C126.365 163.013 126.575 162.886 126.751 162.719C126.828 162.635 126.886 162.535 126.921 162.426C126.956 162.318 126.967 162.203 126.954 162.09C126.941 161.977 126.903 161.867 126.844 161.77C126.785 161.672 126.706 161.589 126.612 161.524C126.046 161.15 124.915 161.6 124.445 161.974C124.422 161.994 124.183 162.229 124.011 162.404C124.087 162.285 124.167 162.161 124.242 162.05C124.525 161.624 124.808 161.253 125.063 160.923L125.461 160.421C126 160.426 126.537 160.35 127.054 160.194C127.28 160.107 127.485 159.97 127.653 159.795C127.82 159.619 127.948 159.409 128.025 159.179C128.053 159.07 128.057 158.957 128.037 158.846C128.018 158.736 127.976 158.631 127.913 158.538C127.85 158.445 127.768 158.367 127.673 158.308C127.578 158.249 127.471 158.21 127.36 158.195C126.687 158.123 125.891 159.043 125.644 159.593C125.644 159.641 125.377 160.425 125.393 160.425C125.266 160.572 125.13 160.728 124.995 160.899C124.736 161.222 124.441 161.588 124.147 162.01C123.828 162.461 123.535 162.929 123.267 163.412C122.979 163.946 122.738 164.505 122.546 165.08V165.1C122.546 164.905 122.546 164.352 122.546 164.304C122.466 163.706 121.965 162.599 121.304 162.476C121.193 162.458 121.079 162.463 120.971 162.492C120.862 162.521 120.761 162.573 120.674 162.643C120.587 162.714 120.515 162.802 120.465 162.902C120.414 163.003 120.385 163.112 120.38 163.225C120.39 163.467 120.452 163.704 120.563 163.92C120.674 164.136 120.83 164.325 121.021 164.475C121.488 164.78 121.998 165.013 122.534 165.168C122.346 165.768 122.198 166.38 122.092 167C122.028 167.362 121.973 167.724 121.925 168.095C121.925 167.924 121.925 167.768 121.925 167.748C121.845 167.151 121.343 166.04 120.682 165.921C120.571 165.902 120.457 165.908 120.349 165.937C120.24 165.966 120.138 166.018 120.051 166.089C119.964 166.16 119.893 166.249 119.842 166.35C119.792 166.45 119.763 166.561 119.758 166.673C119.767 166.916 119.829 167.154 119.94 167.37C120.051 167.586 120.208 167.775 120.4 167.924C120.851 168.222 121.345 168.451 121.865 168.601C121.865 168.74 121.829 168.883 121.813 169.023C121.73 169.7 121.654 170.377 121.554 171.038C121.523 171.269 121.479 171.5 121.439 171.726C121.439 171.575 121.439 171.448 121.439 171.428C121.363 170.831 120.862 169.719 120.196 169.596C120.086 169.579 119.972 169.585 119.864 169.614C119.756 169.643 119.655 169.695 119.568 169.766C119.481 169.837 119.41 169.926 119.36 170.026C119.31 170.127 119.281 170.237 119.277 170.349C119.286 170.591 119.349 170.829 119.459 171.044C119.57 171.26 119.727 171.45 119.918 171.599C120.356 171.892 120.837 172.115 121.343 172.26C121.292 172.495 121.244 172.726 121.184 172.949C121.144 173.1 121.112 173.252 121.061 173.399L120.917 173.845C120.814 174.124 120.714 174.41 120.607 174.681C120.535 174.868 120.463 175.044 120.392 175.223C120.427 174.992 120.487 174.538 120.491 174.498C120.488 173.971 120.351 173.453 120.093 172.993C120.101 172.933 120.101 172.873 120.093 172.814C120.079 172.702 120.042 172.595 119.984 172.499C119.926 172.403 119.849 172.321 119.757 172.257C119.664 172.193 119.56 172.149 119.45 172.129C119.34 172.108 119.226 172.111 119.117 172.137C118.468 172.312 118.054 173.455 118.022 174.056C118.022 174.092 118.042 174.478 118.062 174.725C118.03 174.582 117.998 174.442 117.962 174.299C117.895 174.012 117.819 173.726 117.736 173.415C117.692 173.272 117.648 173.12 117.6 172.969C117.552 172.818 117.497 172.666 117.445 172.515C117.317 172.161 117.166 171.81 117.011 171.46C117.538 171.351 118.046 171.162 118.516 170.898C118.717 170.763 118.886 170.587 119.012 170.381C119.139 170.174 119.219 169.944 119.249 169.704C119.252 169.591 119.231 169.48 119.188 169.376C119.146 169.272 119.081 169.179 119 169.102C118.918 169.025 118.821 168.966 118.715 168.929C118.609 168.892 118.496 168.878 118.385 168.887C117.716 168.959 117.13 170.026 117.011 170.615C117.011 170.655 116.963 171.085 116.947 171.324C116.851 171.117 116.756 170.906 116.652 170.695C116.354 170.094 116.031 169.5 115.713 168.891L115.422 168.338C115.966 168.223 116.491 168.028 116.979 167.76C117.18 167.626 117.35 167.45 117.477 167.244C117.603 167.037 117.683 166.806 117.712 166.566C117.715 166.454 117.694 166.343 117.652 166.239C117.609 166.136 117.545 166.042 117.464 165.965C117.383 165.888 117.286 165.829 117.181 165.792C117.075 165.755 116.963 165.74 116.851 165.749C116.178 165.821 115.597 166.888 115.478 167.478C115.478 167.525 115.41 168.147 115.406 168.306C115.195 167.908 114.988 167.509 114.801 167.083C114.543 166.532 114.322 165.964 114.14 165.383C114.689 165.269 115.218 165.073 115.709 164.802C115.911 164.668 116.081 164.492 116.208 164.286C116.334 164.079 116.414 163.847 116.441 163.607C116.445 163.494 116.425 163.382 116.382 163.278C116.34 163.174 116.275 163.08 116.194 163.002C116.112 162.925 116.015 162.866 115.909 162.828C115.802 162.791 115.689 162.777 115.577 162.787C114.908 162.862 114.327 163.929 114.203 164.519C114.203 164.567 114.136 165.236 114.132 165.359C114.122 165.324 114.11 165.289 114.096 165.256C113.93 164.668 113.817 164.067 113.757 163.46C113.718 163.125 113.702 162.803 113.69 162.492C114.238 162.441 114.775 162.306 115.283 162.094C115.498 161.982 115.687 161.825 115.835 161.633C115.984 161.441 116.089 161.219 116.143 160.983C116.158 160.871 116.15 160.758 116.119 160.65C116.088 160.542 116.035 160.442 115.962 160.356C115.889 160.271 115.799 160.201 115.698 160.153C115.597 160.104 115.486 160.078 115.374 160.075C114.701 160.075 114.004 161.07 113.821 161.644C113.821 161.676 113.741 162.002 113.698 162.245C113.698 162.102 113.698 161.954 113.698 161.819C113.698 161.309 113.729 160.843 113.761 160.429C113.781 160.194 113.805 159.979 113.829 159.784C114.264 159.485 114.652 159.122 114.98 158.709C115.12 158.511 115.214 158.284 115.258 158.046C115.301 157.807 115.292 157.562 115.231 157.327C115.194 157.221 115.135 157.124 115.057 157.042C114.98 156.961 114.887 156.897 114.783 156.854C114.679 156.811 114.567 156.79 114.455 156.794C114.343 156.797 114.233 156.824 114.132 156.873C113.534 157.184 113.375 158.39 113.475 158.984C113.475 159.035 113.71 159.824 113.722 159.816C113.698 160.007 113.67 160.214 113.646 160.437C113.606 160.835 113.562 161.317 113.55 161.831C113.533 162.382 113.546 162.934 113.59 163.483C113.639 164.1 113.741 164.712 113.897 165.311C113.897 165.311 113.897 165.311 113.897 165.331C113.789 165.164 113.479 164.706 113.451 164.674C113.053 164.22 112.025 163.571 111.404 163.834C111.302 163.88 111.21 163.948 111.136 164.032C111.062 164.116 111.006 164.215 110.972 164.322C110.939 164.429 110.928 164.542 110.942 164.654C110.955 164.765 110.992 164.872 111.049 164.969C111.193 165.164 111.378 165.326 111.59 165.443C111.803 165.56 112.038 165.629 112.28 165.646Z" fill="#263238"/>
<path d="M123.848 162.476C123.848 162.476 124.063 161.68 124.071 161.636C124.155 161.042 123.964 159.84 123.354 159.545C123.252 159.499 123.142 159.476 123.03 159.476C122.918 159.476 122.807 159.499 122.705 159.544C122.603 159.59 122.512 159.656 122.437 159.739C122.362 159.823 122.306 159.921 122.271 160.027C122.217 160.263 122.214 160.508 122.263 160.745C122.313 160.983 122.413 161.206 122.558 161.401C122.933 161.82 123.368 162.183 123.848 162.476Z" fill="#263238"/>
<path d="M145.806 23.2124C145.474 24.5227 145.559 25.9037 146.047 27.1638C146.536 28.424 147.405 29.5008 148.533 30.2448C149.662 30.9889 150.994 31.3634 152.344 31.3163C153.695 31.2692 154.998 30.8029 156.072 29.982L158.592 32.3952C158.527 32.6581 158.532 32.9334 158.606 33.1939C158.68 33.4544 158.821 33.6911 159.014 33.8806L164.49 39.2445C164.637 39.387 164.81 39.4992 165.001 39.5746C165.191 39.65 165.394 39.6872 165.599 39.6841C165.804 39.6809 166.006 39.6375 166.194 39.5563C166.381 39.475 166.552 39.3576 166.694 39.2107C166.837 39.0637 166.949 38.8901 167.024 38.6998C167.1 38.5095 167.137 38.3063 167.134 38.1016C167.13 37.8969 167.087 37.6949 167.006 37.507C166.925 37.3191 166.807 37.149 166.66 37.0065L161.173 31.6386C160.975 31.4484 160.731 31.3136 160.464 31.2479C160.198 31.1822 159.919 31.1879 159.656 31.2643L157.191 28.8909C157.786 28.1619 158.212 27.3108 158.441 26.3981C158.65 25.5685 158.694 24.7057 158.57 23.8592C158.445 23.0126 158.156 22.1989 157.717 21.4643C157.278 20.7297 156.699 20.0888 156.013 19.578C155.326 19.0673 154.546 18.6967 153.716 18.4876C152.887 18.2784 152.024 18.2347 151.177 18.3589C150.331 18.4831 149.517 18.7729 148.782 19.2116C148.048 19.6504 147.407 20.2295 146.896 20.916C146.385 21.6024 146.015 22.3827 145.806 23.2124V23.2124ZM157.31 26.1034C157.052 27.1293 156.495 28.0555 155.711 28.765C154.926 29.4745 153.949 29.9354 152.902 30.0893C151.855 30.2432 150.787 30.0833 149.831 29.6298C148.875 29.1763 148.076 28.4495 147.533 27.5415C146.99 26.6334 146.729 25.5848 146.783 24.5283C146.836 23.4718 147.201 22.4548 147.833 21.6061C148.464 20.7573 149.333 20.1149 150.33 19.7601C151.326 19.4052 152.406 19.3539 153.431 19.6125C154.806 19.9602 155.986 20.8389 156.713 22.0558C157.44 23.2727 157.655 24.7284 157.31 26.1034Z" stroke="#263238" stroke-miterlimit="10"/>
<path d="M25.3816 102.127C24.3938 102.363 23.504 102.9 22.8355 103.665C22.1669 104.429 21.7528 105.383 21.6504 106.393C21.548 107.403 21.7624 108.421 22.264 109.304C22.7656 110.187 23.5295 110.892 24.4497 111.321L23.717 113.842C23.519 113.89 23.337 113.988 23.1889 114.128C23.0408 114.268 22.9318 114.444 22.8728 114.638L21.1804 120.162C21.097 120.461 21.1335 120.781 21.2822 121.054C21.4309 121.327 21.6801 121.531 21.9768 121.623C22.2762 121.707 22.5962 121.67 22.8691 121.521C23.1419 121.373 23.3461 121.124 23.4383 120.827L25.1187 115.304C25.1785 115.105 25.1842 114.895 25.1352 114.694C25.0861 114.493 24.9842 114.309 24.84 114.161L25.5647 111.684C26.2839 111.832 27.0272 111.816 27.7396 111.639C28.452 111.461 29.1153 111.125 29.6804 110.656C30.2455 110.187 30.6979 109.597 31.0043 108.93C31.3106 108.263 31.463 107.535 31.4502 106.801C31.4373 106.067 31.2596 105.345 30.9301 104.688C30.6006 104.032 30.1277 103.459 29.5466 103.01C28.9654 102.561 28.2908 102.249 27.5726 102.096C26.8544 101.943 26.111 101.953 25.3975 102.127H25.3816ZM27.4443 110.808C26.6704 110.992 25.8592 110.942 25.1135 110.665C24.3678 110.388 23.7209 109.896 23.2547 109.252C22.7886 108.607 22.5241 107.839 22.4946 107.044C22.4652 106.249 22.6721 105.463 23.0894 104.785C23.5066 104.108 24.1153 103.57 24.8385 103.238C25.5617 102.907 26.3669 102.798 27.1524 102.924C27.9378 103.05 28.6681 103.407 29.251 103.948C29.8339 104.489 30.2431 105.191 30.4269 105.965C30.6728 107.001 30.4987 108.091 29.9428 108.999C29.3869 109.906 28.4943 110.556 27.4602 110.808H27.4443Z" stroke="#263238" stroke-miterlimit="10"/>
<path d="M158.146 65.4271H146.598C145.848 65.4271 145.129 65.725 144.599 66.2552C144.069 66.7854 143.771 67.5046 143.771 68.2544V74.6458C143.771 75.3956 144.069 76.1148 144.599 76.645C145.129 77.1752 145.848 77.4731 146.598 77.4731H154.642L154.244 81.4552L157.987 77.4731H158.146C158.518 77.4731 158.885 77.4 159.228 77.2579C159.571 77.1158 159.883 76.9075 160.146 76.645C160.408 76.3824 160.616 76.0708 160.758 75.7277C160.901 75.3847 160.974 75.0171 160.974 74.6458V68.2544C160.974 67.8831 160.901 67.5155 160.758 67.1724C160.616 66.8294 160.408 66.5177 160.146 66.2552C159.883 65.9927 159.571 65.7844 159.228 65.6423C158.885 65.5002 158.518 65.4271 158.146 65.4271V65.4271Z" stroke="#263238" stroke-miterlimit="10"/>
<path d="M26.2178 80.5593H34.0427C34.2943 80.5593 34.5433 80.6088 34.7757 80.7051C35.0081 80.8013 35.2193 80.9424 35.3971 81.1203C35.575 81.2981 35.7161 81.5093 35.8123 81.7417C35.9086 81.9741 35.9581 82.2231 35.9581 82.4747V86.8033C35.9581 87.0548 35.9086 87.3039 35.8123 87.5363C35.7161 87.7687 35.575 87.9798 35.3971 88.1577C35.2193 88.3355 35.0081 88.4766 34.7757 88.5729C34.5433 88.6691 34.2943 88.7187 34.0427 88.7187H28.5951L28.8779 91.4106L26.3253 88.7187H26.2178C25.7098 88.7187 25.2226 88.5169 24.8634 88.1577C24.5042 87.7985 24.3024 87.3113 24.3024 86.8033V82.4747C24.3024 81.9667 24.5042 81.4795 24.8634 81.1203C25.2226 80.7611 25.7098 80.5593 26.2178 80.5593Z" stroke="#263238" stroke-miterlimit="10"/>
<path d="M84.0585 7.59039H91.8834C92.3914 7.59039 92.8786 7.7922 93.2378 8.1514C93.597 8.51061 93.7988 8.99781 93.7988 9.50581V13.8344C93.7988 14.3424 93.597 14.8296 93.2378 15.1888C92.8786 15.548 92.3914 15.7498 91.8834 15.7498H86.4358L86.7186 18.4417L84.166 15.7498H84.0585C83.5505 15.7498 83.0633 15.548 82.7041 15.1888C82.3449 14.8296 82.1431 14.3424 82.1431 13.8344V9.50581C82.1431 8.99781 82.3449 8.51061 82.7041 8.1514C83.0633 7.7922 83.5505 7.59039 84.0585 7.59039V7.59039Z" stroke="#263238" stroke-miterlimit="10"/>
<path d="M73.4261 16.383L92.5723 69.8871L133.688 17.2272" stroke="#263238" stroke-miterlimit="10"/>
<path d="M150.019 51.3025L92.5723 69.8871L131.151 113.253" stroke="#263238" stroke-miterlimit="10"/>
<path d="M48.3625 111.564L92.5723 69.8871L32.3105 59.7486" stroke="#263238" stroke-miterlimit="10"/>
<path d="M154.935 54.1699C156.426 51.3212 155.326 47.8031 152.477 46.312C149.628 44.8208 146.11 45.9213 144.619 48.77C143.128 51.6186 144.228 55.1368 147.077 56.6279C149.926 58.1191 153.444 57.0186 154.935 54.1699Z" fill="#263238" stroke="#263238" stroke-width="0.5" stroke-miterlimit="10"/>
<path d="M151.703 51.0675H147.908C147.552 51.0675 147.211 51.2089 146.959 51.4606C146.708 51.7122 146.566 52.0536 146.566 52.4095V55.5952C147.494 56.3189 148.638 56.7076 149.815 56.6982C150.991 56.6888 152.13 56.2818 153.045 55.5434V52.4095C153.045 52.0536 152.904 51.7122 152.652 51.4606C152.4 51.2089 152.059 51.0675 151.703 51.0675Z" fill="#D5663F" stroke="#263238" stroke-miterlimit="10"/>
<path d="M149.74 50.4821C150.122 50.4821 150.495 50.3689 150.813 50.1566C151.131 49.9444 151.378 49.6428 151.524 49.2899C151.671 48.937 151.709 48.5486 151.634 48.174C151.56 47.7994 151.376 47.4552 151.106 47.1851C150.836 46.915 150.491 46.7311 150.117 46.6566C149.742 46.582 149.354 46.6203 149.001 46.7665C148.648 46.9126 148.346 47.1602 148.134 47.4778C147.922 47.7954 147.809 48.1688 147.809 48.5508C147.809 49.063 148.012 49.5543 148.374 49.9165C148.737 50.2786 149.228 50.4821 149.74 50.4821Z" fill="#D5663F" stroke="#263238" stroke-miterlimit="10"/>
<path d="M137.113 113.432C138.354 110.466 136.956 107.055 133.99 105.814C131.024 104.573 127.613 105.971 126.372 108.937C125.131 111.903 126.529 115.314 129.495 116.555C132.461 117.796 135.872 116.398 137.113 113.432Z" fill="#263238" stroke="#263238" stroke-width="0.5" stroke-miterlimit="10"/>
<path d="M133.696 110.8H129.901C129.725 110.799 129.551 110.833 129.388 110.9C129.225 110.967 129.077 111.066 128.952 111.19C128.828 111.315 128.729 111.462 128.661 111.625C128.594 111.787 128.559 111.962 128.559 112.138V115.323C129.486 116.047 130.631 116.436 131.807 116.426C132.984 116.417 134.122 116.01 135.038 115.272V112.138C135.038 111.962 135.003 111.787 134.936 111.625C134.868 111.462 134.769 111.315 134.645 111.19C134.52 111.066 134.372 110.967 134.209 110.9C134.046 110.833 133.872 110.799 133.696 110.8Z" fill="#D5663F" stroke="#263238" stroke-miterlimit="10"/>
<path d="M131.705 110.21C132.087 110.21 132.46 110.097 132.778 109.885C133.095 109.673 133.343 109.371 133.489 109.018C133.635 108.665 133.674 108.277 133.599 107.902C133.525 107.528 133.341 107.183 133.071 106.913C132.8 106.643 132.456 106.459 132.082 106.385C131.707 106.31 131.319 106.348 130.966 106.495C130.613 106.641 130.311 106.888 130.099 107.206C129.887 107.524 129.774 107.897 129.774 108.279C129.774 108.533 129.823 108.784 129.921 109.018C130.018 109.252 130.16 109.465 130.339 109.645C130.519 109.824 130.731 109.966 130.966 110.063C131.2 110.16 131.451 110.21 131.705 110.21Z" fill="#D5663F" stroke="#263238" stroke-miterlimit="10"/>
<path d="M73.1753 20.1422C75.4581 20.1422 77.3088 18.2915 77.3088 16.0087C77.3088 13.7258 75.4581 11.8752 73.1753 11.8752C70.8924 11.8752 69.0418 13.7258 69.0418 16.0087C69.0418 18.2915 70.8924 20.1422 73.1753 20.1422Z" fill="#263238" stroke="#263238" stroke-width="0.5" stroke-miterlimit="10"/>
<path d="M74.5451 15.7498H71.8532C71.6008 15.7498 71.3587 15.8501 71.1802 16.0286C71.0017 16.2071 70.9015 16.4492 70.9015 16.7016V18.9356C71.5599 19.4473 72.3715 19.722 73.2054 19.7155C74.0392 19.709 74.8465 19.4216 75.4969 18.8997V16.6817C75.4917 16.4327 75.3891 16.1957 75.2112 16.0215C75.0332 15.8473 74.7941 15.7498 74.5451 15.7498Z" fill="#D5663F" stroke="#263238" stroke-miterlimit="10"/>
<path d="M73.1673 15.3118C73.4382 15.3118 73.7031 15.2315 73.9284 15.0809C74.1536 14.9304 74.3292 14.7165 74.4329 14.4662C74.5366 14.2159 74.5637 13.9404 74.5108 13.6747C74.458 13.409 74.3275 13.1649 74.1359 12.9733C73.9444 12.7817 73.7003 12.6513 73.4345 12.5984C73.1688 12.5455 72.8934 12.5727 72.6431 12.6764C72.3928 12.78 72.1788 12.9556 72.0283 13.1809C71.8778 13.4062 71.7974 13.671 71.7974 13.9419C71.7974 14.3053 71.9418 14.6537 72.1987 14.9106C72.4556 15.1675 72.804 15.3118 73.1673 15.3118Z" fill="#D5663F" stroke="#263238" stroke-miterlimit="10"/>
<path d="M51.5431 112.48C52.4222 110.374 51.427 107.953 49.3202 107.074C47.2134 106.195 44.7929 107.19 43.9137 109.297C43.0346 111.404 44.0298 113.824 46.1366 114.703C48.2434 115.582 50.664 114.587 51.5431 112.48Z" fill="#263238" stroke="#263238" stroke-width="0.5" stroke-miterlimit="10"/>
<path d="M49.0992 110.609H46.4073C46.2816 110.608 46.1571 110.632 46.0409 110.68C45.9247 110.728 45.8192 110.798 45.7303 110.887C45.6415 110.976 45.5711 111.082 45.5232 111.198C45.4754 111.314 45.451 111.439 45.4516 111.564V113.822C46.1094 114.337 46.9222 114.614 47.7575 114.607C48.5928 114.601 49.4012 114.311 50.0509 113.786V111.564C50.0515 111.439 50.0272 111.315 49.9796 111.199C49.932 111.083 49.862 110.978 49.7736 110.889C49.6852 110.8 49.5801 110.729 49.4643 110.681C49.3486 110.633 49.2245 110.609 49.0992 110.609Z" fill="#D5663F" stroke="#263238" stroke-miterlimit="10"/>
<path d="M47.7055 110.19C47.9764 110.19 48.2412 110.11 48.4665 109.96C48.6918 109.809 48.8674 109.595 48.971 109.345C49.0747 109.095 49.1019 108.819 49.049 108.553C48.9961 108.288 48.8657 108.044 48.6741 107.852C48.4825 107.66 48.2384 107.53 47.9727 107.477C47.707 107.424 47.4316 107.451 47.1812 107.555C46.9309 107.659 46.717 107.834 46.5665 108.06C46.4159 108.285 46.3356 108.55 46.3356 108.821C46.3356 109.184 46.4799 109.532 46.7368 109.789C46.9937 110.046 47.3422 110.19 47.7055 110.19Z" fill="#D5663F" stroke="#263238" stroke-miterlimit="10"/>
<path d="M137.46 17.2109C138.291 15.0848 137.242 12.6873 135.116 11.8558C132.989 11.0243 130.592 12.0738 129.76 14.1998C128.929 16.3259 129.978 18.7234 132.104 19.5549C134.231 20.3863 136.628 19.3369 137.46 17.2109Z" fill="#263238" stroke="#263238" stroke-width="0.5" stroke-miterlimit="10"/>
<path d="M134.99 15.4273H132.294C132.169 15.4273 132.045 15.4519 131.93 15.4997C131.815 15.5476 131.71 15.6177 131.621 15.706C131.533 15.7944 131.463 15.8993 131.415 16.0148C131.367 16.1303 131.342 16.254 131.342 16.379V18.6409C132.002 19.1529 132.814 19.4278 133.648 19.4213C134.483 19.4148 135.291 19.1273 135.942 18.605V16.379C135.942 16.254 135.917 16.1303 135.869 16.0148C135.822 15.8993 135.751 15.7944 135.663 15.706C135.575 15.6177 135.47 15.5476 135.354 15.4997C135.239 15.4519 135.115 15.4273 134.99 15.4273Z" fill="#D5663F" stroke="#263238" stroke-miterlimit="10"/>
<path d="M133.596 15.0092C133.867 15.0092 134.132 14.9288 134.357 14.7783C134.583 14.6278 134.758 14.4138 134.862 14.1635C134.966 13.9132 134.993 13.6378 134.94 13.3721C134.887 13.1063 134.757 12.8622 134.565 12.6707C134.373 12.4791 134.129 12.3486 133.864 12.2958C133.598 12.2429 133.322 12.27 133.072 12.3737C132.822 12.4774 132.608 12.653 132.457 12.8782C132.307 13.1035 132.227 13.3684 132.227 13.6393C132.227 14.0026 132.371 14.351 132.628 14.6079C132.885 14.8648 133.233 15.0092 133.596 15.0092Z" fill="#D5663F" stroke="#263238" stroke-miterlimit="10"/>
<path d="M38.7542 61.6945C40.3746 57.8548 38.5755 53.4285 34.7357 51.8081C30.896 50.1877 26.4697 51.9869 24.8493 55.8266C23.2289 59.6663 25.0281 64.0926 28.8678 65.713C32.7075 67.3334 37.1338 65.5343 38.7542 61.6945Z" fill="#263238" stroke="#263238" stroke-width="0.5" stroke-miterlimit="10"/>
<path d="M34.3055 58.2513H29.3876C28.9267 58.2513 28.4847 58.4341 28.1585 58.7596C27.8322 59.0851 27.6484 59.5267 27.6474 59.9875V64.113C28.8497 65.0484 30.3324 65.5509 31.8556 65.5394C33.3789 65.5278 34.8538 65.0028 36.0417 64.0493V59.9875C36.0417 59.527 35.8588 59.0854 35.5332 58.7598C35.2076 58.4342 34.766 58.2513 34.3055 58.2513Z" fill="#D5663F" stroke="#263238" stroke-miterlimit="10"/>
<path d="M31.753 57.4867C32.2476 57.4867 32.7311 57.34 33.1423 57.0653C33.5536 56.7905 33.8741 56.3999 34.0634 55.9429C34.2527 55.486 34.3022 54.9832 34.2057 54.4981C34.1092 54.0129 33.871 53.5673 33.5213 53.2176C33.1716 52.8679 32.726 52.6297 32.2408 52.5332C31.7557 52.4367 31.2529 52.4862 30.796 52.6755C30.339 52.8648 29.9484 53.1853 29.6736 53.5966C29.3989 54.0078 29.2522 54.4913 29.2522 54.9859C29.2522 55.6492 29.5157 56.2853 29.9846 56.7543C30.4536 57.2232 31.0897 57.4867 31.753 57.4867Z" fill="#D5663F" stroke="#263238" stroke-miterlimit="10"/>
<path d="M56.3507 28.7475C56.3507 28.7237 56.3507 28.6998 56.3507 28.6759C56.2378 27.6425 55.8307 26.6632 55.1778 25.8542C54.5249 25.0453 53.6535 24.4408 52.6672 24.1123C51.6663 23.7726 50.5855 23.7462 49.5691 24.0367C49.7941 23.2725 49.8711 22.4723 49.7961 21.6792C49.6482 20.0932 48.9028 18.6228 47.7109 17.5661C46.5191 16.5093 44.97 15.9453 43.3777 15.9883C41.7854 16.0314 40.2691 16.6783 39.1361 17.7979C38.0031 18.9175 37.3382 20.4261 37.2762 22.0177C37.1846 22.0177 37.093 22.0177 37.0015 22.0177C35.3359 22.0177 33.7386 22.6793 32.5609 23.857C31.3832 25.0347 30.7216 26.632 30.7216 28.2976C30.7201 28.86 30.7951 29.4199 30.9446 29.9621C31.1553 30.6902 31.598 31.3296 32.2054 31.7832C32.8127 32.2367 33.5515 32.4796 34.3095 32.4748H52.8584C53.3378 32.4771 53.8125 32.3804 54.2529 32.1908C54.6932 32.0012 55.0897 31.7227 55.4175 31.3729C55.7453 31.023 55.9974 30.6093 56.1579 30.1576C56.3185 29.7058 56.3841 29.2258 56.3507 28.7475V28.7475Z" stroke="#263238" stroke-miterlimit="10"/>
<path d="M151.616 92.4898C151.614 92.4766 151.614 92.4632 151.616 92.45C151.555 91.8909 151.335 91.3611 150.982 90.9234C150.629 90.4857 150.158 90.1586 149.625 89.981C149.084 89.7968 148.5 89.7829 147.952 89.9412C148.075 89.5285 148.119 89.0959 148.079 88.6669C148.021 87.7937 147.626 86.9772 146.979 86.3882C146.332 85.7992 145.482 85.4836 144.607 85.5072C143.732 85.5309 142.9 85.8921 142.286 86.5152C141.671 87.1383 141.321 87.975 141.31 88.8501H141.162C140.263 88.8512 139.401 89.2091 138.766 89.8452C138.131 90.4814 137.774 91.3438 137.774 92.2429C137.775 92.5455 137.815 92.8466 137.893 93.1389C138.006 93.5328 138.244 93.879 138.572 94.1249C138.9 94.3707 139.299 94.5027 139.709 94.5008H149.72C149.98 94.5036 150.237 94.4526 150.476 94.351C150.715 94.2494 150.93 94.0994 151.108 93.9105C151.286 93.7216 151.424 93.4978 151.511 93.2533C151.598 93.0087 151.634 92.7488 151.616 92.4898V92.4898Z" stroke="#263238" stroke-miterlimit="10"/>
<path d="M63.5703 123.176C63.5703 123.176 63.5703 123.152 63.5703 123.14C63.5103 122.581 63.2907 122.051 62.9376 121.613C62.5846 121.176 62.113 120.849 61.5793 120.671C61.039 120.487 60.4552 120.473 59.9068 120.632C60.0288 120.219 60.0707 119.786 60.0302 119.357C59.945 118.534 59.5645 117.769 58.9591 117.205C58.3536 116.641 57.5643 116.314 56.737 116.287C55.8479 116.266 54.986 116.595 54.3377 117.204C53.6894 117.812 53.3068 118.652 53.2725 119.541H53.1252C52.6795 119.54 52.2381 119.627 51.8262 119.798C51.4143 119.968 51.0401 120.218 50.7249 120.533C50.4098 120.848 50.1599 121.222 49.9896 121.634C49.8193 122.046 49.7319 122.488 49.7324 122.933C49.7326 123.236 49.7742 123.538 49.8558 123.829C49.9675 124.224 50.2057 124.571 50.5337 124.817C50.8618 125.063 51.2616 125.194 51.6717 125.191H61.6788C61.9385 125.194 62.1958 125.142 62.4345 125.04C62.6733 124.938 62.8883 124.787 63.066 124.598C63.2438 124.409 63.3803 124.185 63.4671 123.94C63.5539 123.695 63.5891 123.435 63.5703 123.176V123.176Z" stroke="#263238" stroke-miterlimit="10"/>
<path d="M120.555 19.4492C120.557 19.4374 120.557 19.4253 120.555 19.4134C120.496 18.8539 120.277 18.3233 119.923 17.8854C119.57 17.4474 119.098 17.1207 118.564 16.9445C118.024 16.759 117.44 16.7437 116.891 16.9007C117.015 16.4894 117.057 16.0578 117.015 15.6304C116.956 14.7572 116.562 13.9406 115.914 13.3517C115.267 12.7627 114.417 12.447 113.542 12.4707C112.667 12.4943 111.835 12.8555 111.221 13.4786C110.606 14.1018 110.257 14.9385 110.245 15.8135H110.098C109.576 15.8148 109.062 15.9361 108.595 16.168C108.128 16.4 107.721 16.7363 107.405 17.151C107.088 17.5657 106.872 18.0477 106.772 18.5594C106.672 19.0712 106.691 19.5992 106.828 20.1023C106.941 20.4962 107.18 20.8425 107.508 21.0883C107.835 21.3342 108.235 21.4662 108.644 21.4642H118.655C118.916 21.4683 119.174 21.418 119.414 21.3166C119.654 21.2152 119.871 21.065 120.049 20.8754C120.228 20.6858 120.365 20.4611 120.452 20.2156C120.539 19.97 120.574 19.709 120.555 19.4492V19.4492Z" stroke="#263238" stroke-miterlimit="10"/>
<path d="M122.902 99.3981C139.801 82.4986 139.801 55.099 122.902 38.1995C106.002 21.2999 78.6026 21.2999 61.703 38.1995C44.8035 55.099 44.8035 82.4986 61.7031 99.3981C78.6026 116.298 106.002 116.298 122.902 99.3981Z" fill="white" stroke="#263238" stroke-miterlimit="10"/>
<path d="M90.7445 48.7658L94.8541 50.6135L95.981 52.4613L97.8327 53.182L98.0358 55.1333L97.319 56.2602L95.8815 56.5708L92.7993 55.3364V54.9382L94.5435 54.2174L93.9302 52.063L91.1427 51.0356L89.9122 49.391L90.7445 48.7658ZM116.628 96.2131L113.343 94.8791L109.337 93.4415H106.151L103.173 92.8243L99.8835 93.5411L98.0358 93.6446H96.9089L94.7505 94.8791L92.6798 95.6994L89.8923 93.9552L90.6091 91.0761L88.8649 90.3594H86.8101L86.5035 89.4355L86.7066 87.5838L85.9898 86.5604L84.5523 86.7635L84.154 87.7909L82.4099 87.8944L80.8688 86.0467L80.2515 83.5817L81.7926 80.7026L84.7713 80.9097L85.5956 81.6305H86.8261L88.3672 80.7026L89.7012 81.1009L91.5489 84.2866L92.2697 84.183L92.0626 81.8216L91.4852 80.6031L91.6883 78.6518L95.4872 77.0072L96.0009 73.2082L97.6456 71.8702L98.9796 69.5088L100.007 69.3057L102.368 67.7646L102.472 66.9443L100.831 67.0439L100.521 66.2236H99.3937L97.6456 66.6218L98.4659 65.2878L102.05 64.2604L102.87 63.3365L104.308 65.5944L105.236 66.5182L106.673 66.12L106.056 64.786L103.898 63.2449L101.433 60.4574L98.8681 58.7092L96.4031 58.311L95.1687 57.0805L93.524 56.6823L93.3209 57.0805L93.1139 60.0592L93.5121 61.0826L92.5882 64.3719L90.5414 62.7392L90.848 61.3016L88.6977 60.2663L87.7659 59.1552L88.2796 56.5907L91.2582 54.4324L91.4653 51.9675L90.3343 52.071L89.6136 51.1471L89.3069 49.6061L88.5862 49.5025L88.188 51.1471L87.061 51.3502L86.5473 47.7663L85.7111 47.2088L84.2735 46.5916L82.6329 47.4119L84.6837 49.3631L85.0819 51.1113L81.3825 48.3238L78.814 45.5363L78.6109 42.7488L75.9548 41.9842L73.9 43.3222C73.4049 43.622 72.8945 43.8958 72.3709 44.1425C71.5602 44.3358 70.7363 44.4689 69.9059 44.5408L69.5077 46.2889L67.1463 46.3885L67.3534 47.5194L71.1523 48.1366L73.1036 50.291V53.8749L71.9727 57.0606L72.1797 60.4494L69.3046 65.4789L68.6874 72.9773L69.5834 77.3138L70.9174 80.6031L72.4585 80.8062L71.9448 79.1655L71.1245 77.9311L70.6108 75.6732L71.5346 75.4661L72.9722 79.1655L73.9996 82.4508V85.1188L75.9508 87.4842L79.4432 90.0488L84.7832 91.4903L86.4279 93.0274L87.6583 94.672L89.51 95.8029L91.7679 96.4162L94.0258 96.3167C94.0258 96.3167 93.9262 97.344 93.9262 97.8577C93.9262 98.3714 92.4887 100.116 92.4887 100.116L91.3617 102.162L92.1821 104.42L94.4439 105.344L97.6296 108.633L99.0672 109.247V110.788L99.2464 111.505C107.234 110.214 114.698 106.7 120.782 101.366L120.838 100.621L123.625 95.5879L122.291 94.6641L116.628 96.2131ZM127.325 55.647L126.194 53.6917L124.756 51.4339L124.358 48.3517L126.206 48.6623L126.309 47.6349L124.971 47.5314L126.102 47.0177L127.336 46.3009V45.2735L126.102 43.6289L125.839 41.4188C119.871 34.1147 111.68 28.96 102.513 26.7389C93.3461 24.5177 83.7044 25.3517 75.0548 29.1139L77.4202 30.7904L75.9548 32.6381L74.0036 33.0363L73.8005 35.8238L72.9762 36.1305L71.9488 37.2534L72.0523 39.1011L73.8005 39.3082L73.0797 41.0524H74.8279L77.8025 37.2534L78.1131 35.6088L80.9882 35.4057L81.705 34.1713L84.6837 33.8646L84.9943 32.1165L87.1486 32.0169C87.1486 32.0169 88.6897 31.1926 89.0003 31.1926C89.5934 31.3214 90.1763 31.4931 90.7445 31.7063L92.2856 32.9408H94.4439L96.2916 31.8098L98.653 32.0169C98.9929 32.2378 99.3807 32.3744 99.784 32.4151C100.298 32.4151 101.839 31.6944 101.839 31.6944L104.813 33.5421L106.048 34.4699V36.007L107.589 36.2141L108.103 35.2902L109.437 35.9075L109.333 36.7278L106.255 37.5481L107.999 39.81L111.695 41.8648L113.236 43.9156L115.498 44.1226L116.011 43.0952L116.832 42.8882L114.16 40.8374L112.519 40.6303L113.853 40.2321L112.622 38.4839L114.367 38.3844L116.624 39.6148L117.138 42.0798L118.269 43.4138L119.193 46.3925L121.455 48.0371V51.4259L123.816 52.967L123.713 54.0979L123.406 55.4319L124.019 57.2797L124.226 58.2035L125.971 58.5141L126.795 56.766L127.325 55.647ZM128.659 45.2934V45.8827L128.121 47.5314L128.428 48.9689L129.558 49.3671V51.3184L128.328 50.8047L128.025 56.3677L126.795 58.6256L127.615 61.5047L128.949 62.7352V68.2823L130.287 72.595L131.725 75.8803L134.086 76.4975L134.907 74.4427L135.241 74.1799C135.463 72.3952 135.575 70.5985 135.576 68.8C135.588 60.4599 133.18 52.2954 128.643 45.2974L128.659 45.2934ZM104.933 44.6523L98.1632 41.6736L95.1846 41.7772L94.4678 43.7284L93.2334 42.3904L90.9755 42.9041L90.7684 46.2969L92.6161 47.6309L93.9541 45.6797L95.4673 47.2088L98.653 49.9963L99.2703 52.975L101.938 56.3638L106.255 55.647L106.151 54.1059L105.228 52.3577L105.024 48.2521L106.052 46.504L104.933 44.6523ZM110.48 46.9101L108.939 46.5119L107.605 47.6429L108.322 50.6215H109.66L110.48 46.9101ZM120.037 48.8614L116.545 47.0137L115.824 45.7832L115.004 46.0898L115.721 48.1446L116.338 50.8126L117.879 51.4299L118.185 51.0317L117.262 49.4906L119.934 50.518L120.037 48.8614ZM90.0476 85.9392L89.6494 86.3374L92.7316 87.2612L93.9661 88.6988L95.9173 88.9059L96.6341 87.7749L94.2727 87.3767L90.0476 85.9392ZM99.2066 87.8904L97.0482 88.5077L97.3589 89.328H100.027L100.541 88.5077L99.6167 88.6072L99.2066 87.8904Z" fill="#D5663F" stroke="#263238" stroke-miterlimit="10"/>
<path d="M122.944 122.471C122.908 123.591 123.042 124.709 123.342 125.788C123.816 127.302 124.286 128.723 124.76 129.293C125.234 129.862 125.994 128.914 125.329 127.776C124.664 126.637 125.047 125.41 125.425 125.41C125.803 125.41 128.834 127.302 129.308 127.967C129.782 128.632 131.203 130.336 131.203 129.197C131.203 128.058 129.025 125.693 128.647 125.028C128.268 124.363 126.182 121.524 126.182 121.524L122.944 122.471Z" fill="white" stroke="#263238" stroke-linejoin="round"/>
<path d="M124.286 118.963L126.182 121.524L122.582 123.511L120.877 121.428L124.286 118.963Z" fill="#D5663F" stroke="#263238" stroke-linejoin="round"/>
<path d="M104.204 172.013C104.204 172.013 102.783 175.139 102.213 175.995C101.644 176.852 101.17 177.226 100.222 177.417C99.2743 177.608 97.6655 177.795 97.6655 178.552C97.6765 179.022 97.8141 179.48 98.0637 179.878C98.0637 179.878 102.516 180.826 104.037 180.447C105.558 180.069 107.067 177.982 107.067 177.982L108.015 178.552L110.763 175.9C110.59 174.968 110.266 174.071 109.803 173.244C108.951 171.539 108.477 170.309 108.477 170.309C108.477 170.309 106.382 172.013 104.204 172.013Z" fill="#616161" stroke="#263238" stroke-linejoin="round"/>
<path d="M110.157 174.028C109.162 174.964 106.86 177.214 106.231 177.767C105.435 178.472 103.802 179.882 102.552 179.882C101.652 179.882 99.1389 179.52 97.773 179.313C97.8341 179.51 97.9197 179.698 98.0278 179.874C98.0278 179.874 102.48 180.822 104.001 180.443C105.522 180.065 107.031 177.979 107.031 177.979L107.979 178.548L110.727 175.896C110.622 175.25 110.431 174.622 110.157 174.028Z" stroke="#263238" stroke-linejoin="round"/>
<path d="M96.8173 159.414C96.8173 159.414 98.6172 163.201 100.401 165.475C102.185 167.748 104.188 172.865 104.188 172.865C104.188 172.865 105.801 173.435 106.936 172.579C107.657 171.991 108.186 171.2 108.453 170.309C108.453 170.309 106.179 163.296 105.327 160.266C104.475 157.236 102.388 150.601 101.441 148.992C100.723 147.808 99.9381 146.664 99.0911 145.568C99.0911 145.568 98.0478 151.82 97.5739 154.185C97.1 156.551 96.8173 159.414 96.8173 159.414Z" fill="#263238" stroke="#263238" stroke-linejoin="round"/>
<path d="M88.3831 115.837L88.4787 121.898C88.4787 121.898 86.8858 133.08 88.1959 138.762C89.5061 144.445 91.6046 150.709 91.6046 150.709C91.6046 150.709 90.5653 161.13 90.183 163.687C89.8007 166.243 88.1919 171.077 88.1919 171.077C88.1919 171.077 90.9396 172.499 91.4135 172.499H92.3612C92.3612 172.499 95.2005 164.826 95.77 163.687C96.3394 162.548 98.3265 160.373 98.9915 155.635C99.6565 150.896 99.8477 145.966 99.8477 145.966C99.8477 145.966 104.582 139.901 105.721 138.002C106.86 136.102 108.656 132.22 108.656 132.22C108.656 132.22 110.743 126.82 110.456 121.611C110.169 116.403 108.565 113.75 108.565 113.75C108.565 113.75 99.2782 115.929 94.9218 115.929C90.5653 115.929 88.3831 115.837 88.3831 115.837Z" fill="#263238" stroke="#263238" stroke-linejoin="round"/>
<path d="M90.8003 81.8137C90.8003 81.8137 92.64 83.6534 92.3613 84.2946C92.0825 84.9357 87.3119 85.2144 86.3004 86.4091C85.289 87.6037 80.9723 102.76 80.9723 102.76C80.9723 102.76 75.8274 101.286 75.3694 100.92C74.9115 100.554 74.358 100.828 74.0832 101.931C73.8084 103.035 71.0528 105.515 71.4191 106.157C71.7855 106.798 76.8388 109.279 79.3197 109.924C80.8302 110.312 82.3676 110.588 83.9191 110.748L83.5527 115.435C83.5527 115.435 88.2357 118.099 97.331 116.904C106.426 115.71 110.201 113.782 110.201 113.782L109.102 104.321C109.102 104.321 115.075 115.527 116.083 117.462C117.09 119.397 118.377 122.24 119.48 122.607C120.583 122.973 124.533 120.401 124.625 119.302C124.716 118.203 121.319 112.87 118.651 108.279C115.983 103.688 112.312 90.7337 111.762 87.9701C111.213 85.2065 109.739 82.9167 108.178 82.5504C106.617 82.184 102.392 82.18 100.553 81.8137C98.7128 81.4473 96.1443 78.4169 94.9497 74.5582L90.8003 81.8137Z" fill="#D5663F" stroke="#263238" stroke-miterlimit="10"/>
<path d="M87.503 90.3633C87.9689 89.3757 88.3273 88.7028 88.3273 88.7028" stroke="#263238" stroke-miterlimit="10"/>
<path d="M83.9191 110.748C83.9191 110.748 85.0222 98.9011 85.4801 96.0538C85.77 94.6456 86.2119 93.273 86.7982 91.9602" stroke="#263238" stroke-miterlimit="10"/>
<path d="M106.048 93.4614C105.913 92.8084 105.785 92.1673 105.682 91.55" stroke="#263238" stroke-miterlimit="10"/>
<path d="M109.082 104.321C109.082 104.321 107.557 99.801 106.454 95.2375" stroke="#263238" stroke-miterlimit="10"/>
<path d="M89.8923 85.083C90.3343 86.0308 91.752 87.9462 96.0487 87.8705C101.118 87.7869 103.348 84.2866 104.168 82.1561C102.956 82.1068 101.748 81.9898 100.549 81.8057C98.7128 81.4393 96.1403 78.4089 94.9457 74.5502L90.8002 81.8137C90.8002 81.8137 92.64 83.6534 92.3612 84.2945C92.2338 84.5932 91.1268 84.8162 89.8923 85.083Z" fill="white" stroke="#263238" stroke-miterlimit="10"/>
<path d="M94.2368 77.1745L92.9864 77.9709L90.8002 81.8017C91.3208 82.3247 91.7828 82.9029 92.1781 83.526C94.2368 81.077 94.2368 77.1745 94.2368 77.1745Z" fill="#263238" stroke="#263238" stroke-linejoin="round"/>
<path d="M80.148 73.0928C80.148 73.0928 81.8922 76.1232 82.3501 77.501C83.0213 79.1894 84.2997 80.5658 85.9341 81.3597C87.5867 82.0924 88.4149 82.7375 89.8844 82.8291C91.9909 82.9605 93.5559 79.9819 94.3842 77.6842C95.2125 75.3865 95.2125 75.0201 95.2125 75.0201C95.2125 75.0201 96.4947 73.0928 96.4947 71.0698C96.4947 69.0469 94.201 66.7532 91.6285 65.5585C89.0561 64.3639 87.3119 62.6197 84.6478 65.009C81.9838 67.3983 80.148 73.0928 80.148 73.0928Z" fill="white" stroke="#263238" stroke-miterlimit="10"/>
<path d="M84.7394 76.0276C84.9345 76.5597 85.0577 77.1155 85.1058 77.6802C85.1058 78.3253 85.9341 78.6001 86.6668 77.2222" stroke="#263238" stroke-miterlimit="10"/>
<path d="M86.85 79.066C86.85 79.066 89.1477 79.4323 89.6056 76.6767" stroke="#263238" stroke-miterlimit="10"/>
<path d="M87.3198 72.8419C87.5349 73.2082 87.5428 73.6025 87.3198 73.7259C87.0968 73.8494 86.7703 73.6463 86.5553 73.2799C86.3402 72.9136 86.3363 72.5153 86.5553 72.3959C86.7743 72.2764 87.1048 72.4755 87.3198 72.8419Z" fill="#263238"/>
<path d="M83.6125 74.6856C83.8275 75.052 83.8355 75.4502 83.6125 75.5697C83.3895 75.6891 83.0629 75.49 82.8519 75.1237C82.6408 74.7573 82.6289 74.3591 82.8519 74.2396C83.0749 74.1202 83.4014 74.3113 83.6125 74.6856Z" fill="#263238"/>
<path d="M84.6877 71.6154C84.6877 71.6154 85.0859 70.1738 87.6703 70.365" stroke="#263238" stroke-miterlimit="10"/>
<path d="M82.7603 73.0609C82.7603 73.0609 81.3188 73.0609 81.4143 74.2157" stroke="#263238" stroke-miterlimit="10"/>
<path d="M86.7584 66.4744C86.7584 66.4744 85.5637 67.8522 84.1859 69.2301C82.8081 70.6079 80.5144 72.6308 80.5144 75.1077C80.5144 77.5846 80.606 77.8634 80.606 77.8634C80.606 77.8634 76.6557 75.8444 75.5526 73.0848C74.4496 70.3252 76.9304 63.9896 79.9609 61.1383C82.9913 58.2871 86.5752 57.7416 90.5255 58.0163C94.4758 58.2911 98.4261 62.2414 99.4375 66.1917C100.449 70.142 98.4261 74.4586 97.781 75.1913C97.1359 75.9241 95.1169 76.0196 95.1169 76.0196C95.5479 74.6227 95.6434 73.1438 95.3957 71.703C94.9337 69.5885 93.6475 70.0504 93.4643 70.9663C93.2811 71.8822 93.1895 72.2525 93.1895 72.2525C93.1895 72.2525 91.3538 70.9663 89.4224 69.5885C88.2863 68.7914 87.37 67.7202 86.7584 66.4744Z" fill="#263238" stroke="#263238" stroke-linejoin="round"/>
<path d="M69.3086 103.588L71.7855 99.9125L72.9801 101.107L69.3086 103.588Z" fill="#D5663F" stroke="#263238" stroke-linejoin="round"/>
<path d="M78.0653 98.1684L72.2952 98.1922L66.7959 87.5997L72.566 87.5758L78.0653 98.1684Z" fill="#263238" stroke="#263238" stroke-linejoin="round"/>
<path d="M67.7476 92.7447C67.7476 92.7447 69.217 94.1225 69.3086 94.7676C69.4002 95.4127 70.1329 97.8896 70.5032 99.0842C70.8736 100.279 72.2474 101.565 72.2474 101.565L73.4421 100.37L72.9801 98.3475C73.4207 97.9571 73.8806 97.5889 74.358 97.2445C74.9115 96.8781 75.5526 95.8667 75.1863 95.8667C74.908 95.8751 74.6309 95.9071 74.358 95.9622C74.358 95.9622 75.1863 94.676 74.6367 94.5844C74.2719 94.525 73.9032 94.493 73.5337 94.4888C73.5337 94.4888 74.4496 93.3898 73.7168 93.2942C72.9841 93.1986 70.4077 94.5804 70.4077 94.5804L69.3086 92.9239C69.0742 92.7897 68.8149 92.7046 68.5465 92.6738C68.2782 92.643 68.0063 92.6671 67.7476 92.7447Z" fill="white" stroke="#263238" stroke-linejoin="round"/>
<path d="M68.0502 92.1394C67.9716 92.2074 67.9135 92.296 67.8825 92.3953C67.8515 92.4945 67.849 92.6005 67.8751 92.7011C67.9012 92.8018 67.9549 92.8932 68.0302 92.9649C68.1055 93.0366 68.1993 93.0858 68.3011 93.107C68.4702 93.1666 68.6519 93.1814 68.8284 93.15C69.005 93.1186 69.1704 93.0421 69.3086 92.9278C69.7666 92.3783 71.6023 90.9089 71.6023 90.1722C71.6023 89.4355 70.778 90.2638 70.4077 90.4509C69.5795 90.9521 68.7913 91.5166 68.0502 92.1394Z" fill="white" stroke="#263238" stroke-linejoin="round"/>
<path d="M73.5337 94.4888C73.5337 94.4888 70.778 95.8666 70.3161 96.4202" stroke="#263238" stroke-linejoin="round"/>
<path d="M74.3619 95.9622C74.3619 95.9622 72.1598 96.9697 71.4231 97.798" stroke="#263238" stroke-linejoin="round"/>
<path d="M74.5411 100.828L73.2589 99.7254L69.3086 103.584L71.9727 105.607C71.9727 105.607 74.4495 103.218 74.5411 100.828Z" fill="#D5663F" stroke="#263238" stroke-linejoin="round"/>
<path d="M99.9432 122.185C99.9432 122.185 95.6784 132.224 94.7306 136.409C93.7829 140.594 91.9829 148.535 91.9829 149.008" stroke="#757575" stroke-linejoin="round"/>
<path d="M93.7829 125.028L96.2478 127.867" stroke="#757575" stroke-linejoin="round"/>
<path d="M88.1959 170.783C88.1959 170.783 87.6265 172.013 84.8788 172.579C82.1311 173.144 79.5746 172.109 79.1007 172.2C78.6268 172.292 78.153 173.148 78.153 173.909C78.153 174.669 81.4701 176.748 82.7961 177.413C83.8526 177.862 84.971 178.15 86.1133 178.265H86.5832L86.4916 179.213C87.2616 179.52 88.0519 179.772 88.857 179.97C89.5804 180.076 90.3157 180.076 91.0392 179.97C91.327 178.758 91.4859 177.519 91.5131 176.274C91.5774 174.972 91.8657 173.691 92.3652 172.487L88.1959 170.783Z" fill="#616161" stroke="#263238" stroke-linejoin="round"/>
<path d="M91.3259 178.488C89.4583 178.245 86.0137 177.692 83.9231 176.895C81.709 176.059 79.2281 174.355 78.1768 173.598C78.161 173.697 78.153 173.797 78.153 173.897C78.153 174.653 81.4701 176.736 82.7961 177.401C83.8526 177.85 84.971 178.138 86.1133 178.253H86.5832L86.4916 179.201C87.2616 179.508 88.0519 179.761 88.857 179.958C89.5804 180.064 90.3157 180.064 91.0392 179.958C91.0392 179.958 91.1905 179.352 91.3259 178.488Z" stroke="#263238" stroke-linejoin="round"/>
</svg>
