<svg width="184" height="138" viewBox="0 0 184 138" fill="none" xmlns="http://www.w3.org/2000/svg">
<path d="M184 120.483H0V120.575H184V120.483Z" fill="#EBEBEB"/>
<path d="M165.563 126.404H153.375V126.496H165.563V126.404Z" fill="#EBEBEB"/>
<path d="M121.889 127.405H118.691V127.497H121.889V127.405Z" fill="#EBEBEB"/>
<path d="M153.007 122.989H145.945V123.081H153.007V122.989Z" fill="#EBEBEB"/>
<path d="M35.1992 123.608H19.3053V123.7H35.1992V123.608Z" fill="#EBEBEB"/>
<path d="M40.8075 123.608H38.4781V123.7H40.8075V123.608Z" fill="#EBEBEB"/>
<path d="M82.8552 125.161H48.381V125.253H82.8552V125.161Z" fill="#EBEBEB"/>
<path d="M87.216 104.07H16.1589C15.6022 104.069 15.0687 103.848 14.6754 103.454C14.2822 103.06 14.0613 102.526 14.0613 101.969V2.08288C14.0661 1.52942 14.2891 1.00022 14.6819 0.610224C15.0746 0.220233 15.6054 0.000948111 16.1589 0H87.216C87.7733 0 88.3078 0.221384 88.7018 0.615451C89.0959 1.00952 89.3173 1.54399 89.3173 2.10128V101.969C89.3173 102.526 89.0959 103.061 88.7018 103.455C88.3078 103.849 87.7733 104.07 87.216 104.07ZM16.1589 0.0736003C15.6266 0.0745751 15.1165 0.286696 14.7405 0.663403C14.3645 1.04011 14.1533 1.55062 14.1533 2.08288V101.969C14.1533 102.501 14.3645 103.012 14.7405 103.389C15.1165 103.765 15.6266 103.977 16.1589 103.978H87.216C87.7486 103.977 88.2591 103.765 88.6357 103.389C89.0123 103.012 89.2243 102.502 89.2253 101.969V2.08288C89.2243 1.55028 89.0123 1.03978 88.6357 0.663179C88.2591 0.286576 87.7486 0.0745731 87.216 0.0736003H16.1589Z" fill="#EBEBEB"/>
<path d="M166.818 104.07H95.7573C95.2003 104.069 94.6664 103.848 94.2725 103.454C93.8787 103.06 93.657 102.526 93.656 101.969V2.08288C93.6618 1.52908 93.8856 0.999884 94.279 0.609994C94.6723 0.220104 95.2035 0.000937771 95.7573 0H166.818C167.371 0.00191525 167.901 0.221628 168.293 0.611516C168.685 1.0014 168.907 1.53005 168.912 2.08288V101.969C168.912 102.525 168.692 103.058 168.299 103.452C167.907 103.846 167.374 104.068 166.818 104.07ZM95.7573 0.0736003C95.2247 0.0745731 94.7142 0.286576 94.3376 0.663179C93.961 1.03978 93.749 1.55028 93.748 2.08288V101.969C93.749 102.502 93.961 103.012 94.3376 103.389C94.7142 103.765 95.2247 103.977 95.7573 103.978H166.818C167.351 103.977 167.861 103.765 168.238 103.389C168.614 103.012 168.826 102.502 168.827 101.969V2.08288C168.826 1.55028 168.614 1.03978 168.238 0.663179C167.861 0.286576 167.351 0.0745731 166.818 0.0736003H95.7573Z" fill="#EBEBEB"/>
<path d="M84.7173 62.8618V18.6208L27.784 18.6208V62.8618H84.7173Z" fill="#E0E0E0"/>
<path d="M28.5715 62.0669L83.9261 62.0669V19.4047L28.5715 19.4047L28.5715 62.0669Z" fill="#EBEBEB"/>
<path d="M55.5054 27.1143H55.1374V33.0648H55.5054V27.1143Z" fill="#E0E0E0"/>
<path d="M41.9778 52.2155H41.6098V32.8771H67.0901V44.0496H66.7221V33.2451H41.9778V52.2155Z" fill="#E0E0E0"/>
<path d="M74.3949 50.0995H74.0269V44.2336H60.5912V49.8971H60.2232V43.8656H74.3949V50.0995Z" fill="#E0E0E0"/>
<path d="M61.6731 24.9283H48.9734V29.3002H61.6731V24.9283Z" fill="#F5F5F5"/>
<path d="M73.1437 35.4163H61.0402V40.1671H73.1437V35.4163Z" fill="#F5F5F5"/>
<path d="M64.5656 47.4463H56.2525V52.3444H64.5656V47.4463Z" fill="#F5F5F5"/>
<path d="M78.6637 48.2411H69.7618V51.9616H78.6637V48.2411Z" fill="#F5F5F5"/>
<path d="M49.7058 36.4209H35.9536V42.7652H49.7058V36.4209Z" fill="#F5F5F5"/>
<path d="M46.184 49.8971H37.4035V54.5339H46.184V49.8971Z" fill="#F5F5F5"/>
<path d="M57.2203 33.2196L55.3233 31.3226L53.4263 33.2196L55.3233 35.1166L57.2203 33.2196Z" fill="#F5F5F5"/>
<path d="M68.7995 44.0498L66.9026 42.1528L65.0056 44.0498L66.9026 45.9468L68.7995 44.0498Z" fill="#F5F5F5"/>
<path d="M142.997 26.0691H107.905V27.8723H142.997V26.0691Z" fill="#E0E0E0"/>
<path d="M111.066 19.4231H109.52V26.0692H111.066V19.4231Z" fill="#EBEBEB"/>
<path d="M118.54 19.4231H116.995V26.0692H118.54V19.4231Z" fill="#EBEBEB"/>
<path d="M127.03 19.256L125.507 19.5186L126.636 26.0681L128.159 25.8055L127.03 19.256Z" fill="#EBEBEB"/>
<path d="M112.983 20.2988H111.438V26.0691H112.983V20.2988Z" fill="#EBEBEB"/>
<path d="M116.535 20.2988H114.989V26.0691H116.535V20.2988Z" fill="#EBEBEB"/>
<path d="M125.506 20.2988H123.961V26.0691H125.506V20.2988Z" fill="#EBEBEB"/>
<path d="M120.574 20.0896L119.065 20.4249L120.317 26.0577L121.825 25.7224L120.574 20.0896Z" fill="#EBEBEB"/>
<path d="M114.319 19.0918H113.546V26.0691H114.319V19.0918Z" fill="#EBEBEB"/>
<path d="M123.516 19.0918H122.743V26.0691H123.516V19.0918Z" fill="#EBEBEB"/>
<path d="M139.63 20.8104H132.097V26.0103H139.63V20.8104Z" fill="#EBEBEB"/>
<path d="M107.905 41.3337L142.997 41.3337V39.5305L107.905 39.5305V41.3337Z" fill="#E0E0E0"/>
<path d="M139.836 39.5305H141.382V32.8844H139.836V39.5305Z" fill="#EBEBEB"/>
<path d="M132.359 39.5305H133.904V32.8844H132.359V39.5305Z" fill="#EBEBEB"/>
<path d="M122.747 39.2648L124.271 39.5273L125.4 32.9779L123.876 32.7153L122.747 39.2648Z" fill="#EBEBEB"/>
<path d="M137.923 39.5305H139.468V33.7603H137.923V39.5305Z" fill="#EBEBEB"/>
<path d="M134.368 39.5305H135.913V33.7603H134.368V39.5305Z" fill="#EBEBEB"/>
<path d="M125.4 39.5305H126.945V33.7603H125.4V39.5305Z" fill="#EBEBEB"/>
<path d="M129.083 39.1853L130.592 39.5206L131.844 33.8878L130.335 33.5525L129.083 39.1853Z" fill="#EBEBEB"/>
<path d="M136.583 39.5305H137.356V32.5532H136.583V39.5305Z" fill="#EBEBEB"/>
<path d="M127.391 39.5305H128.163V32.5532H127.391V39.5305Z" fill="#EBEBEB"/>
<path d="M111.272 39.4717H118.805V34.2718H111.272V39.4717Z" fill="#EBEBEB"/>
<path d="M135.314 50.1731H115.633V120.34H135.314V50.1731Z" fill="#F5F5F5"/>
<path d="M133.617 52.1787H117.329V118.754H133.617V52.1787Z" fill="#EBEBEB"/>
<path d="M130.647 54.1328H120.292V54.8173H130.647V54.1328Z" fill="#E0E0E0"/>
<path d="M130.647 57.0989H120.292V57.7834H130.647V57.0989Z" fill="#E0E0E0"/>
<path d="M130.647 60.0649H120.292V60.7494H130.647V60.0649Z" fill="#E0E0E0"/>
<path d="M130.647 63.031H120.292V63.7155H130.647V63.031Z" fill="#E0E0E0"/>
<path d="M130.647 65.9971H120.292V66.6816H130.647V65.9971Z" fill="#E0E0E0"/>
<path d="M130.647 68.9631H120.292V69.6476H130.647V68.9631Z" fill="#E0E0E0"/>
<path d="M130.647 71.9293H120.292V72.6138H130.647V71.9293Z" fill="#E0E0E0"/>
<path d="M130.647 96.0516H120.292V96.7361H130.647V96.0516Z" fill="#E0E0E0"/>
<path d="M130.647 99.0178H120.292V99.7023H130.647V99.0178Z" fill="#E0E0E0"/>
<path d="M130.647 101.984H120.292V102.668H130.647V101.984Z" fill="#E0E0E0"/>
<path d="M130.647 104.95H120.292V105.634H130.647V104.95Z" fill="#E0E0E0"/>
<path d="M130.647 107.916H120.292V108.6H130.647V107.916Z" fill="#E0E0E0"/>
<path d="M130.647 110.882H120.292V111.567H130.647V110.882Z" fill="#E0E0E0"/>
<path d="M130.647 113.848H120.292V114.533H130.647V113.848Z" fill="#E0E0E0"/>
<path d="M131.159 82.0823C131.159 82.3087 131.092 82.53 130.966 82.7182C130.84 82.9064 130.661 83.0531 130.452 83.1397C130.243 83.2263 130.013 83.249 129.791 83.2048C129.569 83.1607 129.365 83.0517 129.205 82.8916C129.045 82.7316 128.936 82.5276 128.892 82.3056C128.848 82.0836 128.87 81.8535 128.957 81.6444C129.044 81.4352 129.19 81.2565 129.379 81.1307C129.567 81.005 129.788 80.9379 130.014 80.9379C130.165 80.9379 130.314 80.9675 130.452 81.025C130.591 81.0825 130.717 81.1668 130.824 81.2731C130.93 81.3793 131.014 81.5055 131.072 81.6444C131.129 81.7832 131.159 81.932 131.159 82.0823Z" fill="#E0E0E0"/>
<path d="M115.052 50.1731H95.3709V120.34H115.052V50.1731Z" fill="#F5F5F5"/>
<path d="M113.355 52.1787H97.0674V118.754H113.355V52.1787Z" fill="#EBEBEB"/>
<path d="M110.389 54.1328H100.033V54.8173H110.389V54.1328Z" fill="#E0E0E0"/>
<path d="M110.389 57.0989H100.033V57.7834H110.389V57.0989Z" fill="#E0E0E0"/>
<path d="M110.389 60.0649H100.033V60.7494H110.389V60.0649Z" fill="#E0E0E0"/>
<path d="M110.389 63.031H100.033V63.7155H110.389V63.031Z" fill="#E0E0E0"/>
<path d="M110.389 65.9971H100.033V66.6816H110.389V65.9971Z" fill="#E0E0E0"/>
<path d="M110.389 68.9631H100.033V69.6476H110.389V68.9631Z" fill="#E0E0E0"/>
<path d="M110.389 71.9293H100.033V72.6138H110.389V71.9293Z" fill="#E0E0E0"/>
<path d="M110.389 96.0516H100.033V96.7361H110.389V96.0516Z" fill="#E0E0E0"/>
<path d="M110.389 99.0178H100.033V99.7023H110.389V99.0178Z" fill="#E0E0E0"/>
<path d="M110.389 101.984H100.033V102.668H110.389V101.984Z" fill="#E0E0E0"/>
<path d="M110.389 104.95H100.033V105.634H110.389V104.95Z" fill="#E0E0E0"/>
<path d="M110.389 107.916H100.033V108.6H110.389V107.916Z" fill="#E0E0E0"/>
<path d="M110.389 110.882H100.033V111.567H110.389V110.882Z" fill="#E0E0E0"/>
<path d="M110.389 113.848H100.033V114.533H110.389V113.848Z" fill="#E0E0E0"/>
<path d="M110.9 82.0823C110.901 82.3097 110.834 82.5322 110.709 82.7216C110.583 82.911 110.403 83.0587 110.193 83.1461C109.983 83.2334 109.752 83.2565 109.529 83.2123C109.306 83.1681 109.101 83.0587 108.94 82.8979C108.78 82.7371 108.67 82.5322 108.626 82.3091C108.582 82.0861 108.605 81.8549 108.692 81.6449C108.78 81.435 108.927 81.2557 109.117 81.1298C109.306 81.004 109.529 80.9371 109.756 80.9379C109.906 80.9379 110.055 80.9675 110.194 81.025C110.333 81.0825 110.459 81.1668 110.565 81.2731C110.672 81.3794 110.756 81.5055 110.813 81.6444C110.871 81.7832 110.9 81.9321 110.9 82.0823Z" fill="#E0E0E0"/>
<path d="M155.572 50.1731H135.891V120.34H155.572V50.1731Z" fill="#F5F5F5"/>
<path d="M153.876 52.1787H137.588V118.754H153.876V52.1787Z" fill="#EBEBEB"/>
<path d="M150.909 54.1328H140.554V54.8173H150.909V54.1328Z" fill="#E0E0E0"/>
<path d="M150.909 57.0989H140.554V57.7834H150.909V57.0989Z" fill="#E0E0E0"/>
<path d="M150.909 60.0649H140.554V60.7494H150.909V60.0649Z" fill="#E0E0E0"/>
<path d="M150.909 63.031H140.554V63.7155H150.909V63.031Z" fill="#E0E0E0"/>
<path d="M150.909 65.9971H140.554V66.6816H150.909V65.9971Z" fill="#E0E0E0"/>
<path d="M150.909 68.9631H140.554V69.6476H150.909V68.9631Z" fill="#E0E0E0"/>
<path d="M150.909 71.9293H140.554V72.6138H150.909V71.9293Z" fill="#E0E0E0"/>
<path d="M150.909 96.0516H140.554V96.7361H150.909V96.0516Z" fill="#E0E0E0"/>
<path d="M150.909 99.0178H140.554V99.7023H150.909V99.0178Z" fill="#E0E0E0"/>
<path d="M150.909 101.984H140.554V102.668H150.909V101.984Z" fill="#E0E0E0"/>
<path d="M150.909 104.95H140.554V105.634H150.909V104.95Z" fill="#E0E0E0"/>
<path d="M150.909 107.916H140.554V108.6H150.909V107.916Z" fill="#E0E0E0"/>
<path d="M150.909 110.882H140.554V111.567H150.909V110.882Z" fill="#E0E0E0"/>
<path d="M150.909 113.848H140.554V114.533H150.909V113.848Z" fill="#E0E0E0"/>
<path d="M151.421 82.0823C151.422 82.3097 151.355 82.5322 151.229 82.7216C151.103 82.911 150.924 83.0587 150.714 83.1461C150.504 83.2334 150.273 83.2565 150.05 83.2123C149.827 83.1681 149.622 83.0587 149.461 82.8979C149.3 82.7371 149.191 82.5322 149.147 82.3091C149.102 82.0861 149.125 81.8549 149.213 81.6449C149.3 81.435 149.448 81.2557 149.637 81.1298C149.827 81.004 150.049 80.9371 150.276 80.9379C150.427 80.9379 150.576 80.9675 150.714 81.025C150.853 81.0825 150.979 81.1668 151.086 81.2731C151.192 81.3794 151.276 81.5055 151.334 81.6444C151.391 81.7832 151.421 81.9321 151.421 82.0823Z" fill="#E0E0E0"/>
<path d="M92 137.102C131.406 137.102 163.352 135.237 163.352 132.936C163.352 130.636 131.406 128.771 92 128.771C52.5936 128.771 20.6485 130.636 20.6485 132.936C20.6485 135.237 52.5936 137.102 92 137.102Z" fill="#F5F5F5"/>
<path d="M109.83 78.476C109.83 78.476 110.606 97.7297 105.248 101.045H111.368C111.368 101.045 116.108 94.4876 114.768 78.476H109.83Z" fill="#263238"/>
<path opacity="0.2" d="M109.83 78.476C109.83 78.476 110.606 97.7297 105.248 101.045H111.368C111.368 101.045 116.108 94.4876 114.768 78.476H109.83Z" fill="white"/>
<path d="M113.451 102.521H86.0237V100.409C86.0237 99.8593 86.242 99.3323 86.6305 98.9438C87.019 98.5552 87.546 98.337 88.0955 98.337H111.379C111.928 98.337 112.455 98.5552 112.844 98.9438C113.232 99.3323 113.451 99.8593 113.451 100.409V102.503V102.521Z" fill="#D5663F"/>
<path d="M115.42 68.1572H107.309C103.97 68.1572 101.263 70.8642 101.263 74.2035V76.3452C101.263 79.6845 103.97 82.3915 107.309 82.3915H115.42C118.759 82.3915 121.466 79.6845 121.466 76.3452V74.2035C121.466 70.8642 118.759 68.1572 115.42 68.1572Z" fill="#D5663F"/>
<path opacity="0.4" d="M113.451 102.521H86.0237V100.409C86.0237 99.8593 86.242 99.3323 86.6305 98.9438C87.019 98.5552 87.546 98.337 88.0955 98.337H111.379C111.928 98.337 112.455 98.5552 112.844 98.9438C113.232 99.3323 113.451 99.8593 113.451 100.409V102.503V102.521Z" fill="black"/>
<path opacity="0.4" d="M115.42 68.1572H107.309C103.97 68.1572 101.263 70.8642 101.263 74.2035V76.3452C101.263 79.6845 103.97 82.3915 107.309 82.3915H115.42C118.759 82.3915 121.466 79.6845 121.466 76.3452V74.2035C121.466 70.8642 118.759 68.1572 115.42 68.1572Z" fill="black"/>
<path d="M112.406 126.25L102.131 125.241V110.801H98.0609V125.238L87.7569 126.25C87.2627 126.298 86.8043 126.529 86.4709 126.897C86.1376 127.265 85.9532 127.744 85.9538 128.241V129.782H114.22V128.241C114.22 127.742 114.034 127.262 113.699 126.893C113.363 126.525 112.902 126.296 112.406 126.25Z" fill="#263238"/>
<path opacity="0.3" d="M112.406 126.25L102.131 125.241V110.801H98.0609V125.238L87.7569 126.25C87.2627 126.298 86.8043 126.529 86.4709 126.897C86.1376 127.265 85.9532 127.744 85.9538 128.241V129.782H114.22V128.241C114.22 127.742 114.034 127.262 113.699 126.893C113.363 126.525 112.902 126.296 112.406 126.25Z" fill="white"/>
<path d="M89.689 131.696C89.689 132.222 89.5329 132.737 89.2406 133.174C88.9482 133.612 88.5327 133.953 88.0465 134.154C87.5603 134.356 87.0254 134.408 86.5093 134.306C85.9931 134.203 85.5191 133.95 85.147 133.578C84.7749 133.205 84.5215 132.731 84.4188 132.215C84.3161 131.699 84.3688 131.164 84.5702 130.678C84.7716 130.192 85.1126 129.776 85.5501 129.484C85.9877 129.192 86.5021 129.036 87.0283 129.036C87.734 129.036 88.4107 129.316 88.9097 129.815C89.4086 130.314 89.689 130.991 89.689 131.696Z" fill="#D5663F"/>
<path d="M110.463 131.696C110.463 132.222 110.619 132.737 110.911 133.174C111.203 133.612 111.619 133.953 112.105 134.154C112.591 134.356 113.126 134.408 113.642 134.306C114.158 134.203 114.632 133.95 115.005 133.578C115.377 133.205 115.63 132.731 115.733 132.215C115.835 131.699 115.783 131.164 115.581 130.678C115.38 130.192 115.039 129.776 114.601 129.484C114.164 129.192 113.649 129.036 113.123 129.036C112.418 129.036 111.742 129.317 111.243 129.816C110.744 130.315 110.464 130.991 110.463 131.696Z" fill="#D5663F"/>
<path d="M97.3581 101.045H102.83V112.192C102.83 112.647 102.65 113.083 102.328 113.405C102.006 113.726 101.57 113.907 101.115 113.907H99.0693C98.6145 113.907 98.1783 113.726 97.8567 113.405C97.5351 113.083 97.3544 112.647 97.3544 112.192V101.045H97.3581Z" fill="#263238"/>
<path opacity="0.5" d="M97.3581 101.045H102.83V112.192C102.83 112.647 102.65 113.083 102.328 113.405C102.006 113.726 101.57 113.907 101.115 113.907H99.0693C98.6145 113.907 98.1783 113.726 97.8567 113.405C97.5351 113.083 97.3544 112.647 97.3544 112.192V101.045H97.3581Z" fill="white"/>
<path d="M85.7182 102.521H113.76C114.221 102.521 114.595 102.147 114.595 101.686V101.274C114.595 100.812 114.221 100.438 113.76 100.438H85.7182C85.2569 100.438 84.8829 100.812 84.8829 101.274V101.686C84.8829 102.147 85.2569 102.521 85.7182 102.521Z" fill="#D5663F"/>
<path opacity="0.6" d="M85.7182 102.521H113.76C114.221 102.521 114.595 102.147 114.595 101.686V101.274C114.595 100.812 114.221 100.438 113.76 100.438H85.7182C85.2569 100.438 84.8829 100.812 84.8829 101.274V101.686C84.8829 102.147 85.2569 102.521 85.7182 102.521Z" fill="white"/>
<path d="M62.4864 130.894H66.1664C66.2273 130.894 66.2863 130.915 66.3337 130.953C66.3812 130.991 66.4143 131.044 66.4277 131.104L67.0275 133.812C67.0515 133.929 67.0282 134.051 66.9627 134.151C66.8972 134.251 66.7948 134.321 66.6779 134.346C66.6461 134.35 66.614 134.35 66.5822 134.346C65.3825 134.324 64.5141 134.25 63.009 134.25C62.0853 134.25 59.2921 134.349 58.0152 134.349C56.7382 134.349 56.569 133.087 57.0915 132.969C59.4394 132.458 61.2058 131.748 61.9565 131.074C62.1025 130.947 62.2929 130.882 62.4864 130.894Z" fill="#D5663F"/>
<path d="M72.0728 130.794H75.7712C75.8314 130.795 75.8896 130.817 75.9363 130.855C75.983 130.893 76.0156 130.945 76.0288 131.004L76.6286 133.716C76.641 133.774 76.6419 133.834 76.6313 133.892C76.6206 133.95 76.5986 134.005 76.5664 134.055C76.5343 134.105 76.4927 134.147 76.444 134.181C76.3953 134.214 76.3405 134.238 76.2827 134.25H76.1833C74.9873 134.232 74.1152 134.158 72.6137 134.158C71.6901 134.158 68.8969 134.254 67.62 134.254C66.343 134.254 66.1737 132.991 66.6963 132.877C69.0441 132.366 70.8105 131.656 71.5613 130.982C71.7015 130.856 71.8846 130.789 72.0728 130.794Z" fill="#D5663F"/>
<path d="M60.2747 131.133L67.4838 131.104L72.6358 100.251C72.6358 100.251 86.3218 102.355 97.3397 99.5881C98.8703 99.2295 100.353 98.6896 101.756 97.98C111.268 92.9236 111.567 81.7696 111.567 81.7696L87.8048 81.4641L86.112 84.5369C86.112 84.5369 70.1739 87.9961 64.7018 91.4185C62.8029 92.6072 61.6878 97.7408 61.0438 103.931C59.8258 115.637 60.2747 131.133 60.2747 131.133Z" fill="#263238"/>
<path opacity="0.2" d="M60.2747 131.133L67.4838 131.104L72.6358 100.251C72.6358 100.251 86.3218 102.356 97.3397 99.5882C96.2637 95.2557 94.4486 91.1413 91.9742 87.4258C91.9742 87.4258 70.2622 89.056 61.0438 103.942C59.8258 115.637 60.2747 131.133 60.2747 131.133Z" fill="black"/>
<path d="M87.7349 79.8339H111.684V81.7695L87.4258 81.5708L87.7349 79.8339Z" fill="black"/>
<path d="M103.982 78.9653H103.128V82.4025H103.982V78.9653Z" fill="#263238"/>
<path d="M91.8638 78.9653H91.0101V82.4025H91.8638V78.9653Z" fill="#263238"/>
<path d="M98.6497 79.4954H94.219V81.6629H98.6497V79.4954Z" fill="white"/>
<path d="M111.559 81.7732C111.559 81.7732 114.08 94.5759 107.412 97.9652C100.744 101.354 89.4939 100.942 89.4939 100.942L77.1328 131.788L70.5971 131.104C70.5971 131.104 74.8843 95.4076 80.3086 91.1462C81.7806 89.998 97.899 86.5756 97.899 86.5756L111.559 81.7732Z" fill="#263238"/>
<path d="M94.5171 58.144C94.5171 58.144 93.7811 61.6658 92.6146 65.5776C91.4885 69.3901 89.976 73.5706 88.401 75.2155C88.2419 75.3807 88.0736 75.5368 87.8968 75.6829C84.5112 78.5128 78.0307 78.3288 78.0307 78.3288L76.4741 75.0168C76.4741 75.0168 81.9941 73.2541 83.5544 71.7895C85.1147 70.3248 87.3006 56.9038 92.9605 54.1586L94.5171 58.144Z" fill="#D5663F"/>
<path opacity="0.2" d="M92.6146 65.5738C91.4885 69.3863 89.976 73.5668 88.401 75.2118C88.2419 75.3769 88.0735 75.533 87.8968 75.6791C86.2298 68.8785 90.6789 62.0631 90.6789 62.0631C91.5842 62.7034 92.2171 63.9878 92.6146 65.5738Z" fill="black"/>
<path d="M76.463 75.3258L72.415 74.4463L73.324 78.8145C73.324 78.8145 76.739 79.5247 77.2542 77.4455L76.463 75.3258Z" fill="#FF8B7B"/>
<path d="M70.1113 76.0509L70.2181 77.8909C70.2258 78.0481 70.2654 78.2022 70.3343 78.3438C70.4032 78.4854 70.5 78.6115 70.619 78.7147C70.738 78.8179 70.8766 78.8959 71.0265 78.944C71.1764 78.9921 71.3346 79.0095 71.4913 78.9949L73.3313 78.8219L72.4224 74.4537L70.9504 74.8696C70.6978 74.9431 70.4775 75.0997 70.3252 75.3142C70.1729 75.5286 70.0976 75.7882 70.1113 76.0509Z" fill="#FF8B7B"/>
<path d="M88.1213 79.856H111.386C111.971 75.7565 111.909 75.2891 112.004 72.128C112.071 69.8795 112.045 67.8666 111.964 66.0744C111.824 62.9795 111.526 60.5544 111.272 58.7917C110.985 56.8008 109.252 55.1706 107 54.7437C102.952 53.9191 98.8163 53.6039 94.6901 53.8053C92.0257 53.9672 90.0128 55.8698 90.0018 58.2213C90.0018 61.9602 90.6862 64.1093 90.5758 67.6016C87.6245 72.5181 87.2638 76.7611 88.1213 79.856Z" fill="#D5663F"/>
<path opacity="0.2" d="M112.004 72.128C109.333 69.92 108.6 64.9115 108.6 64.9115L111.964 66.0744C112.045 67.8481 112.071 69.8611 112.004 72.128Z" fill="black"/>
<path d="M75.7344 74.9248L76.8237 78.774L78.5312 78.5054L77.0702 74.4795L75.7344 74.9248Z" fill="#D5663F"/>
<path opacity="0.2" d="M75.7344 74.9248L76.8237 78.774L78.5312 78.5054L77.0702 74.4795L75.7344 74.9248Z" fill="black"/>
<path d="M96.8723 58.144L98.0352 60.352C98.0352 60.352 96.8907 68.7534 98.3517 73.1841L100.056 73.5521L101.034 72.1316C99.2623 68.5554 98.5413 64.5498 98.9552 60.5801L100.817 58.4384L100.262 57.9121L99.5035 58.4384L97.8034 58.2544L97.5678 57.8091L96.8723 58.144Z" fill="white"/>
<path d="M103.864 54.464C103.051 55.4862 102.113 56.4023 101.071 57.1909C100.291 57.7539 99.4409 58.1808 98.6571 58.1771C96.3424 58.1771 96.4896 54.1291 96.4896 54.1291C96.4896 54.1291 97.1814 54.2874 98.0352 52.5688C98.6445 51.2149 99.0892 49.7929 99.36 48.3331L104.03 50.416C104.03 50.416 102.459 52.7749 103.864 54.464Z" fill="#FF8B7B"/>
<path opacity="0.2" d="M103.864 54.464C103.051 55.4862 102.113 56.4023 101.071 57.1909C100.195 56.7658 99.4509 56.1118 98.9164 55.2981C98.382 54.4844 98.0775 53.5414 98.0352 52.5688C98.6445 51.2149 99.0892 49.7929 99.36 48.3331L104.03 50.416C104.03 50.416 102.459 52.7749 103.864 54.464Z" fill="black"/>
<path d="M102.926 52.992C103.04 53.8273 102.127 56.8302 98.6571 58.2065C100.011 58.1771 100.655 59.8772 100.655 59.8772C100.655 59.8772 105.233 57.2534 104.586 54.2763C104.5 53.9035 104.288 53.5718 103.985 53.3377C103.683 53.1035 103.308 52.9814 102.926 52.992Z" fill="#D5663F"/>
<path d="M97.4206 53.36C97.5347 54.1769 96.6368 55.936 98.6571 58.1771C97.3029 58.2323 96.5338 59.6049 96.5338 59.6049C96.5338 59.6049 94.6533 57.0915 95.9818 54.0849C96.3767 53.7029 96.8786 53.4501 97.4206 53.36Z" fill="#D5663F"/>
<g opacity="0.2">
<path opacity="0.2" d="M102.926 52.992C103.04 53.8273 102.127 56.8302 98.6571 58.2065C100.011 58.1771 100.655 59.8772 100.655 59.8772C100.655 59.8772 105.233 57.2534 104.586 54.2763C104.5 53.9035 104.288 53.5718 103.985 53.3377C103.683 53.1035 103.308 52.9814 102.926 52.992Z" fill="black"/>
<path opacity="0.2" d="M97.4206 53.36C97.5347 54.1769 96.6368 55.936 98.6571 58.1771C97.3029 58.2323 96.5338 59.6049 96.5338 59.6049C96.5338 59.6049 94.6533 57.0915 95.9818 54.0849C96.3767 53.7029 96.8786 53.4501 97.4206 53.36Z" fill="black"/>
</g>
<path d="M109.583 45.1572C109.583 45.1572 110.021 46.3274 109.712 46.7654C109.403 47.2033 108.542 46.9162 108.214 46.4783C107.887 46.0404 108.895 44.3844 109.583 45.1572Z" fill="#263238"/>
<path d="M99.2165 44.9732C98.3149 48.5024 97.6046 50.5227 98.7859 52.8484C100.567 56.3481 105.369 56.1052 107.312 52.9073C109.064 50.0296 110.256 44.7414 107.287 42.2979C106.631 41.7571 105.85 41.3914 105.015 41.2352C104.18 41.0789 103.318 41.1372 102.512 41.4045C101.706 41.6719 100.98 42.1395 100.404 42.7637C99.8274 43.3879 99.4189 44.1481 99.2165 44.9732Z" fill="#FF8B7B"/>
<path opacity="0.2" d="M103.57 47.207C103.221 46.8129 102.73 46.5733 102.205 46.5409C102.612 46.8502 103.076 47.0765 103.57 47.207Z" fill="black"/>
<path opacity="0.2" d="M103.408 47.5197C103.217 47.3795 102.997 47.2825 102.764 47.2355C102.532 47.1885 102.292 47.1925 102.061 47.2474C102.485 47.4338 102.945 47.5267 103.408 47.5197Z" fill="black"/>
<path d="M106.687 48.944C106.687 48.944 106.919 50.7582 107.423 51.7371C106.794 52.083 105.984 51.6524 105.984 51.6524L106.687 48.944Z" fill="#FF5652"/>
<path d="M106.26 47.2843C106.267 47.3133 106.267 47.3437 106.26 47.3726C106.255 47.3949 106.245 47.4158 106.232 47.4343C106.218 47.4527 106.201 47.4682 106.182 47.4799C106.162 47.4916 106.14 47.4992 106.118 47.5023C106.095 47.5053 106.072 47.5038 106.05 47.4978C105.78 47.4365 105.527 47.3118 105.314 47.1339C105.101 46.9561 104.933 46.7301 104.825 46.4747C104.816 46.4327 104.823 46.389 104.844 46.3518C104.866 46.3145 104.9 46.2863 104.94 46.2723C104.981 46.2584 105.025 46.2596 105.065 46.2759C105.104 46.2921 105.137 46.3222 105.156 46.3606C105.244 46.5618 105.378 46.7394 105.547 46.8788C105.717 47.0182 105.917 47.1156 106.131 47.1629C106.162 47.1696 106.19 47.1845 106.212 47.2059C106.235 47.2272 106.251 47.2544 106.26 47.2843Z" fill="#263238"/>
<path d="M107.636 47.9651C107.659 47.9477 107.686 47.936 107.714 47.9309C107.742 47.9257 107.771 47.9274 107.798 47.9357C108.004 48.0076 108.224 48.0294 108.439 47.9993C108.655 47.9692 108.86 47.8881 109.038 47.7627C109.056 47.748 109.076 47.737 109.098 47.7303C109.12 47.7236 109.143 47.7214 109.165 47.7238C109.188 47.7263 109.21 47.7332 109.23 47.7443C109.25 47.7554 109.267 47.7705 109.281 47.7885C109.296 47.8057 109.307 47.8257 109.314 47.8474C109.321 47.8691 109.324 47.8919 109.322 47.9146C109.32 47.9373 109.313 47.9593 109.302 47.9794C109.292 47.9994 109.277 48.0171 109.259 48.0314C109.036 48.1936 108.777 48.2997 108.504 48.3407C108.231 48.3817 107.953 48.3564 107.692 48.2669C107.67 48.2602 107.65 48.2493 107.632 48.2346C107.615 48.22 107.601 48.202 107.59 48.1818C107.58 48.1615 107.574 48.1394 107.572 48.1167C107.571 48.094 107.574 48.0713 107.581 48.0498C107.591 48.017 107.611 47.9878 107.636 47.9651Z" fill="#263238"/>
<path d="M104.409 47.4352C104.63 47.4844 104.833 47.5946 104.995 47.7533C105.157 47.912 105.272 48.1128 105.325 48.3331C105.325 48.3331 104.494 47.8915 104.122 48.0718C104.212 47.983 104.327 47.9249 104.452 47.9058C104.577 47.8866 104.705 47.9074 104.817 47.9651C104.742 47.7492 104.598 47.5635 104.409 47.4352Z" fill="#263238"/>
<path d="M108.446 49.0985C108.251 48.9831 108.028 48.9243 107.802 48.9288C107.576 48.9334 107.355 49.0011 107.165 49.1243C107.165 49.1243 108.074 49.3745 108.218 49.7609C108.214 49.6348 108.17 49.5132 108.092 49.4134C108.015 49.3136 107.908 49.2408 107.787 49.2053C107.989 49.0994 108.221 49.062 108.446 49.0985Z" fill="#263238"/>
<path d="M108.994 45.4664C108.676 45.5183 108.351 45.4831 108.051 45.3645C107.752 45.2459 107.49 45.0484 107.294 44.7929C106.925 44.8798 106.54 44.8738 106.174 44.7755C105.808 44.6773 105.472 44.4898 105.196 44.2299C105.196 44.2299 104.041 44.7598 103.397 43.6926C103.397 43.6926 102.753 45.735 101.557 45.2051C101.557 45.2051 101.458 47.1555 100.427 46.85L99.533 49.1059L97.693 47.1334C97.693 47.1334 97.2072 45.5252 98.2523 45.1241C98.2523 45.1241 97.7997 43.0081 99.3563 42.2132C99.3563 42.2132 99.6618 39.5747 101.789 40.3732C101.789 40.3732 103.423 38.3382 104.924 40.031C104.924 40.031 106.477 38.7651 107.445 40.767C107.445 40.767 108.7 40.1193 109.027 41.6576C109.027 41.6576 110.845 42.2611 109.763 43.5932C109.763 43.5932 111.033 44.3292 110.588 45.1499C110.142 45.9705 108.994 45.4664 108.994 45.4664Z" fill="#263238"/>
<path d="M96.9054 48.1123C96.9892 48.5583 97.1609 48.9832 97.4104 49.3623C97.66 49.7414 97.9824 50.067 98.359 50.3203C99.371 50.99 100.258 50.1804 100.295 49.0323C100.332 47.9982 99.8458 46.4048 98.6755 46.195C97.5053 45.9852 96.703 47.0083 96.9054 48.1123Z" fill="#FF8B7B"/>
<path d="M112.696 57.0804C112.696 57.0804 122.143 60.9776 122.927 64.1534C123.711 67.3292 122.073 72.7315 112.214 68.4406C105.189 65.3862 109.237 57.89 109.237 57.89L112.696 57.0804Z" fill="#D5663F"/>
<path opacity="0.2" d="M110.72 59.3068C110.72 59.3068 113.532 65.4819 116.413 67.09C116.413 67.09 109.723 63.41 109.237 57.89L110.72 59.3068Z" fill="black"/>
<path d="M112.078 56.7381L110.433 53.4041L107.147 56.4143C107.147 56.4143 108.987 59.2553 110.669 58.5156L112.078 56.7381Z" fill="#FF8B7B"/>
<path d="M106.79 52.1309L105.815 53.3784C105.626 53.6189 105.529 53.9187 105.541 54.2241C105.554 54.5295 105.674 54.8206 105.881 55.0454L107.147 56.4144L110.433 53.4041L108.619 51.9321C108.486 51.8234 108.334 51.7423 108.169 51.6934C108.005 51.6445 107.833 51.6288 107.663 51.6473C107.492 51.6658 107.327 51.7181 107.178 51.8011C107.028 51.8842 106.896 51.9963 106.79 52.1309Z" fill="#FF8B7B"/>
<path d="M114.124 55.476H113.797C113.546 55.476 113.189 55.476 112.829 55.476C112.403 55.4621 111.979 55.5386 111.585 55.7005C111.268 55.9102 111.217 56.9517 110.923 57.6398C110.898 57.7047 110.869 57.7675 110.834 57.8275C110.789 57.9419 110.711 58.0405 110.61 58.1112C110.51 58.1818 110.39 58.2214 110.268 58.225C110.23 58.2283 110.191 58.2283 110.153 58.225C109.842 58.1393 109.536 58.0348 109.237 57.9122C108.048 57.4522 106.518 56.8082 106.201 57.6987C105.96 58.3933 105.641 59.0587 105.252 59.6822C105.2 59.7669 105.145 59.8405 105.093 59.9141C105.01 60.031 104.912 60.1372 104.803 60.2306C104.736 60.3035 104.651 60.3569 104.556 60.3851C104.379 60.4395 104.206 60.5046 104.037 60.5802C103.419 60.8414 102.602 61.2536 102.602 61.2536C102.93 60.5938 103.164 59.8915 103.298 59.167C103.298 59.0934 103.327 59.0162 103.338 58.9426C103.371 58.7806 103.397 58.6114 103.415 58.4384C103.415 58.3906 103.415 58.3427 103.434 58.2949C103.452 58.247 103.474 57.8938 103.537 57.3123C103.61 56.6242 103.713 55.7078 103.809 54.8982L103.831 54.7363L103.864 54.453C103.908 54.1107 103.949 53.7979 103.986 53.5403C104.023 53.2827 104.067 53.0362 104.096 52.911C104.167 52.6394 104.299 52.3877 104.483 52.175C104.662 51.9609 104.879 51.7813 105.123 51.6451C105.189 51.609 105.258 51.5783 105.329 51.5531C105.372 51.5373 105.416 51.5274 105.461 51.5237C105.872 51.52 106.281 51.5495 106.687 51.612C106.89 51.6305 107.095 51.6305 107.298 51.612C107.367 51.6028 107.436 51.5892 107.504 51.5715L107.651 51.5274L107.784 51.4832C108.255 51.3286 108.626 51.1594 108.961 51.3802C109.08 51.4684 109.181 51.5783 109.259 51.704C109.278 51.7361 109.299 51.7668 109.322 51.796C109.503 52.0367 109.72 52.2477 109.966 52.4216C110.102 52.532 110.253 52.6314 110.4 52.7307C110.444 52.7638 110.488 52.7896 110.536 52.819C110.709 52.9331 110.882 53.0362 111.044 53.1355L111.504 53.36C111.592 53.4226 111.677 53.4778 111.747 53.533C111.96 53.6949 112.295 53.9635 112.652 54.269L112.844 54.4272L113.013 54.567L114.124 55.476Z" fill="#D5663F"/>
<path opacity="0.4" d="M114.124 55.476H113.797C113.546 55.476 113.189 55.476 112.829 55.476C112.403 55.4621 111.979 55.5386 111.585 55.7005C111.268 55.9102 111.217 56.9517 110.923 57.6398C110.898 57.7047 110.869 57.7675 110.834 57.8275C110.789 57.9419 110.711 58.0405 110.61 58.1112C110.51 58.1818 110.39 58.2214 110.268 58.225C110.23 58.2283 110.191 58.2283 110.153 58.225C109.842 58.1393 109.536 58.0348 109.237 57.9122C108.048 57.4522 106.518 56.8082 106.201 57.6987C105.96 58.3933 105.641 59.0587 105.252 59.6822C105.2 59.7669 105.145 59.8405 105.093 59.9141C105.01 60.031 104.912 60.1372 104.803 60.2306C104.736 60.3035 104.651 60.3569 104.556 60.3851C104.379 60.4395 104.206 60.5046 104.037 60.5802C103.419 60.8414 102.602 61.2536 102.602 61.2536C102.93 60.5938 103.164 59.8915 103.298 59.167C103.298 59.0934 103.327 59.0162 103.338 58.9426C103.371 58.7806 103.397 58.6114 103.415 58.4384C103.415 58.3906 103.415 58.3427 103.434 58.2949C103.452 58.247 103.474 57.8938 103.537 57.3123C103.61 56.6242 103.713 55.7078 103.809 54.8982L103.831 54.7363L103.864 54.453C103.908 54.1107 103.949 53.7979 103.986 53.5403C104.023 53.2827 104.067 53.0362 104.096 52.911C104.167 52.6394 104.299 52.3877 104.483 52.175C104.662 51.9609 104.879 51.7813 105.123 51.6451C105.189 51.609 105.258 51.5783 105.329 51.5531C105.372 51.5373 105.416 51.5274 105.461 51.5237C105.872 51.52 106.281 51.5495 106.687 51.612C106.89 51.6305 107.095 51.6305 107.298 51.612C107.367 51.6028 107.436 51.5892 107.504 51.5715L107.651 51.5274L107.784 51.4832C108.255 51.3286 108.626 51.1594 108.961 51.3802C109.08 51.4684 109.181 51.5783 109.259 51.704C109.278 51.7361 109.299 51.7668 109.322 51.796C109.503 52.0367 109.72 52.2477 109.966 52.4216C110.102 52.532 110.253 52.6314 110.4 52.7307C110.444 52.7638 110.488 52.7896 110.536 52.819C110.709 52.9331 110.882 53.0362 111.044 53.1355L111.504 53.36C111.592 53.4226 111.677 53.4778 111.747 53.533C111.96 53.6949 112.295 53.9635 112.652 54.269L112.844 54.4272L113.013 54.567L114.124 55.476Z" fill="white"/>
<g opacity="0.3">
<path opacity="0.3" d="M110.268 58.2176C110.23 58.221 110.191 58.221 110.153 58.2176C109.842 58.1319 109.536 58.0274 109.237 57.9048C108.984 57.4149 108.674 56.9566 108.313 56.5395C108.126 56.3646 107.972 56.1562 107.861 55.925C107.828 55.8698 107.802 55.8109 107.772 55.752C107.743 55.6931 107.677 55.5386 107.633 55.4208C107.51 55.0952 107.408 54.7621 107.327 54.4235C107.254 54.1107 107.195 53.8053 107.158 53.533L107.136 53.4078C107.116 53.2606 107.101 53.1282 107.092 53.0104V52.9331C107.073 52.7062 107.031 52.4817 106.967 52.2634C106.901 52.0334 106.814 51.8103 106.705 51.5973C106.908 51.6158 107.113 51.6158 107.316 51.5973C107.424 51.8244 107.512 52.0609 107.577 52.3038C107.625 52.49 107.658 52.6794 107.677 52.8706C107.677 52.9319 107.684 52.9981 107.699 53.0693C107.699 53.1613 107.725 53.2606 107.739 53.36L107.761 53.4888C107.829 53.8617 107.919 54.2303 108.03 54.5928C108.131 54.9407 108.264 55.2783 108.428 55.6011C108.485 55.7073 108.551 55.8094 108.623 55.9066C108.661 55.9582 108.707 56.004 108.759 56.0427L108.81 56.0906C109.37 56.7462 109.858 57.4592 110.268 58.2176Z" fill="black"/>
</g>
<g opacity="0.3">
<path opacity="0.3" d="M113.797 55.4649C113.546 55.4649 113.189 55.4649 112.829 55.4649L112.019 54.7841L111.99 54.762L111.846 54.6406C111.67 54.4958 111.515 54.367 111.383 54.2542C111.188 54.0886 111.04 53.9561 110.956 53.8678C110.871 53.7795 110.808 53.6985 110.705 53.566C110.602 53.4335 110.378 53.1686 110.19 52.9257L110.106 52.8153L109.785 52.3995L109.296 51.7628L108.976 51.3359C109.095 51.4242 109.196 51.5341 109.274 51.6598C109.293 51.6918 109.314 51.7226 109.336 51.7518C109.517 51.9924 109.735 52.2035 109.98 52.3774C110.117 52.4878 110.268 52.5871 110.415 52.6865C110.459 52.7196 110.503 52.7454 110.551 52.7748C110.724 52.8889 110.897 52.9919 111.059 53.0913C111.154 53.2054 111.239 53.3047 111.309 53.382C111.351 53.4321 111.395 53.48 111.441 53.5255C111.559 53.647 111.883 53.8935 112.258 54.21L112.442 54.3609L112.556 54.4529L112.718 54.5817C113.112 54.8982 113.476 55.1999 113.797 55.4649Z" fill="black"/>
</g>
<g opacity="0.3">
<path opacity="0.3" d="M104.924 54.3021C104.943 54.7584 104.946 55.5018 104.924 56.3923C104.924 56.7971 104.924 57.235 104.898 57.6914C104.898 57.8202 104.898 57.9526 104.898 58.0851C104.898 58.155 104.898 58.2213 104.898 58.2912C104.876 58.9278 104.851 59.5792 104.814 60.2048C104.747 60.2777 104.662 60.3312 104.567 60.3594C104.39 60.4137 104.217 60.4789 104.048 60.5544C104.1 59.9582 104.14 59.3179 104.181 58.685C104.181 58.6114 104.181 58.5451 104.181 58.4715C104.181 58.3979 104.181 58.2213 104.199 58.1035C104.221 57.7098 104.243 57.3197 104.258 56.9517C104.299 55.9912 104.324 55.1558 104.324 54.6149C104.324 54.567 104.324 54.5155 104.324 54.4714C104.324 54.3683 104.324 54.2763 104.324 54.2027C104.324 54.1291 104.324 54.096 104.324 54.0592C104.299 53.8219 104.299 53.5826 104.324 53.3453C104.357 52.9515 104.427 52.521 104.497 52.153C104.677 51.9388 104.894 51.7593 105.138 51.623C105.071 51.9506 104.983 52.4437 104.928 52.9147C104.886 53.2294 104.877 53.5477 104.902 53.8642C104.902 53.8642 104.902 53.8936 104.902 53.9083C104.902 53.923 104.92 54.0518 104.928 54.1586C104.917 54.199 104.92 54.2469 104.924 54.3021Z" fill="black"/>
</g>
<g opacity="0.3">
<path opacity="0.3" d="M112.645 54.2578L112.277 54.2137C111.983 54.1802 111.686 54.1951 111.397 54.2578C111.3 54.2804 111.211 54.3317 111.143 54.405C110.741 54.9475 110.166 55.3368 109.513 55.509C109.457 55.5281 109.399 55.5417 109.34 55.5495C109.042 55.6014 108.739 55.6089 108.439 55.5716C108.183 55.5431 107.93 55.4914 107.684 55.417H107.647C106.617 55.1189 106.591 55.1263 106.036 56.4106C105.846 56.8301 105.562 57.1994 105.204 57.4889C105.149 57.5404 105.09 57.5845 105.035 57.6324L104.92 57.7097C104.699 57.8655 104.464 58.001 104.218 58.1145C103.962 58.2363 103.699 58.342 103.43 58.4309C103.43 58.3831 103.43 58.3353 103.448 58.2874C103.467 58.2396 103.489 57.8863 103.552 57.3049C103.807 57.2141 104.053 57.0995 104.288 56.9626C104.542 56.8197 104.768 56.6328 104.957 56.4106C105.004 56.3559 105.044 56.2967 105.079 56.234C105.109 56.1923 105.134 56.148 105.156 56.1015L105.252 55.8954C105.874 54.6369 106.356 54.2762 107.353 54.4234C107.572 54.4583 107.788 54.5062 108.001 54.5669H108.052C108.292 54.6344 108.539 54.6727 108.788 54.681H108.968C109.24 54.6534 109.503 54.5679 109.74 54.4301C109.976 54.2924 110.18 54.1056 110.337 53.8825C110.44 53.7608 110.565 53.6597 110.705 53.5844C110.897 53.492 111.102 53.4299 111.313 53.4004C111.372 53.4004 111.434 53.4004 111.497 53.3783C111.585 53.4409 111.67 53.4961 111.74 53.5513C111.953 53.6985 112.288 53.9671 112.645 54.2578Z" fill="white"/>
</g>
<g opacity="0.3">
<path opacity="0.3" d="M109.98 52.3774C109.915 52.3808 109.85 52.3894 109.785 52.4032C109.449 52.4721 109.121 52.5808 108.81 52.727C108.637 52.8006 108.464 52.8742 108.299 52.9294L108.152 52.9736C108.003 53.0156 107.85 53.0379 107.695 53.0398C107.646 53.0435 107.597 53.0435 107.548 53.0398C107.39 53.0398 107.235 53.0067 107.092 53.003C106.334 52.9625 105.811 53.0987 105.484 53.4188C105.382 53.5134 105.275 53.6019 105.163 53.6838L105.012 53.7905L104.887 53.8715C104.707 53.9929 104.519 54.1033 104.317 54.21L103.864 54.4419C103.908 54.0996 103.949 53.7868 103.986 53.5292L104.31 53.3526C104.516 53.2391 104.71 53.1034 104.887 52.9478C104.897 52.9402 104.905 52.9315 104.913 52.922C104.975 52.8663 105.04 52.8147 105.108 52.7675C105.16 52.727 105.211 52.6939 105.263 52.6608C105.781 52.3704 106.37 52.2302 106.963 52.256C107.167 52.2554 107.371 52.2652 107.574 52.2854H107.721C107.796 52.2908 107.871 52.2794 107.942 52.2523C107.99 52.2421 108.037 52.2273 108.082 52.2081C108.188 52.1713 108.31 52.1198 108.45 52.0683C108.729 51.945 109.017 51.8417 109.311 51.7592H109.351C109.528 51.9961 109.74 52.2046 109.98 52.3774Z" fill="white"/>
</g>
<g opacity="0.5">
<path opacity="0.5" d="M110.923 57.6324C110.898 57.6973 110.869 57.76 110.834 57.8201C110.577 57.4263 110.297 57.0105 110.025 56.5983L109.719 56.142L109.609 55.9764L109.325 55.5495C109.108 55.2183 108.924 54.9313 108.773 54.6774C108.405 54.0849 108.21 53.6911 108.229 53.5034C108.232 53.4778 108.232 53.4518 108.229 53.4261C108.229 53.3893 108.229 53.3452 108.229 53.2974C108.213 53.1894 108.191 53.0824 108.163 52.9772C108.111 52.7564 108.037 52.5061 107.953 52.2596C107.868 52.013 107.758 51.7002 107.677 51.4868L107.809 51.4426C107.894 51.6561 107.993 51.9321 108.093 52.2154C108.192 52.4988 108.251 52.7085 108.31 52.9514C108.339 53.0802 108.365 53.198 108.38 53.301C108.38 53.3489 108.38 53.393 108.38 53.4335C108.384 53.4641 108.384 53.495 108.38 53.5255C108.495 53.9461 108.69 54.3408 108.954 54.6884C109.116 54.946 109.3 55.2293 109.498 55.5274C109.598 55.682 109.704 55.8402 109.815 55.9985C109.848 56.0573 109.881 56.1052 109.918 56.1604L110.172 56.5284C110.426 56.889 110.68 57.2644 110.923 57.6324Z" fill="white"/>
</g>
<g opacity="0.5">
<path opacity="0.5" d="M105.163 53.6728C105.156 53.7867 105.156 53.9011 105.163 54.015C105.168 54.0621 105.175 54.1088 105.185 54.1549C105.187 54.1634 105.187 54.1721 105.185 54.1806C105.251 54.7425 105.262 55.3094 105.219 55.8734C105.219 55.9581 105.219 56.0501 105.219 56.1421C105.219 56.5505 105.189 57.0105 105.185 57.4742C105.185 57.6214 105.185 57.7686 105.185 57.9158V58.1182C105.185 58.6702 105.204 59.2222 105.252 59.6601C105.2 59.7448 105.145 59.8184 105.093 59.892C105.034 59.3371 105.007 58.7793 105.012 58.2213C105.012 58.155 105.012 58.0888 105.012 58.0225C105.012 57.8901 105.012 57.7539 105.012 57.6178C105.012 57.1357 105.035 56.6609 105.046 56.2157C105.047 56.1973 105.047 56.1788 105.046 56.1605C105.103 55.5202 105.103 54.8761 105.046 54.2358C105.036 54.1909 105.028 54.1454 105.024 54.0997C105.016 53.9943 105.016 53.8885 105.024 53.7832C105.035 53.4405 105.066 53.0989 105.119 52.7601C105.185 52.2854 105.274 51.8217 105.34 51.531C105.383 51.5152 105.427 51.5053 105.472 51.5016C105.41 51.7592 105.329 52.2008 105.259 52.6608C105.21 52.9963 105.178 53.3341 105.163 53.6728Z" fill="white"/>
</g>
<g opacity="0.5">
<path opacity="0.5" d="M110.551 52.7748L110.481 52.8042C110.389 52.8447 110.293 52.8889 110.19 52.9294C109.646 53.1815 109.064 53.3419 108.468 53.4041H108.38H108.229L107.758 53.4409L107.158 53.4961C106.61 53.5077 106.072 53.6423 105.583 53.8898C105.457 53.9797 105.325 54.0621 105.189 54.1364L105.046 54.2137L104.924 54.2836L104.328 54.5927L103.809 54.8577L103.831 54.6958L104.324 54.4492C104.527 54.3425 104.729 54.2394 104.917 54.1364L105.024 54.0775L105.167 53.9966C105.307 53.9156 105.425 53.8457 105.502 53.7905C105.818 53.5586 106.378 53.4482 107.136 53.371L107.736 53.3121L108.218 53.2753H108.369H108.461C109.03 53.2149 109.586 53.062 110.106 52.8226C110.212 52.7822 110.312 52.738 110.411 52.6938C110.411 52.6938 110.503 52.7454 110.551 52.7748Z" fill="black"/>
</g>
<g opacity="0.5">
<path opacity="0.5" d="M113.005 54.5559C112.906 54.5559 112.814 54.5743 112.722 54.5854C112.471 54.6195 112.224 54.6799 111.986 54.7657C111.384 54.9958 110.851 55.3758 110.437 55.8697C110.371 55.9498 110.297 56.0226 110.216 56.0868C110.122 56.1325 110.018 56.154 109.914 56.1494H109.716C109.413 56.1388 109.11 56.113 108.81 56.0721C108.483 56.0279 108.148 55.9727 107.861 55.9212C107.589 55.876 107.321 55.8121 107.059 55.7298C106.963 55.6857 106.54 56.4217 106.356 56.7492C106.167 57.1378 105.928 57.5003 105.645 57.8274C105.5 57.9398 105.346 58.0407 105.185 58.1292L105.012 58.2322L104.887 58.3058L104.17 58.6996C103.875 58.8578 103.574 59.0124 103.298 59.1559C103.298 59.0823 103.327 59.005 103.338 58.9314C103.61 58.7916 103.901 58.6407 104.184 58.4861C104.468 58.3316 104.681 58.2175 104.891 58.0998L105.012 58.0335L105.185 57.9268C105.314 57.8579 105.437 57.7792 105.553 57.6913C105.815 57.3798 106.04 57.039 106.223 56.6756C106.65 55.9175 106.915 55.4796 107.151 55.5716C107.356 55.6461 107.568 55.7003 107.784 55.7335C108.037 55.7813 108.332 55.8329 108.63 55.8697C108.998 55.9138 109.34 55.9543 109.616 55.9654H109.822C109.923 55.9753 110.025 55.9627 110.12 55.9285C110.19 55.8699 110.255 55.806 110.315 55.7372C110.731 55.2498 111.259 54.8709 111.854 54.6332C112.085 54.5489 112.324 54.4861 112.568 54.4455C112.66 54.4455 112.752 54.4161 112.844 54.405L113.005 54.5559Z" fill="black"/>
</g>
<path d="M112.207 56.2634L109.977 59.0087L110.786 60.017L113.388 57.2239L112.207 56.2634Z" fill="#D5663F"/>
<path opacity="0.2" d="M112.207 56.2634L109.977 59.0087L110.786 60.017L113.388 57.2239L112.207 56.2634Z" fill="black"/>
<path opacity="0.2" d="M91.6394 62.9979L95.2936 63.5573L94.9256 68.0506L93.1923 68.8786L91.4554 67.4581L91.6394 62.9979Z" fill="black"/>
<path d="M110.481 49.6468C110.481 49.6468 112.744 48.863 112.972 49.4665C113.2 50.07 110.481 49.6468 110.481 49.6468Z" fill="#D5663F"/>
<path d="M110.172 50.5264C110.172 50.5264 112.545 50.9348 112.453 51.3176C112.361 51.7003 110.172 50.5264 110.172 50.5264Z" fill="#D5663F"/>
<path opacity="0.7" d="M110.481 49.6468C110.481 49.6468 112.744 48.863 112.972 49.4665C113.2 50.07 110.481 49.6468 110.481 49.6468Z" fill="white"/>
<path opacity="0.7" d="M110.172 50.5264C110.172 50.5264 112.545 50.9348 112.453 51.3176C112.361 51.7003 110.172 50.5264 110.172 50.5264Z" fill="white"/>
<path d="M54.464 78.5055V79.3482C54.464 79.7457 54.9277 79.9076 55.3178 79.9076H86.0789C86.4726 79.9076 86.9474 79.7457 86.9474 79.3482V78.5055H54.464Z" fill="#263238"/>
<path opacity="0.1" d="M54.464 78.5055V79.3482C54.464 79.7457 54.9277 79.9076 55.3178 79.9076H75.6056C75.9994 79.9076 76.4667 79.7457 76.4667 79.3482V78.5055H54.464Z" fill="white"/>
<path d="M49.312 61.824L52.992 78.4392C53.0585 78.7053 53.2111 78.942 53.4261 79.1124C53.6411 79.2828 53.9064 79.3773 54.1806 79.3813H74.1851C74.3081 79.376 74.4283 79.3426 74.5364 79.2837C74.6445 79.2247 74.7377 79.1418 74.8088 79.0412C74.8798 78.9407 74.9269 78.8252 74.9464 78.7036C74.9659 78.582 74.9572 78.4576 74.9211 78.3399L71.2632 61.8571C71.1888 61.6056 71.0299 61.3873 70.8134 61.2392C70.5969 61.0911 70.336 61.0221 70.0746 61.0439H50.0774C49.5402 61.0439 49.2053 61.2867 49.312 61.824Z" fill="#263238"/>
<path opacity="0.2" d="M49.312 61.824L52.992 78.4392C53.0585 78.7053 53.2111 78.942 53.4261 79.1124C53.6411 79.2828 53.9064 79.3773 54.1806 79.3813H73.5043C73.6289 79.3788 73.7512 79.3474 73.8616 79.2896C73.9721 79.2318 74.0676 79.1492 74.1407 79.0483C74.2138 78.9474 74.2625 78.8309 74.283 78.708C74.3035 78.585 74.2952 78.459 74.2587 78.3399L70.5787 61.8571C70.5049 61.6052 70.3462 61.3866 70.1296 61.2383C69.9129 61.0901 69.6516 61.0214 69.3901 61.0439H50.0774C49.5402 61.0439 49.2053 61.2867 49.312 61.824Z" fill="white"/>
<path opacity="0.2" d="M59.1854 70.288C59.1854 71.7085 60.709 72.864 61.8277 72.864C62.9464 72.864 63.6088 71.7085 63.2997 70.288C62.9906 68.8676 61.8682 67.7562 60.7752 67.712C61.0954 69.1325 60.4072 70.288 59.3032 70.288C59.2642 70.2944 59.2244 70.2944 59.1854 70.288Z" fill="black"/>
<path d="M104.199 134.36H106.282L110.021 82.3142H107.261L104.199 134.36Z" fill="#263238"/>
<path opacity="0.1" d="M104.199 134.361H106.282L109.837 84.8977L110.021 82.3953H107.261L107.11 84.8977L104.199 134.361Z" fill="white"/>
<path opacity="0.2" d="M107.11 84.7725H109.837L110.021 82.3953H107.261L107.11 84.7725Z" fill="black"/>
<path d="M59.4725 134.36H61.5517L61.8939 82.3142H59.1339L59.4725 134.36Z" fill="#263238"/>
<path opacity="0.1" d="M59.1302 82.3953L59.1854 90.793L59.4725 134.361H61.5517L61.8387 90.793L61.8939 82.3953H59.1302Z" fill="white"/>
<path opacity="0.2" d="M59.1302 82.3953L59.1854 90.8887H61.8387L61.8939 82.3953H59.1302Z" fill="black"/>
<path d="M37.3814 134.36H39.4643L43.2032 82.3142H40.4432L37.3814 134.36Z" fill="#263238"/>
<path opacity="0.1" d="M37.3814 134.361H39.4643L43.0192 84.8977L43.2032 82.3953H40.4432L40.2923 84.8977L37.3814 134.361Z" fill="white"/>
<path opacity="0.2" d="M40.2923 84.7725H43.0192L43.2032 82.3953H40.4432L40.2923 84.7725Z" fill="black"/>
<path d="M128.001 134.36H130.084L127.026 82.3142H124.266L128.001 134.36Z" fill="#263238"/>
<path opacity="0.1" d="M124.266 82.3953L124.447 84.8977L128.005 134.361H130.084L127.173 84.8977L127.026 82.3953H124.266Z" fill="white"/>
<path opacity="0.2" d="M127.026 82.3953H124.266L124.447 84.7725H127.173L127.026 82.3953Z" fill="black"/>
<path d="M128.311 83.6169L39.1552 83.6169C38.9161 83.6169 38.6868 83.522 38.5177 83.3529C38.3486 83.1838 38.2536 82.9545 38.2536 82.7154V81.0078L129.194 81.0078V82.7154C129.194 82.9513 129.101 83.1779 128.936 83.3465C128.771 83.515 128.546 83.6121 128.311 83.6169Z" fill="#D5663F"/>
<path opacity="0.4" d="M128.311 83.6169L39.1552 83.6169C38.9161 83.6169 38.6868 83.522 38.5177 83.3529C38.3486 83.1838 38.2536 82.9545 38.2536 82.7154V81.0078L129.194 81.0078V82.7154C129.194 82.9513 129.101 83.1779 128.936 83.3465C128.771 83.515 128.546 83.6121 128.311 83.6169Z" fill="white"/>
<path opacity="0.2" d="M38.2536 82.3142L129.212 82.3142V81.0115L38.2536 81.0115V82.3142Z" fill="black"/>
<path d="M36.9656 81.3501H130.504C130.699 81.3501 130.886 81.2725 131.024 81.1345C131.162 80.9965 131.24 80.8093 131.24 80.6141C131.24 80.4189 131.162 80.2316 131.024 80.0936C130.886 79.9556 130.699 79.8781 130.504 79.8781H36.9656C36.7704 79.8781 36.5832 79.9556 36.4452 80.0936C36.3071 80.2316 36.2296 80.4189 36.2296 80.6141C36.2296 80.8093 36.3071 80.9965 36.4452 81.1345C36.5832 81.2725 36.7704 81.3501 36.9656 81.3501Z" fill="#D5663F"/>
<path opacity="0.4" d="M36.9656 81.3501H130.504C130.699 81.3501 130.886 81.2725 131.024 81.1345C131.162 80.9965 131.24 80.8093 131.24 80.6141C131.24 80.4189 131.162 80.2316 131.024 80.0936C130.886 79.9556 130.699 79.8781 130.504 79.8781H36.9656C36.7704 79.8781 36.5832 79.9556 36.4452 80.0936C36.3071 80.2316 36.2296 80.4189 36.2296 80.6141C36.2296 80.8093 36.3071 80.9965 36.4452 81.1345C36.5832 81.2725 36.7704 81.3501 36.9656 81.3501Z" fill="white"/>
<path d="M103.239 80.0473V74.7776H122.551V80.1614L103.239 80.0473Z" fill="#D5663F"/>
<path opacity="0.7" d="M103.239 80.0473V74.7776H122.551V80.1614L103.239 80.0473Z" fill="white"/>
<path opacity="0.1" d="M122.548 74.7776H113.02V80.1577H122.548V74.7776Z" fill="black"/>
<path d="M103.239 75.5356L102.385 75.7969H111.714L103.239 75.5356Z" fill="#D5663F"/>
<path d="M103.239 77.4713L113.02 77.7179H121.296L113.204 78.1668L103.239 77.4713Z" fill="#D5663F"/>
<path d="M111.714 79.0979H103.239L102.385 79.3518L111.714 79.0979Z" fill="#D5663F"/>
<path d="M113.907 75.6645L122.551 75.5762L123.019 75.797L113.907 75.6645Z" fill="#D5663F"/>
<path d="M115.412 78.8477H122.551L123.019 79.3518L115.412 78.8477Z" fill="#D5663F"/>
<path opacity="0.5" d="M103.239 75.5356L102.385 75.7969H111.714L103.239 75.5356Z" fill="white"/>
<path opacity="0.7" d="M103.239 77.4713L113.02 77.7179H121.296L113.204 78.1668L103.239 77.4713Z" fill="white"/>
<path opacity="0.5" d="M111.714 79.0979H103.239L102.385 79.3518L111.714 79.0979Z" fill="white"/>
<path opacity="0.7" d="M113.907 75.6645L122.551 75.5762L123.019 75.797L113.907 75.6645Z" fill="white"/>
<path opacity="0.7" d="M123.019 79.3518L115.412 78.8477H122.551" fill="white"/>
<path d="M103.886 73.8502C107.614 75.1639 113.2 74.7775 113.2 74.7775H122.544C122.544 74.7775 116.906 74.6561 116.343 73.5558L103.886 73.8502Z" fill="#D5663F"/>
<path opacity="0.5" d="M103.886 73.8502C107.614 75.1639 113.2 74.7775 113.2 74.7775H122.544C122.544 74.7775 116.906 74.6561 116.343 73.5558L103.886 73.8502Z" fill="white"/>
<path d="M106.437 71.7783C106.437 71.7783 111.088 73.6183 115.445 74.1924L130.294 72.8345C130.294 72.8345 122.342 72.3303 120.395 70.6265L106.437 71.7783Z" fill="#D5663F"/>
<path opacity="0.7" d="M106.437 71.7783C106.437 71.7783 111.088 73.6183 115.445 74.1924L130.294 72.8345C130.294 72.8345 122.342 72.3303 120.395 70.6265L106.437 71.7783Z" fill="white"/>
<path d="M116.604 65.688C116.604 65.688 116.63 69.6624 119.887 71.1013C123.144 72.5402 133.172 72.415 133.172 72.415C133.172 72.415 125.076 71.484 124.413 67.3366L116.604 65.688Z" fill="#D5663F"/>
<path opacity="0.5" d="M116.604 65.688C116.604 65.688 116.63 69.6624 119.887 71.1013C123.144 72.5402 133.172 72.415 133.172 72.415C133.172 72.415 125.076 71.484 124.413 67.3366L116.604 65.688Z" fill="white"/>
<path d="M127.166 63.3585C127.429 65.5745 128.274 67.6812 129.617 69.4636C129.617 69.4636 132.241 70.678 134.441 70.6376C136.642 70.5971 140.153 73.8944 140.153 73.8944L138.876 66.8288C138.876 66.8288 135.667 65.7248 133.658 66.0265C131.648 66.3283 128.064 64.6723 127.166 63.3585Z" fill="#D5663F"/>
<path opacity="0.7" d="M127.166 63.3585C127.429 65.5745 128.274 67.6812 129.617 69.4636C129.617 69.4636 132.241 70.678 134.441 70.6376C136.642 70.5971 140.153 73.8944 140.153 73.8944L138.876 66.8288C138.876 66.8288 135.667 65.7248 133.658 66.0265C131.648 66.3283 128.064 64.6723 127.166 63.3585Z" fill="white"/>
<path d="M140.462 125.12C140.542 124.959 140.582 124.781 140.578 124.601C140.574 124.421 140.526 124.245 140.438 124.088C140.35 123.931 140.225 123.797 140.074 123.699C139.923 123.602 139.751 123.542 139.571 123.527C139.727 123.07 139.74 122.577 139.608 122.113C139.477 121.649 139.207 121.236 138.835 120.928C138.746 120.846 138.632 120.796 138.512 120.785C138.375 120.795 138.246 120.849 138.144 120.939L136.064 122.434C135.898 122.536 135.757 122.676 135.652 122.842C135.229 123.663 136.756 124.719 136.131 125.4C135.95 125.595 135.66 125.635 135.431 125.768C134.938 126.077 134.879 126.754 134.648 127.291C134.416 127.828 133.613 128.244 133.304 127.747C133.532 127.232 132.844 126.791 132.289 126.724C131.733 126.658 131.148 126.629 130.839 126.106C130.048 126.798 128.263 124.866 128.314 124.09C127.663 124.137 127.21 124.748 127.078 125.355C126.984 125.999 126.961 126.65 127.008 127.299C126.989 128.557 126.585 129.794 126.607 131.052C126.607 132.035 127 133.124 127.898 133.518C128.345 133.678 128.82 133.742 129.293 133.705L139.52 133.639C139.771 133.661 140.024 133.62 140.256 133.521C140.716 133.279 140.812 132.675 140.856 132.156C141.04 129.933 141.222 127.711 141.404 125.488L140.462 125.12Z" fill="#D5663F"/>
<path opacity="0.3" d="M140.462 125.12C140.542 124.959 140.582 124.781 140.578 124.601C140.574 124.421 140.526 124.245 140.438 124.088C140.35 123.931 140.225 123.797 140.074 123.699C139.923 123.602 139.751 123.542 139.571 123.527C139.727 123.07 139.74 122.577 139.608 122.113C139.477 121.649 139.207 121.236 138.835 120.928C138.746 120.846 138.632 120.796 138.512 120.785C138.375 120.795 138.246 120.849 138.144 120.939L136.064 122.434C135.898 122.536 135.757 122.676 135.652 122.842C135.229 123.663 136.756 124.719 136.131 125.4C135.95 125.595 135.66 125.635 135.431 125.768C134.938 126.077 134.879 126.754 134.648 127.291C134.416 127.828 133.613 128.244 133.304 127.747C133.532 127.232 132.844 126.791 132.289 126.724C131.733 126.658 131.148 126.629 130.839 126.106C130.048 126.798 128.263 124.866 128.314 124.09C127.663 124.137 127.21 124.748 127.078 125.355C126.984 125.999 126.961 126.65 127.008 127.299C126.989 128.557 126.585 129.794 126.607 131.052C126.607 132.035 127 133.124 127.898 133.518C128.345 133.678 128.82 133.742 129.293 133.705L139.52 133.639C139.771 133.661 140.024 133.62 140.256 133.521C140.716 133.279 140.812 132.675 140.856 132.156C141.04 129.933 141.222 127.711 141.404 125.488L140.462 125.12Z" fill="white"/>
<path d="M141.058 114.304H125.19L125.319 115.909L125.414 117.053L125.654 120.031L125.793 121.745L125.977 124.023L126.055 124.999L126.08 125.289L126.172 126.437L126.301 128.012L126.379 128.988L126.46 129.981L126.555 131.129L126.625 131.998L126.702 132.973L126.736 133.4H141.312L141.345 132.973L141.422 132.002L141.492 131.126L141.588 129.978L141.669 128.988L141.746 128.012L141.875 126.434L141.967 125.289L141.989 124.999L142.048 124.016L142.236 121.738L142.376 120.027L142.615 117.046L142.707 115.902L142.836 114.297L141.058 114.304ZM142.011 115.357L141.706 115.052H142.037L142.011 115.357ZM141.934 116.328L141.904 116.719L140.484 118.128L138.854 116.498L140.326 115.026H140.672L141.934 116.328ZM141.525 121.407L140.484 122.448L138.854 120.818L140.484 119.192L141.61 120.318L141.525 121.407ZM126.437 120.303L127.564 119.177L129.194 120.803L127.564 122.434L126.526 121.392L126.437 120.303ZM139.972 118.651L138.342 120.277L136.716 118.651L138.342 117.02L139.972 118.651ZM137.396 115.037H139.262L138.328 115.968L137.396 115.037ZM137.798 120.803L136.16 122.448L134.53 120.818L136.16 119.192L137.798 120.803ZM132.388 122.96L134.018 121.333L135.645 122.96L134.018 124.59L132.388 122.96ZM133.492 125.116L131.862 126.743L130.235 125.12L131.862 123.49L133.492 125.116ZM136.178 123.49L137.801 125.12L136.16 126.758L134.544 125.12L136.178 123.49ZM134.022 120.277L132.392 118.651L134.022 117.02L135.648 118.651L134.022 120.277ZM133.492 120.803L131.865 122.434L130.239 120.803L131.865 119.177L133.492 120.803ZM129.709 120.277L128.064 118.665L129.691 117.035L131.317 118.665L129.709 120.277ZM129.709 121.333L131.336 122.96L129.709 124.59L128.064 122.975L129.709 121.333ZM131.336 127.273L129.709 128.899L128.064 127.288L129.691 125.657L131.336 127.273ZM131.862 127.799L133.492 129.429L131.865 131.06L130.239 129.429L131.862 127.799ZM132.392 127.273L134.022 125.643L135.648 127.273L134.022 128.899L132.392 127.273ZM136.16 127.814L137.783 129.444L136.16 131.074L134.53 129.444L136.16 127.814ZM138.313 129.97L139.943 131.597L138.887 132.653H137.739L136.686 131.597L138.313 129.97ZM136.686 127.288L138.313 125.657L139.943 127.288L138.313 128.914L136.686 127.288ZM136.686 122.975L138.313 121.348L139.943 122.975L138.313 124.605L136.686 122.975ZM137.79 116.509L136.16 118.128L134.53 116.498L136.002 115.026H136.344L137.79 116.509ZM134.011 115.983L133.08 115.052H134.938L134.011 115.983ZM133.481 116.509L131.862 118.128L130.235 116.498L131.707 115.026H132.049L133.481 116.509ZM130.629 115.037L129.698 115.968L128.767 115.037H130.629ZM127.714 115.037L129.186 116.509L127.549 118.128L126.132 116.708L126.103 116.317L127.376 115.04L127.714 115.037ZM126.32 115.037L126.018 115.339L125.992 115.037H126.32ZM126.217 117.852L127.015 118.651L126.338 119.328L126.217 117.852ZM126.662 123.313L126.592 122.544L127.008 122.964L126.64 123.332L126.662 123.313ZM126.739 124.296L127.541 123.49L129.168 125.12L127.538 126.743L126.883 126.088L126.739 124.296ZM126.982 127.306V127.236L127.019 127.273L126.986 127.306H126.982ZM127.265 130.78L127.059 128.281L127.541 127.799L129.172 129.429L127.541 131.056L127.265 130.78ZM127.416 132.638L127.383 132.27L127.541 132.112L128.071 132.642L127.416 132.638ZM128.064 131.597L129.691 129.97L131.317 131.597L130.272 132.653H129.131L128.064 131.597ZM131.321 132.653L131.847 132.123L132.377 132.653H131.321ZM133.429 132.653L132.373 131.597L134.004 129.97L135.63 131.597L134.578 132.653H133.429ZM135.637 132.653L136.16 132.112L136.69 132.642L135.637 132.653ZM140.602 132.653H139.947L140.477 132.123L140.631 132.281L140.602 132.653ZM140.756 130.795L140.477 131.071L138.846 129.444L140.477 127.814L140.959 128.296L140.756 130.795ZM141.043 127.247V127.321L141.01 127.288L141.051 127.247H141.043ZM141.135 126.103L140.477 126.758L138.854 125.12L140.484 123.49L141.29 124.296L141.135 126.103ZM141.36 123.332L140.992 122.964L141.411 122.544L141.36 123.332ZM141.805 117.863L141.684 119.335L141.003 118.654L141.805 117.852V117.863Z" fill="#D5663F"/>
<g opacity="0.6">
<path opacity="0.6" d="M141.058 114.304H125.19L125.319 115.909L125.414 117.053L125.654 120.031L125.793 121.745L125.977 124.023L126.055 124.999L126.08 125.289L126.172 126.437L126.301 128.012L126.379 128.988L126.46 129.981L126.555 131.129L126.625 131.998L126.702 132.973L126.736 133.4H141.312L141.345 132.973L141.422 132.002L141.492 131.126L141.588 129.978L141.669 128.988L141.746 128.012L141.875 126.434L141.967 125.289L141.989 124.999L142.048 124.016L142.236 121.738L142.376 120.027L142.615 117.046L142.707 115.902L142.836 114.297L141.058 114.304ZM142.011 115.357L141.706 115.052H142.037L142.011 115.357ZM141.934 116.328L141.904 116.719L140.484 118.128L138.854 116.498L140.326 115.026H140.672L141.934 116.328ZM141.525 121.407L140.484 122.448L138.854 120.818L140.484 119.192L141.61 120.318L141.525 121.407ZM126.437 120.303L127.564 119.177L129.194 120.803L127.564 122.434L126.526 121.392L126.437 120.303ZM139.972 118.651L138.342 120.277L136.716 118.651L138.342 117.02L139.972 118.651ZM137.396 115.037H139.262L138.328 115.968L137.396 115.037ZM137.798 120.803L136.16 122.448L134.53 120.818L136.16 119.192L137.798 120.803ZM132.388 122.96L134.018 121.333L135.645 122.96L134.018 124.59L132.388 122.96ZM133.492 125.116L131.862 126.743L130.235 125.12L131.862 123.49L133.492 125.116ZM136.178 123.49L137.801 125.12L136.16 126.758L134.544 125.12L136.178 123.49ZM134.022 120.277L132.392 118.651L134.022 117.02L135.648 118.651L134.022 120.277ZM133.492 120.803L131.865 122.434L130.239 120.803L131.865 119.177L133.492 120.803ZM129.709 120.277L128.064 118.665L129.691 117.035L131.317 118.665L129.709 120.277ZM129.709 121.333L131.336 122.96L129.709 124.59L128.064 122.975L129.709 121.333ZM131.336 127.273L129.709 128.899L128.064 127.288L129.691 125.657L131.336 127.273ZM131.862 127.799L133.492 129.429L131.865 131.06L130.239 129.429L131.862 127.799ZM132.392 127.273L134.022 125.643L135.648 127.273L134.022 128.899L132.392 127.273ZM136.16 127.814L137.783 129.444L136.16 131.074L134.53 129.444L136.16 127.814ZM138.313 129.97L139.943 131.597L138.887 132.653H137.739L136.686 131.597L138.313 129.97ZM136.686 127.288L138.313 125.657L139.943 127.288L138.313 128.914L136.686 127.288ZM136.686 122.975L138.313 121.348L139.943 122.975L138.313 124.605L136.686 122.975ZM137.79 116.509L136.16 118.128L134.53 116.498L136.002 115.026H136.344L137.79 116.509ZM134.011 115.983L133.08 115.052H134.938L134.011 115.983ZM133.481 116.509L131.862 118.128L130.235 116.498L131.707 115.026H132.049L133.481 116.509ZM130.629 115.037L129.698 115.968L128.767 115.037H130.629ZM127.714 115.037L129.186 116.509L127.549 118.128L126.132 116.708L126.103 116.317L127.376 115.04L127.714 115.037ZM126.32 115.037L126.018 115.339L125.992 115.037H126.32ZM126.217 117.852L127.015 118.651L126.338 119.328L126.217 117.852ZM126.662 123.313L126.592 122.544L127.008 122.964L126.64 123.332L126.662 123.313ZM126.739 124.296L127.541 123.49L129.168 125.12L127.538 126.743L126.883 126.088L126.739 124.296ZM126.982 127.306V127.236L127.019 127.273L126.986 127.306H126.982ZM127.265 130.78L127.059 128.281L127.541 127.799L129.172 129.429L127.541 131.056L127.265 130.78ZM127.416 132.638L127.383 132.27L127.541 132.112L128.071 132.642L127.416 132.638ZM128.064 131.597L129.691 129.97L131.317 131.597L130.272 132.653H129.131L128.064 131.597ZM131.321 132.653L131.847 132.123L132.377 132.653H131.321ZM133.429 132.653L132.373 131.597L134.004 129.97L135.63 131.597L134.578 132.653H133.429ZM135.637 132.653L136.16 132.112L136.69 132.642L135.637 132.653ZM140.602 132.653H139.947L140.477 132.123L140.631 132.281L140.602 132.653ZM140.756 130.795L140.477 131.071L138.846 129.444L140.477 127.814L140.959 128.296L140.756 130.795ZM141.043 127.247V127.321L141.01 127.288L141.051 127.247H141.043ZM141.135 126.103L140.477 126.758L138.854 125.12L140.484 123.49L141.29 124.296L141.135 126.103ZM141.36 123.332L140.992 122.964L141.411 122.544L141.36 123.332ZM141.805 117.863L141.684 119.335L141.003 118.654L141.805 117.852V117.863Z" fill="white"/>
</g>
<path d="M124.929 115.718H143.1C143.519 115.718 143.859 115.378 143.859 114.96V114.4C143.859 113.982 143.519 113.642 143.1 113.642H124.929C124.51 113.642 124.171 113.982 124.171 114.4V114.96C124.171 115.378 124.51 115.718 124.929 115.718Z" fill="#D5663F"/>
<path d="M141.68 132.285H126.349C125.93 132.285 125.591 132.624 125.591 133.043V133.602C125.591 134.021 125.93 134.36 126.349 134.36H141.68C142.099 134.36 142.438 134.021 142.438 133.602V133.043C142.438 132.624 142.099 132.285 141.68 132.285Z" fill="#D5663F"/>
</svg>
