<svg width="184" height="138" viewBox="0 0 184 138" fill="none" xmlns="http://www.w3.org/2000/svg">
<path d="M184 120.483H0V120.575H184V120.483Z" fill="#EBEBEB"/>
<path d="M87.216 104.07H16.1589C15.6022 104.069 15.0687 103.848 14.6754 103.454C14.2822 103.06 14.0613 102.526 14.0613 101.969V2.08288C14.0661 1.52942 14.2891 1.00022 14.6819 0.610224C15.0746 0.220233 15.6054 0.000948111 16.1589 0H87.216C87.7733 0 88.3078 0.221384 88.7018 0.615451C89.0959 1.00952 89.3173 1.54399 89.3173 2.10128V101.969C89.3173 102.526 89.0959 103.061 88.7018 103.455C88.3078 103.849 87.7733 104.07 87.216 104.07ZM16.1589 0.0736003C15.6266 0.0745751 15.1165 0.286696 14.7405 0.663403C14.3645 1.04011 14.1533 1.55062 14.1533 2.08288V101.969C14.1533 102.501 14.3645 103.012 14.7405 103.389C15.1165 103.765 15.6266 103.977 16.1589 103.978H87.216C87.7486 103.977 88.2591 103.765 88.6357 103.389C89.0123 103.012 89.2243 102.502 89.2253 101.969V2.08288C89.2243 1.55028 89.0123 1.03978 88.6357 0.663179C88.2591 0.286576 87.7486 0.0745731 87.216 0.0736003H16.1589Z" fill="#EBEBEB"/>
<path d="M166.818 104.07H95.7573C95.2003 104.069 94.6664 103.848 94.2725 103.454C93.8787 103.06 93.657 102.526 93.656 101.969V2.08288C93.6618 1.52908 93.8856 0.999884 94.279 0.609994C94.6723 0.220104 95.2035 0.000937771 95.7573 0H166.818C167.371 0.00191525 167.901 0.221628 168.293 0.611516C168.685 1.0014 168.907 1.53005 168.912 2.08288V101.969C168.912 102.525 168.692 103.058 168.299 103.452C167.907 103.846 167.374 104.068 166.818 104.07ZM95.7573 0.0736003C95.2247 0.0745731 94.7142 0.286576 94.3376 0.663179C93.961 1.03978 93.749 1.55028 93.748 2.08288V101.969C93.749 102.502 93.961 103.012 94.3376 103.389C94.7142 103.765 95.2247 103.977 95.7573 103.978H166.818C167.351 103.977 167.861 103.765 168.238 103.389C168.614 103.012 168.826 102.502 168.827 101.969V2.08288C168.826 1.55028 168.614 1.03978 168.238 0.663179C167.861 0.286576 167.351 0.0745731 166.818 0.0736003H95.7573Z" fill="#EBEBEB"/>
<path d="M165.563 123.987H153.945V124.079H165.563V123.987Z" fill="#EBEBEB"/>
<path d="M123.405 122.989H111.11V123.081H123.405V122.989Z" fill="#EBEBEB"/>
<path d="M168.919 127.405H145.945V127.497H168.919V127.405Z" fill="#EBEBEB"/>
<path d="M26.3819 126.787H19.3053V126.879H26.3819V126.787Z" fill="#EBEBEB"/>
<path d="M40.8075 126.787H29.6608V126.879H40.8075V126.787Z" fill="#EBEBEB"/>
<path d="M89.8435 125.234H69.7654V125.326H89.8435V125.234Z" fill="#EBEBEB"/>
<path d="M102.028 70.9614H156.632V13.34L102.028 13.34V70.9614Z" fill="#E6E6E6"/>
<path d="M96.1768 11.4742H160.168C160.24 11.4742 160.31 11.4884 160.376 11.5158C160.442 11.5432 160.502 11.5834 160.552 11.634C160.602 11.6846 160.642 11.7447 160.669 11.8107C160.696 11.8768 160.71 11.9475 160.709 12.0189C160.709 12.1624 160.652 12.3 160.551 12.4014C160.449 12.5028 160.312 12.5598 160.168 12.5598H96.1768C96.1054 12.5603 96.0347 12.5467 95.9686 12.5197C95.9026 12.4928 95.8425 12.453 95.7919 12.4027C95.7413 12.3524 95.7011 12.2926 95.6737 12.2268C95.6463 12.1609 95.6321 12.0902 95.6321 12.0189C95.6321 11.8744 95.6895 11.7359 95.7917 11.6338C95.8938 11.5316 96.0323 11.4742 96.1768 11.4742Z" fill="#E6E6E6"/>
<path d="M99.7096 70.9614H155.55V13.34L99.7096 13.34V70.9614Z" fill="#F0F0F0"/>
<path d="M102.028 73.1143H156.632V70.9615H102.028V73.1143Z" fill="#E6E6E6"/>
<path d="M95.8493 73.1143H151.69V70.9615H95.8493V73.1143Z" fill="#F0F0F0"/>
<path d="M152.304 67.7194V16.5858L102.952 16.5858V67.7194H152.304Z" fill="#FAFAFA"/>
<path d="M141.102 67.7193L122.066 16.582H113.075L132.116 67.7193H141.102Z" fill="white"/>
<path d="M130.184 67.7193L111.147 16.582H107.644L126.68 67.7193H130.184Z" fill="white"/>
<path d="M103.368 67.7194V16.5858H102.955V67.7194H103.368Z" fill="#E6E6E6"/>
<g opacity="0.6">
<path opacity="0.6" d="M115.78 62.6262H97.1962L98.2523 10.4327H116.836L115.78 62.6262Z" fill="#F0F0F0"/>
<path opacity="0.6" d="M123.019 62.6262H108.542L109.598 10.4327H124.075L123.019 62.6262Z" fill="#E6E6E6"/>
<path opacity="0.6" d="M134.364 62.6262H115.78L116.836 10.4327H135.42L134.364 62.6262Z" fill="#F0F0F0"/>
<path opacity="0.6" d="M141.603 62.6262H127.126L128.182 10.4328L142.659 10.4291L141.603 62.6262Z" fill="#E6E6E6"/>
<path opacity="0.6" d="M152.948 62.6262H134.364L135.42 10.4328L154.004 10.4291L152.948 62.6262Z" fill="#F0F0F0"/>
</g>
<path d="M81.1918 62.9428V7.49622L31.5118 7.49622V62.9428H81.1918Z" fill="#EBEBEB"/>
<path d="M81.6408 62.9428V7.49622H81.1918V62.9428H81.6408Z" fill="#E0E0E0"/>
<path d="M35.1955 59.259L77.5155 59.259V11.1725L35.1955 11.1725L35.1955 59.259Z" fill="#F5F5F5"/>
<path d="M57.9158 60.8562H69.8354V44.1748H57.9158V60.8562Z" fill="white"/>
<path d="M43.5786 62.3134H55.4944L56.3518 45.6283H44.436L43.5786 62.3134Z" fill="white"/>
<path d="M33.1973 41.6539H45.1131L45.9705 24.9688H34.0547L33.1973 41.6539Z" fill="white"/>
<path d="M69.6655 26.4493L78.831 26.8511L79.3933 14.0239L70.2278 13.6221L69.6655 26.4493Z" fill="white"/>
<path d="M33.1974 21.2962L42.3628 21.698L42.9251 8.8708L33.7597 8.46902L33.1974 21.2962Z" fill="white"/>
<path d="M79.2023 28.8623L70.0289 28.7406L69.8586 41.579L79.032 41.7007L79.2023 28.8623Z" fill="white"/>
<path d="M48.5979 41.0072L68.0275 40.4441L67.2393 13.2456L47.8097 13.8087L48.5979 41.0072Z" fill="white"/>
<path d="M43.413 120.483V69.552H22.9853L22.9853 120.483H43.413Z" fill="#F0F0F0"/>
<path d="M42.2906 85.8213V70.829H24.104V85.8213H42.2906Z" fill="#E6E6E6"/>
<path d="M42.2906 102.161V87.1682H24.104V102.161H42.2906Z" fill="#E6E6E6"/>
<path d="M42.2906 118.5V103.507H24.104V118.5H42.2906Z" fill="#E6E6E6"/>
<path d="M31.2579 85.8213V70.829H24.104V85.8213H31.2579Z" fill="#E0E0E0"/>
<path d="M31.2579 102.161V87.1682H24.104V102.161H31.2579Z" fill="#E0E0E0"/>
<path d="M31.2542 118.5V103.507H24.1003V118.5H31.2542Z" fill="#E0E0E0"/>
<path d="M48.9587 120.483V69.552H43.4129V120.483H48.9587Z" fill="#F5F5F5"/>
<path d="M65.2538 120.483V69.552H44.8261V120.483H65.2538Z" fill="#F0F0F0"/>
<path d="M64.1313 85.8213V70.829H45.9448V85.8213H64.1313Z" fill="#E6E6E6"/>
<path d="M64.1313 102.161V87.1682H45.9448V102.161H64.1313Z" fill="#E6E6E6"/>
<path d="M64.135 118.496V103.504H45.9485V118.496H64.135Z" fill="#E6E6E6"/>
<path d="M53.0987 85.8213V70.829H45.9448V85.8213H53.0987Z" fill="#E0E0E0"/>
<path d="M53.0987 102.161V87.1682H45.9448V102.161H53.0987Z" fill="#E0E0E0"/>
<path d="M53.095 118.5V103.507H45.9411V118.5H53.095Z" fill="#E0E0E0"/>
<path d="M70.7995 120.483V69.552H65.2538V120.483H70.7995Z" fill="#F5F5F5"/>
<path d="M39.008 99.2128C39.008 100.839 36.903 102.157 34.3086 102.157C31.7142 102.157 29.624 100.832 29.624 99.2128H39.008Z" fill="#F0F0F0"/>
<path d="M39.008 97.0122C39.008 98.6388 36.9031 99.9562 34.3087 99.9562C31.7143 99.9562 29.613 98.6388 29.613 97.0122H39.008Z" fill="#F0F0F0"/>
<path d="M61.456 82.8773C61.456 84.5039 58.8248 85.8213 55.568 85.8213C52.3112 85.8213 49.68 84.5039 49.68 82.8773H61.456Z" fill="#FAFAFA"/>
<path d="M61.456 80.673C61.456 82.2995 58.8248 83.617 55.568 83.617C52.3112 83.617 49.68 82.2959 49.68 80.673H61.456Z" fill="#FAFAFA"/>
<path d="M47.1813 118.496H61.9491V105.664H47.1813V118.496Z" fill="#F0F0F0"/>
<path d="M64.1314 105.667H61.9454V118.5H64.1314V105.667Z" fill="#E0E0E0"/>
<path d="M25.3405 85.8213H40.1083V72.9891H25.3405V85.8213Z" fill="#F0F0F0"/>
<path d="M42.2906 72.9891H40.1046V85.8213H42.2906V72.9891Z" fill="#E0E0E0"/>
<path d="M98.4842 120.483H101.351V93.5235H98.4842V120.483Z" fill="#E6E6E6"/>
<path d="M97.7151 120.483H99.4042V93.5235H97.7151V120.483Z" fill="#F0F0F0"/>
<path d="M137.886 93.5236H97.1962V96.508H137.886V93.5236Z" fill="#F0F0F0"/>
<path d="M156.08 120.483H158.947V93.5235H156.08V120.483Z" fill="#E6E6E6"/>
<path d="M155.543 120.483H157.232V93.5235H155.543V120.483Z" fill="#F0F0F0"/>
<path d="M159.458 93.5236H139.111V96.508H159.458V93.5236Z" fill="#E6E6E6"/>
<path d="M138.129 120.483H140.996V93.5235H138.129V120.483Z" fill="#E6E6E6"/>
<path d="M137.363 120.483H139.052V93.5235H137.363V120.483Z" fill="#F0F0F0"/>
<path d="M92 137.102C131.406 137.102 163.352 135.237 163.352 132.936C163.352 130.636 131.406 128.771 92 128.771C52.5936 128.771 20.6485 130.636 20.6485 132.936C20.6485 135.237 52.5936 137.102 92 137.102Z" fill="#F5F5F5"/>
<path d="M109.962 129.035L104.759 128.432V98.5835H100.298V128.432L95.0949 129.035L94.6422 130.515H110.415L109.962 129.035Z" fill="#263238"/>
<path opacity="0.4" d="M109.962 129.035L104.759 128.432V98.5835H100.298V128.432L95.0949 129.035L94.6422 130.515H110.415L109.962 129.035Z" fill="#D5663F"/>
<path d="M101.2 58.42H124.384C120.458 70.6885 118.44 83.4871 118.4 96.3682H95.2163C95.2562 83.4871 97.2743 70.6885 101.2 58.42Z" fill="#D5663F"/>
<path opacity="0.3" d="M101.2 58.42H124.384C120.458 70.6885 118.44 83.4871 118.4 96.3682H95.2163C95.2562 83.4871 97.2743 70.6885 101.2 58.42Z" fill="black"/>
<path d="M99.7906 58.42H122.975C119.048 70.6883 117.028 83.4869 116.987 96.3682H93.8032C93.8425 83.4867 95.8619 70.6879 99.7906 58.42Z" fill="#D5663F"/>
<path d="M113.075 99.9304H80.2571C81.6371 96.9275 84.1469 95.0875 86.8554 95.0875H110.853L113.075 99.9304Z" fill="#D5663F"/>
<path d="M119.744 99.9304H103.897C105.274 96.9275 107.784 95.0875 110.496 95.0875H116.104C118.812 95.0875 120.152 96.6515 119.744 99.9304Z" fill="#D5663F"/>
<path opacity="0.3" d="M119.744 99.9304H103.897C105.274 96.9275 107.784 95.0875 110.496 95.0875H116.104C118.812 95.0875 120.152 96.6515 119.744 99.9304Z" fill="black"/>
<path d="M87.3816 127.442L84.4118 127.832L82.4798 121.105L85.4496 120.715L87.3816 127.442Z" fill="#FFC3BD"/>
<path d="M84.0402 127.056L87.3522 126.618C87.4076 126.609 87.4643 126.622 87.5103 126.654C87.5563 126.687 87.588 126.736 87.5987 126.791L88.1066 129.407C88.1255 129.546 88.0889 129.686 88.0048 129.798C87.9207 129.909 87.7959 129.983 87.6576 130.003C86.4947 130.136 85.9317 130.139 84.467 130.335C83.5654 130.452 80.4632 130.883 79.2083 130.89C77.9534 130.898 78.016 129.657 78.5312 129.536C80.9122 129.021 82.8 128.064 83.5507 127.302C83.6822 127.168 83.8543 127.082 84.0402 127.056Z" fill="#263238"/>
<path opacity="0.2" d="M85.4496 120.719L82.4798 121.109L83.4771 124.575L86.4469 124.185L85.4496 120.719Z" fill="black"/>
<path d="M97.1226 84.3088C97.1226 84.3088 73.8466 85.9759 74.785 94.5024C76.1355 106.761 81.409 122.857 81.409 122.857L86.8075 121.929C86.8075 121.929 84.548 107.088 83.3483 97.52C89.1554 95.1133 104.906 97.4207 106.753 92.4048C107.659 89.807 107.898 87.0232 107.449 84.3088H97.1226Z" fill="#263238"/>
<path opacity="0.3" d="M85.7808 91.4075C85.7808 91.4075 86.3475 93.943 86.7339 96.6956H86.6824L86.0862 96.7876L85.7808 96.8465L85.4386 96.9091C84.9711 97.0071 84.5093 97.13 84.0549 97.2771L83.7421 97.3801C83.6059 97.4243 83.4734 97.4795 83.3483 97.531C83.4845 98.635 83.9555 100.074 83.9592 101.332C78.7814 95.2089 83.0502 91.4075 85.7808 91.4075Z" fill="black"/>
<path d="M87.6539 123.155L81.3206 123.986L80.4669 121.709L86.8075 120.288L87.6539 123.155Z" fill="#D5663F"/>
<path d="M83.0539 127.696C83.3195 127.654 83.5798 127.584 83.8304 127.486C83.843 127.482 83.8541 127.474 83.8625 127.463C83.8709 127.453 83.8764 127.441 83.8783 127.427C83.8788 127.414 83.8753 127.4 83.8681 127.388C83.8609 127.376 83.8503 127.367 83.8378 127.361C83.7347 127.306 82.8221 126.842 82.4762 127.034C82.4374 127.056 82.4047 127.087 82.381 127.125C82.3572 127.163 82.3432 127.206 82.34 127.251C82.3257 127.319 82.3309 127.389 82.355 127.454C82.3791 127.519 82.4211 127.576 82.4762 127.619C82.6525 127.715 82.8584 127.743 83.0539 127.696ZM83.628 127.413C83.1128 127.586 82.7191 127.622 82.5608 127.501C82.527 127.472 82.5016 127.435 82.4874 127.392C82.4731 127.35 82.4705 127.305 82.4799 127.262C82.4801 127.24 82.4861 127.219 82.497 127.2C82.508 127.181 82.5236 127.166 82.5424 127.155C82.7301 127.067 83.2563 127.251 83.628 127.427V127.413Z" fill="#D5663F"/>
<path d="M83.8157 127.505C83.8251 127.508 83.8356 127.508 83.8451 127.505C83.8554 127.498 83.8639 127.489 83.8697 127.478C83.8755 127.467 83.8784 127.454 83.8782 127.442C83.8782 127.409 83.8304 126.544 83.4918 126.298C83.4493 126.264 83.3994 126.241 83.3463 126.231C83.2931 126.221 83.2383 126.223 83.1864 126.239C83.1272 126.248 83.073 126.277 83.0323 126.321C82.9917 126.366 82.9669 126.422 82.9619 126.482C82.9362 126.813 83.4624 127.376 83.7789 127.512C83.7916 127.513 83.8044 127.511 83.8157 127.505ZM83.2526 126.356C83.3086 126.349 83.3652 126.364 83.4109 126.397C83.6108 126.661 83.7216 126.982 83.7274 127.313C83.4403 127.129 83.0834 126.699 83.1018 126.482C83.1018 126.437 83.1201 126.386 83.2195 126.364L83.2526 126.356Z" fill="#D5663F"/>
<path d="M100.346 61.2904C100.089 62.4459 99.7758 63.5204 99.463 64.6244C99.1502 65.7284 98.7969 66.8067 98.4142 67.8849C98.0315 68.9632 97.6304 70.0414 97.1925 71.1123C96.7545 72.1832 96.2651 73.2393 95.7389 74.2881L95.6432 74.4758L95.6064 74.531C95.2874 74.9838 94.8943 75.3794 94.4435 75.7012C94.0977 75.9528 93.735 76.1803 93.3579 76.382C92.6829 76.7322 91.983 77.0324 91.264 77.28C90.5685 77.5228 89.8729 77.7252 89.1774 77.8982C88.4773 78.0723 87.7685 78.2099 87.0541 78.3104L86.3659 76.176L88.1139 75.1971C88.6917 74.8659 89.2621 74.5384 89.8067 74.1998C90.3327 73.8826 90.8413 73.5375 91.3302 73.1657C91.5391 73.0104 91.7348 72.8381 91.9153 72.6505C92.0662 72.4923 92.1766 72.3377 92.1545 72.323L92.0221 72.5659C92.4232 71.587 92.7912 70.5824 93.1481 69.5667C93.5051 68.551 93.8289 67.5206 94.1491 66.4792C94.4693 65.4377 94.7747 64.3963 95.0728 63.3475C95.3709 62.2987 95.6616 61.2315 95.9376 60.2195L100.346 61.2904Z" fill="#FFC3BD"/>
<path d="M95.4813 60.4918C93.0488 63.2849 91.4333 67.193 91.4333 67.193L97.7997 71.0239C99.6397 68.7828 101.929 62.8617 102.021 60.8634C102.164 57.7943 98.1014 57.4852 95.4813 60.4918Z" fill="#D5663F"/>
<path opacity="0.5" d="M95.4813 60.4918C93.0488 63.2849 91.4333 67.193 91.4333 67.193L97.7997 71.0239C99.6397 68.7828 101.929 62.8617 102.021 60.8634C102.164 57.7943 98.1014 57.4852 95.4813 60.4918Z" fill="white"/>
<path opacity="0.5" d="M97.7224 63.3401C96.335 64.5067 95.3488 66.9318 94.9182 69.287L97.7997 71.0203C98.7086 69.9163 99.728 67.9107 100.538 65.9161C99.8899 63.94 98.9478 62.3097 97.7224 63.3401Z" fill="#D5663F"/>
<path d="M96.8245 129.234H93.8326L92.46 122.305H95.4518L96.8245 129.234Z" fill="#FFC3BD"/>
<path d="M93.7369 128.506H97.1005C97.1565 128.504 97.211 128.524 97.2523 128.562C97.2936 128.599 97.3184 128.652 97.3213 128.708L97.4832 131.369C97.4842 131.509 97.4298 131.643 97.3319 131.743C97.234 131.843 97.1005 131.9 96.9606 131.902C95.7904 131.88 95.231 131.814 93.7517 131.814C92.8427 131.814 89.7589 131.906 88.504 131.906C87.2491 131.906 87.2822 130.666 87.8158 130.552C90.2005 130.048 92.379 129.352 93.2218 128.69C93.3682 128.573 93.5495 128.508 93.7369 128.506Z" fill="#263238"/>
<path opacity="0.2" d="M95.4518 122.305H92.46L93.1702 125.878H96.1621L95.4518 122.305Z" fill="black"/>
<path d="M102.985 84.3088C102.985 84.3088 83.26 85.9759 83.7458 94.5429C84.2757 103.923 91.8712 125.017 91.8712 125.017H97.3507C97.3507 125.017 94.8704 105.933 93.6707 96.3792C99.2312 96.3792 110.768 97.428 112.615 92.4122C113.518 89.8613 113.7 87.111 113.142 84.4634L102.985 84.3088Z" fill="#263238"/>
<path d="M97.6635 125.102L91.091 125.4L90.5832 122.577L97.4611 122.599L97.6635 125.102Z" fill="#D5663F"/>
<path d="M92.6771 129.028C92.9463 129.02 93.2139 128.984 93.4757 128.921C93.4887 128.918 93.5004 128.911 93.5095 128.901C93.5187 128.892 93.5248 128.879 93.5272 128.866C93.53 128.853 93.5288 128.839 93.5235 128.827C93.5182 128.814 93.5092 128.804 93.4978 128.796C93.4021 128.73 92.5557 128.149 92.1914 128.292C92.1498 128.309 92.1131 128.336 92.0848 128.371C92.0565 128.405 92.0374 128.447 92.0294 128.491C92.0095 128.554 92.0071 128.622 92.0227 128.687C92.0382 128.752 92.0711 128.811 92.1178 128.859C92.2761 128.984 92.476 129.044 92.6771 129.028ZM93.2843 128.818C92.747 128.925 92.3533 128.91 92.2134 128.771C92.1845 128.737 92.1648 128.696 92.1564 128.652C92.148 128.608 92.1512 128.563 92.1656 128.52C92.1689 128.498 92.1778 128.478 92.1913 128.461C92.2048 128.443 92.2226 128.429 92.2429 128.421C92.4379 128.347 92.9347 128.598 93.2843 128.818Z" fill="#D5663F"/>
<path d="M93.472 128.921H93.5014C93.5119 128.916 93.5208 128.908 93.5273 128.899C93.5337 128.889 93.5375 128.878 93.5382 128.866C93.5382 128.829 93.6082 127.968 93.3064 127.678C93.2675 127.641 93.2211 127.612 93.1702 127.595C93.1193 127.578 93.0654 127.572 93.012 127.578C92.9521 127.581 92.8947 127.603 92.8488 127.642C92.8029 127.68 92.771 127.733 92.7581 127.792C92.6918 128.115 93.1261 128.741 93.4352 128.918C93.4468 128.923 93.4596 128.924 93.472 128.921ZM93.0598 127.707C93.0879 127.707 93.1157 127.712 93.1416 127.723C93.1675 127.734 93.191 127.75 93.2107 127.77C93.3766 128.057 93.4463 128.389 93.4094 128.719C93.1482 128.502 92.8501 128.027 92.8942 127.814C92.8942 127.773 92.9274 127.722 93.0304 127.711L93.0598 127.707Z" fill="#D5663F"/>
<path d="M87.7827 76.257L84.4376 75.418L84.6731 78.9949C84.6731 78.9949 87.9851 78.9949 88.2648 78.0197L87.7827 76.257Z" fill="#FFC3BD"/>
<path d="M81.8947 77.1623L82.6822 79.4071L84.6731 78.9949L84.4376 75.418L81.8947 77.1623Z" fill="#FFC3BD"/>
<path d="M97.152 84.4634H113.153C113.267 83.0356 112.936 78.384 113.182 72.4629C113.334 68.0754 113.866 63.7093 114.772 59.4136C114.845 59.0898 114.919 58.7733 114.996 58.4495C114.996 58.4495 114.183 58.2839 113.02 58.1146C112.056 57.9711 110.845 57.8276 109.66 57.7724C107.395 57.6416 105.125 57.6416 102.86 57.7724C101.815 57.868 100.792 58.041 99.9782 58.1992C98.9368 58.409 98.3222 58.5893 98.3222 58.5893C98.3222 58.5893 94.3699 67.6384 97.152 84.4634Z" fill="#D5663F"/>
<path opacity="0.5" d="M97.152 84.4634H113.153C113.267 83.0356 112.936 78.384 113.182 72.4629C113.334 68.0754 113.866 63.7093 114.772 59.4136C114.845 59.0898 114.919 58.7733 114.996 58.4495C114.996 58.4495 114.183 58.2839 113.02 58.1146C112.056 57.9711 110.845 57.8276 109.66 57.7724C107.395 57.6416 105.125 57.6416 102.86 57.7724C101.815 57.868 100.792 58.041 99.9782 58.1992C98.9368 58.409 98.3222 58.5893 98.3222 58.5893C98.3222 58.5893 94.3699 67.6384 97.152 84.4634Z" fill="white"/>
<path opacity="0.5" d="M113.171 72.4666C113.323 68.0778 113.855 63.7105 114.761 59.4136C113.694 59.3216 111.865 59.4136 111.563 61.1542C111.235 63.0089 111.21 67.344 113.171 72.4666Z" fill="#D5663F"/>
<path d="M116.001 60.5212C116.156 60.8046 116.262 61.018 116.369 61.2572C116.476 61.4964 116.593 61.7356 116.7 61.9932C116.914 62.4716 117.116 62.9537 117.307 63.4395C117.691 64.4183 118.021 65.417 118.297 66.4313C118.582 67.4593 118.802 68.504 118.956 69.5593C119.117 70.6482 119.181 71.7491 119.147 72.8492V72.956V73.1657C119.136 73.3128 119.115 73.4591 119.085 73.6036C119.028 73.8782 118.939 74.145 118.82 74.3985C118.619 74.8213 118.346 75.206 118.014 75.5356C117.52 76.0171 116.952 76.417 116.332 76.7206C115.332 77.2079 114.278 77.5784 113.193 77.8246C112.186 78.0648 111.166 78.2478 110.139 78.3729C109.123 78.5003 108.101 78.5741 107.077 78.5937L106.775 76.3673C108.596 75.8566 110.391 75.2548 112.152 74.5641C112.951 74.2549 113.719 73.8692 114.444 73.4123C114.697 73.2561 114.921 73.0582 115.107 72.8272C115.155 72.7572 115.155 72.7204 115.129 72.7536C115.108 72.7825 115.093 72.8149 115.085 72.8492C115.076 72.8732 115.07 72.8978 115.066 72.9228C115.066 72.9228 115.066 72.9596 115.066 72.9449V72.8676C114.927 71.1051 114.572 69.3662 114.01 67.6899C113.73 66.8263 113.419 65.9676 113.075 65.1139C112.91 64.687 112.733 64.2601 112.549 63.8406L112.266 63.2187L111.997 62.6409L116.001 60.5212Z" fill="#FFC3BD"/>
<path d="M114.985 58.4495C112.071 57.5295 110.201 59.8589 111.011 63.8959C111.82 67.9328 112.851 69.438 112.851 69.438L119.666 68.4738C119.111 64.5141 117.966 59.3916 114.985 58.4495Z" fill="#D5663F"/>
<path opacity="0.5" d="M114.985 58.4495C112.071 57.5295 110.201 59.8589 111.011 63.8959C111.82 67.9328 112.851 69.438 112.851 69.438L119.666 68.4738C119.111 64.5141 117.966 59.3916 114.985 58.4495Z" fill="white"/>
<path d="M109.502 50.1437L107.684 51.6525L105.204 53.728C105.277 54.0581 105.33 54.3924 105.362 54.729C105.495 56.0758 105.149 57.305 103.172 57.765C103.172 57.765 101.226 59.5829 105.116 59.6381C109.005 59.6933 109.9 57.7981 109.9 57.7981C108.431 56.3261 108.998 52.3333 109.502 50.1437Z" fill="#FFC3BD"/>
<path d="M109.635 56.6978C109.635 56.6978 107.603 58.8211 104.924 59.6197C105.405 59.7154 105.84 59.9706 106.157 60.3439C106.475 60.7172 106.658 61.1868 106.676 61.6768C108.6 61.1027 110.886 58.2102 110.823 57.673C110.407 57.3727 110.01 57.047 109.635 56.6978Z" fill="white"/>
<path d="M104.059 57.2976C104.059 57.2976 102.241 58.8211 104.924 59.6197C104.431 59.679 103.968 59.8867 103.596 60.2153C103.224 60.544 102.961 60.9779 102.841 61.4597C102.365 60.9306 102.078 60.2584 102.024 59.5485C101.971 58.8386 102.155 58.1311 102.547 57.5368C103.056 57.4897 103.561 57.4098 104.059 57.2976Z" fill="white"/>
<path opacity="0.2" d="M105.204 53.728C105.277 54.0581 105.33 54.3924 105.362 54.729C106.286 54.545 107.522 53.5587 107.651 52.6167C107.695 52.3034 107.706 51.9864 107.684 51.6709L105.204 53.728Z" fill="black"/>
<path d="M102.83 43.424C101.608 44.436 101.829 48.3515 103.003 47.9908C104.177 47.6302 104.847 41.7606 102.83 43.424Z" fill="#263238"/>
<path d="M110.253 46.9936C109.62 49.9008 109.399 51.6304 107.677 52.9589C107.123 53.3945 106.461 53.6707 105.761 53.7576C105.062 53.8446 104.352 53.7391 103.709 53.4524C103.065 53.1658 102.512 52.7089 102.109 52.131C101.705 51.5532 101.468 50.8762 101.421 50.1731C101.196 47.4647 102.271 43.1627 105.329 42.3384C105.987 42.1432 106.685 42.1245 107.352 42.2839C108.02 42.4434 108.634 42.7755 109.132 43.2471C109.631 43.7186 109.997 44.3129 110.194 44.9705C110.39 45.628 110.411 46.3257 110.253 46.9936Z" fill="#FFC3BD"/>
<path d="M109.296 48.9881C108.825 48.4067 108.792 46.9273 109.127 46.4563C108.623 46.0552 108.118 44.7598 108.508 44.2483C107.522 44.1821 102.418 45.4075 101.402 41.7422C101.931 41.8323 102.471 41.8323 103 41.7422C103 41.7422 101.962 40.0163 103.802 39.5011C104.07 40.3733 106.289 40.4616 107.39 40.4211C109.646 40.3291 112.218 41.2675 111.176 43.0192C112.825 43.7441 113.094 46.9457 109.296 48.9881Z" fill="#263238"/>
<path d="M110.768 42.9088C110.768 42.9088 111.894 43.1443 111.677 41.7091C112.608 42.4966 112.012 43.9355 110.768 42.9088Z" fill="#263238"/>
<path d="M110.728 49.68C110.333 50.1927 109.765 50.5434 109.13 50.6663C108.306 50.8135 108.056 50.0554 108.42 49.3231C108.748 48.6607 109.572 47.7885 110.33 47.9762C111.088 48.1639 111.217 49.0471 110.728 49.68Z" fill="#FFC3BD"/>
<path d="M109.031 47.9614C108.725 49.0325 108.226 50.0389 107.559 50.9312C107.212 51.391 106.755 51.7568 106.231 51.9953C105.707 52.2337 105.131 52.3373 104.556 52.2965C103.5 52.2781 103.662 50.8245 103.662 50.8245L103.143 50.7067C103.143 50.7067 103.198 52.5062 102.168 51.7445C101.893 51.4255 101.696 51.0478 101.59 50.6405C101.483 50.322 101.421 49.99 101.406 49.6542C101.156 50.0517 101.064 51.8144 101.447 52.6534C101.809 53.2832 102.399 53.7496 103.095 53.9561C104.367 54.3169 105.72 54.2693 106.963 53.82C108.84 53.084 109.112 51.2734 109.171 50.243C109.241 49.4799 109.364 48.7224 109.539 47.9761L109.031 47.9614Z" fill="#263238"/>
<path d="M105.27 47.2585C105.233 47.4977 105.079 47.6744 104.92 47.656C104.762 47.6376 104.667 47.4278 104.703 47.1923C104.74 46.9568 104.898 46.7728 105.071 46.7912C105.244 46.8096 105.307 47.0193 105.27 47.2585Z" fill="#263238"/>
<path d="M102.562 46.9347C102.525 47.1739 102.37 47.3542 102.212 47.3358C102.054 47.3174 101.958 47.1077 101.995 46.8685C102.032 46.6293 102.19 46.4526 102.344 46.471C102.499 46.4894 102.598 46.6955 102.562 46.9347Z" fill="#263238"/>
<path d="M103.408 47.0304C103.107 47.6461 102.726 48.219 102.275 48.7342C102.408 48.8416 102.564 48.918 102.731 48.9581C102.897 48.9982 103.071 49.0009 103.239 48.9661L103.408 47.0304Z" fill="#ED847E"/>
<path d="M103.224 50.1436C103.501 50.1861 103.784 50.1718 104.055 50.1015C104.327 50.0313 104.581 49.9067 104.803 49.7351C104.81 49.7291 104.815 49.7217 104.82 49.7135C104.824 49.7052 104.826 49.6962 104.827 49.687C104.828 49.6778 104.827 49.6685 104.824 49.6597C104.821 49.6509 104.816 49.6428 104.81 49.6358C104.804 49.6288 104.797 49.623 104.788 49.6189C104.78 49.6147 104.771 49.6122 104.762 49.6115C104.753 49.6108 104.743 49.612 104.735 49.6149C104.726 49.6178 104.718 49.6224 104.711 49.6284C104.467 49.811 104.185 49.9352 103.885 49.9913C103.586 50.0475 103.278 50.0341 102.985 49.9523C102.976 49.9501 102.967 49.9497 102.957 49.9511C102.948 49.9525 102.94 49.9556 102.932 49.9604C102.924 49.9652 102.917 49.9715 102.912 49.979C102.906 49.9864 102.902 49.9948 102.9 50.0038C102.897 50.0125 102.896 50.0217 102.897 50.0307C102.898 50.0398 102.901 50.0486 102.906 50.0566C102.91 50.0645 102.916 50.0714 102.923 50.0769C102.931 50.0824 102.939 50.0863 102.948 50.0884C103.039 50.1132 103.131 50.1316 103.224 50.1436Z" fill="#263238"/>
<path d="M106.808 45.7791C106.832 45.7748 106.854 45.7632 106.871 45.746C106.884 45.733 106.894 45.7175 106.902 45.7005C106.909 45.6834 106.912 45.6651 106.912 45.6467C106.912 45.6282 106.909 45.6099 106.902 45.5928C106.894 45.5758 106.884 45.5603 106.871 45.5473C106.727 45.3774 106.543 45.2458 106.335 45.1642C106.128 45.0827 105.904 45.0537 105.682 45.0799C105.664 45.0826 105.646 45.089 105.63 45.0986C105.614 45.1082 105.6 45.121 105.589 45.1361C105.578 45.1512 105.57 45.1683 105.566 45.1865C105.562 45.2046 105.561 45.2235 105.564 45.2419C105.572 45.2788 105.593 45.3114 105.624 45.3327C105.655 45.3541 105.693 45.3624 105.73 45.3559C105.903 45.3396 106.078 45.3644 106.24 45.4283C106.401 45.4923 106.546 45.5936 106.661 45.7239C106.677 45.7472 106.7 45.765 106.726 45.7749C106.752 45.7848 106.781 45.7863 106.808 45.7791Z" fill="#263238"/>
<path d="M101.671 45.1977C101.693 45.2054 101.716 45.207 101.739 45.2025C101.762 45.1979 101.783 45.1874 101.8 45.1719C101.935 45.0516 102.097 44.9643 102.272 44.9171C102.447 44.8698 102.63 44.8638 102.808 44.8996C102.845 44.9088 102.883 44.9037 102.916 44.8852C102.949 44.8667 102.974 44.8363 102.985 44.8003C102.995 44.7637 102.99 44.7245 102.972 44.6914C102.953 44.6583 102.922 44.6339 102.885 44.6236C102.663 44.5775 102.433 44.5834 102.214 44.6408C101.994 44.6983 101.791 44.8058 101.62 44.9548C101.605 44.9663 101.592 44.9806 101.583 44.997C101.574 45.0134 101.569 45.0315 101.567 45.0502C101.565 45.0688 101.567 45.0876 101.573 45.1054C101.579 45.1232 101.589 45.1396 101.601 45.1535C101.62 45.1748 101.644 45.1902 101.671 45.1977Z" fill="#263238"/>
<path d="M107.338 76.2349H104.575L105.914 79.1789C105.914 79.1789 108.63 79.1384 108.49 77.74L107.338 76.2349Z" fill="#FFC3BD"/>
<path d="M101.94 78.1301L103.356 80.04L105.914 79.1752L104.575 76.2312L101.94 78.1301Z" fill="#FFC3BD"/>
<path d="M127.825 132.44H129.168V81.1919H127.825V132.44Z" fill="#D5663F"/>
<path d="M135.759 132.44H137.102V81.1919H135.759V132.44Z" fill="#D5663F"/>
<path opacity="0.2" d="M135.759 132.44H137.102V81.1919H135.759V132.44Z" fill="black"/>
<path d="M51.5016 132.44H52.8448L52.8448 81.1919H51.5016L51.5016 132.44Z" fill="#D5663F"/>
<path opacity="0.2" d="M51.5016 81.1919H52.8448V115.626L51.5016 112.619V81.1919Z" fill="black"/>
<path d="M43.5712 132.44H44.9144L44.9144 81.1919H43.5712L43.5712 132.44Z" fill="#D5663F"/>
<path d="M43.5712 111.169L129.172 111.169V81.1919L43.5712 81.1919V111.169Z" fill="#D5663F"/>
<path d="M42.7138 81.1919L129.172 81.1919V79.0023L42.7138 79.0023V81.1919Z" fill="#D5663F"/>
<path d="M137.098 81.1919H129.168V111.169H137.098V81.1919Z" fill="#D5663F"/>
<path opacity="0.2" d="M137.098 81.1919H129.168V111.169H137.098V81.1919Z" fill="black"/>
<path d="M137.956 79.006H129.168V81.1956H137.956V79.006Z" fill="#D5663F"/>
<path opacity="0.2" d="M137.956 79.006H129.168V81.1956H137.956V79.006Z" fill="black"/>
<path opacity="0.2" d="M43.5712 82.7191L137.102 82.7191V81.1956L43.5712 81.1956V82.7191Z" fill="black"/>
<path d="M97.1078 73.1216H65.2942C64.7019 73.1141 64.1345 72.882 63.7069 72.472C63.2792 72.0621 63.0232 71.5051 62.9906 70.9136L62.1515 52.4253C62.136 52.1403 62.1789 51.855 62.2776 51.5872C62.3763 51.3193 62.5287 51.0745 62.7255 50.8677C62.9223 50.6609 63.1593 50.4965 63.4219 50.3847C63.6846 50.2728 63.9673 50.2159 64.2528 50.2173H96.0664C96.6581 50.2257 97.2246 50.4583 97.6515 50.8681C98.0783 51.2779 98.3338 51.8345 98.3664 52.4253L99.2091 70.9136C99.2252 71.1988 99.1827 71.4842 99.0842 71.7523C98.9857 72.0204 98.8333 72.2655 98.6364 72.4724C98.4395 72.6793 98.2022 72.8437 97.9393 72.9553C97.6764 73.067 97.3935 73.1236 97.1078 73.1216Z" fill="#D5663F"/>
<path d="M96.681 73.1216H64.8674C64.275 73.1141 63.7076 72.882 63.28 72.472C62.8523 72.0621 62.5963 71.5051 62.5637 70.9136L61.7246 52.4253C61.7091 52.1403 61.752 51.855 61.8507 51.5872C61.9494 51.3193 62.1018 51.0745 62.2986 50.8677C62.4954 50.6609 62.7324 50.4965 62.9951 50.3847C63.2577 50.2728 63.5405 50.2159 63.8259 50.2173H95.6395C96.2312 50.2257 96.7977 50.4583 97.2246 50.8681C97.6515 51.2779 97.907 51.8345 97.9395 52.4253L98.7822 70.9136C98.7983 71.1988 98.7558 71.4842 98.6573 71.7523C98.5588 72.0204 98.4064 72.2655 98.2095 72.4724C98.0126 72.6793 97.7754 72.8437 97.5125 72.9553C97.2496 73.067 96.9666 73.1236 96.681 73.1216Z" fill="#D5663F"/>
<path opacity="0.2" d="M96.681 73.1216H64.8674C64.275 73.1141 63.7076 72.882 63.28 72.472C62.8523 72.0621 62.5963 71.5051 62.5637 70.9136L61.7246 52.4253C61.7091 52.1403 61.752 51.855 61.8507 51.5872C61.9494 51.3193 62.1018 51.0745 62.2986 50.8677C62.4954 50.6609 62.7324 50.4965 62.9951 50.3847C63.2577 50.2728 63.5405 50.2159 63.8259 50.2173H95.6395C96.2312 50.2257 96.7977 50.4583 97.2246 50.8681C97.6515 51.2779 97.907 51.8345 97.9395 52.4253L98.7822 70.9136C98.7983 71.1988 98.7558 71.4842 98.6573 71.7523C98.5588 72.0204 98.4064 72.2655 98.2095 72.4724C98.0126 72.6793 97.7754 72.8437 97.5125 72.9553C97.2496 73.067 96.9666 73.1236 96.681 73.1216Z" fill="white"/>
<path d="M83.6317 61.9491H77.556V73.1216H83.6317V61.9491Z" fill="#D5663F"/>
<path d="M77.3646 60.7568L74.6819 78.9986H81.2544L83.9371 60.7568H77.3646ZM81.225 66.5528L80.7907 69.4968C80.7589 69.7153 80.6496 69.9151 80.4827 70.0597C80.3159 70.2043 80.1026 70.284 79.8818 70.2844H78.8918C78.7595 70.2841 78.6287 70.2555 78.5084 70.2003C78.388 70.1451 78.281 70.0648 78.1944 69.9646C78.1079 69.8644 78.0439 69.7469 78.0067 69.6198C77.9696 69.4927 77.9602 69.3592 77.9792 69.2282L78.4134 66.2842C78.4452 66.0657 78.5545 65.8659 78.7214 65.7213C78.8883 65.5768 79.1016 65.497 79.3224 65.4967H80.3123C80.4447 65.4969 80.5755 65.5255 80.6958 65.5807C80.8161 65.6359 80.9232 65.7163 81.0097 65.8164C81.0963 65.9166 81.1603 66.0342 81.1974 66.1612C81.2345 66.2883 81.2439 66.4218 81.225 66.5528Z" fill="#D5663F"/>
<path opacity="0.2" d="M77.3646 60.7568L74.6819 78.9986H81.2544L83.9371 60.7568H77.3646ZM81.225 66.5528L80.7907 69.4968C80.7589 69.7153 80.6496 69.9151 80.4827 70.0597C80.3159 70.2043 80.1026 70.284 79.8818 70.2844H78.8918C78.7595 70.2841 78.6287 70.2555 78.5084 70.2003C78.388 70.1451 78.281 70.0648 78.1944 69.9646C78.1079 69.8644 78.0439 69.7469 78.0067 69.6198C77.9696 69.4927 77.9602 69.3592 77.9792 69.2282L78.4134 66.2842C78.4452 66.0657 78.5545 65.8659 78.7214 65.7213C78.8883 65.5768 79.1016 65.497 79.3224 65.4967H80.3123C80.4447 65.4969 80.5755 65.5255 80.6958 65.5807C80.8161 65.6359 80.9232 65.7163 81.0097 65.8164C81.0963 65.9166 81.1603 66.0342 81.1974 66.1612C81.2345 66.2883 81.2439 66.4218 81.225 66.5528Z" fill="white"/>
<path d="M85.0007 77.6664H73.497L72.0839 79.0059H88.0587L85.0007 77.6664Z" fill="#D5663F"/>
<path opacity="0.2" d="M85.0007 77.6664H73.497L72.0839 79.0059H88.0587L85.0007 77.6664Z" fill="white"/>
<path d="M51.0269 74.9138C50.3792 74.5458 50.6 71.0057 50.8834 68.9817C51.2293 66.5345 52.2597 62.2031 55.5349 59.8038C57.0952 58.6593 58.5856 57.6878 58.8469 56.455C59.3253 57.559 62.0448 65.3753 58.1661 68.8897C54.8835 71.8594 52.4511 71.197 51.0269 74.9138Z" fill="#D5663F"/>
<g opacity="0.2">
<path opacity="0.2" d="M51.0269 74.9138C50.3792 74.5458 50.6 71.0057 50.8834 68.9817C51.2293 66.5345 52.2597 62.2031 55.5349 59.8038C57.0952 58.6593 58.5856 57.6878 58.8469 56.455C59.3253 57.559 62.0448 65.3753 58.1661 68.8897C54.8835 71.8594 52.4511 71.197 51.0269 74.9138Z" fill="black"/>
</g>
<path d="M51.888 72.9045C52.6424 72.4813 51.7776 68.356 51.0858 66.0081C50.2504 63.1672 48.2411 58.1477 43.7258 55.4024C41.584 54.096 39.549 52.992 39.008 51.5531C38.5885 52.8301 37.2416 62.8875 42.688 66.9208C47.3138 70.3321 49.4776 68.6062 51.888 72.9045Z" fill="#D5663F"/>
<path d="M51.52 71.9846C51.4979 71.9841 51.4764 71.9768 51.4586 71.9636C51.4408 71.9504 51.4275 71.932 51.4207 71.911C50.3037 68.434 48.8903 65.0593 47.196 61.8241C44.436 56.3961 40.7229 55.5129 40.6861 55.5055C40.6732 55.5025 40.6611 55.497 40.6504 55.4892C40.6397 55.4814 40.6306 55.4716 40.6238 55.4603C40.6169 55.449 40.6124 55.4364 40.6104 55.4233C40.6085 55.4102 40.6092 55.3969 40.6125 55.3841C40.6151 55.3713 40.6203 55.3591 40.6276 55.3483C40.635 55.3374 40.6444 55.3282 40.6553 55.321C40.6663 55.3138 40.6785 55.3089 40.6914 55.3064C40.7042 55.304 40.7174 55.3041 40.7303 55.3068C40.7707 55.3068 44.5685 56.2121 47.3763 61.7358C49.0709 64.9831 50.4831 68.3701 51.5973 71.8595C51.6042 71.8853 51.6007 71.9128 51.5877 71.9362C51.5746 71.9595 51.553 71.9769 51.5274 71.9846H51.52Z" fill="white"/>
<path d="M39.7808 59.0677C39.768 59.0683 39.7552 59.0664 39.7432 59.062C39.7312 59.0575 39.7202 59.0507 39.7109 59.042C39.6922 59.0228 39.6818 58.997 39.6818 58.9702C39.6818 58.9434 39.6922 58.9177 39.7109 58.8985C40.392 58.2471 41.2593 57.8243 42.192 57.6891C43.1247 57.5539 44.0764 57.7129 44.9144 58.1441C44.9263 58.1495 44.9369 58.1574 44.9457 58.1671C44.9544 58.1769 44.9611 58.1883 44.9652 58.2007C44.9693 58.2132 44.9709 58.2263 44.9697 58.2393C44.9686 58.2524 44.9648 58.265 44.9586 58.2765C44.9535 58.2888 44.9459 58.2998 44.9363 58.3089C44.9267 58.318 44.9153 58.325 44.9028 58.3295C44.8904 58.334 44.8771 58.3359 44.8639 58.335C44.8507 58.3341 44.8378 58.3305 44.8261 58.3244C44.0239 57.9143 43.1137 57.7648 42.2225 57.8967C41.3312 58.0287 40.5034 58.4355 39.8544 59.0604C39.8315 59.0712 39.8055 59.0738 39.7808 59.0677Z" fill="white"/>
<path d="M43.6706 65.7837C43.6537 65.7886 43.6359 65.7886 43.619 65.7837C43.6076 65.7772 43.5976 65.7685 43.5896 65.7581C43.5816 65.7478 43.5757 65.7359 43.5723 65.7232C43.5689 65.7106 43.568 65.6974 43.5697 65.6844C43.5714 65.6714 43.5757 65.6588 43.5822 65.6475C43.5822 65.6144 45.4222 62.5784 48.1197 63.3217C48.1453 63.3294 48.1669 63.3468 48.18 63.3702C48.193 63.3935 48.1965 63.421 48.1896 63.4469C48.1819 63.4725 48.1645 63.4941 48.1412 63.5071C48.1178 63.5202 48.0903 63.5236 48.0645 63.5168C45.5216 62.8139 43.7736 65.7248 43.7589 65.7505C43.7477 65.7625 43.7339 65.7716 43.7186 65.7774C43.7033 65.7831 43.6868 65.7853 43.6706 65.7837Z" fill="white"/>
<path d="M46.5888 60.6244C46.5667 60.624 46.5452 60.6167 46.5274 60.6035C46.5096 60.5903 46.4963 60.5719 46.4895 60.5508C46.3962 60.2021 46.4302 59.8317 46.5851 59.5057C46.6439 59.4134 46.7214 59.3345 46.8127 59.2743C46.9041 59.214 47.0071 59.1737 47.1151 59.1561C47.1279 59.1529 47.1413 59.1523 47.1543 59.1545C47.1674 59.1567 47.1798 59.1616 47.1909 59.1689C47.202 59.1762 47.2114 59.1856 47.2186 59.1967C47.2258 59.2078 47.2307 59.2203 47.2328 59.2334C47.2383 59.2597 47.2333 59.2871 47.2189 59.3098C47.2045 59.3325 47.1817 59.3487 47.1555 59.3548C47.0743 59.3653 46.9964 59.3939 46.9276 59.4385C46.8588 59.4831 46.8009 59.5425 46.7581 59.6124C46.6335 59.8911 46.6075 60.2039 46.6845 60.4993C46.6884 60.5119 46.6896 60.5251 46.6882 60.5382C46.6867 60.5512 46.6826 60.5638 46.676 60.5752C46.6694 60.5866 46.6606 60.5966 46.65 60.6044C46.6395 60.6122 46.6274 60.6178 46.6146 60.6207L46.5888 60.6244Z" fill="white"/>
<path d="M56.8303 71.0204H47.5162L48.3736 78.9949H55.9728L56.8303 71.0204Z" fill="#D5663F"/>
<path opacity="0.7" d="M56.8303 71.0204H47.5162L48.3736 78.9949H55.9728L56.8303 71.0204Z" fill="white"/>
<path d="M130.64 71.76V71.2632C130.64 71.1568 130.598 71.0548 130.523 70.9795C130.447 70.9043 130.345 70.8621 130.239 70.8621H125.289C125.183 70.8621 125.081 70.9043 125.006 70.9795C124.93 71.0548 124.888 71.1568 124.888 71.2632V78.9912H130.64V78.0933C131.891 78.0933 132.874 76.7022 132.874 74.9248C132.874 73.1473 131.895 71.76 130.64 71.76ZM130.64 77.28V72.5769C131.413 72.5769 132.068 73.6589 132.068 74.9395C132.068 76.2201 131.417 77.3021 130.64 77.3021V77.28Z" fill="#D5663F"/>
<path opacity="0.2" d="M130.64 71.76V71.2632C130.64 71.1568 130.598 71.0548 130.523 70.9795C130.447 70.9043 130.345 70.8621 130.239 70.8621H125.289C125.183 70.8621 125.081 70.9043 125.006 70.9795C124.93 71.0548 124.888 71.1568 124.888 71.2632V78.9912H130.64V78.0933C131.891 78.0933 132.874 76.7022 132.874 74.9248C132.874 73.1473 131.895 71.76 130.64 71.76ZM130.64 77.28V72.5769C131.413 72.5769 132.068 73.6589 132.068 74.9395C132.068 76.2201 131.417 77.3021 130.64 77.3021V77.28Z" fill="white"/>
<path opacity="0.3" d="M130.644 72.577H129.989L130.644 74.3913V72.577Z" fill="black"/>
<path opacity="0.3" d="M130.644 78.108H129.989L130.644 78.4098V78.108Z" fill="black"/>
</svg>
