<svg width="184" height="176" viewBox="0 0 184 176" fill="none" xmlns="http://www.w3.org/2000/svg">
<path d="M172.476 54.9753C171.645 41.0933 164.822 26.2266 155.025 16.375C147.018 8.33085 135.434 4.07193 124.107 4.74089C114.53 5.31845 105.152 9.38208 98.3872 16.188C92.512 22.1048 88.7807 29.7542 84.3307 36.8053C79.8806 43.8564 74.2132 50.7247 66.3518 53.5086C58.6899 56.2218 50.251 54.6263 42.1362 55.1706C31.4703 55.8603 21.0411 60.4683 13.5994 68.1385C6.15776 75.8087 1.84483 86.5204 2.25618 97.2238C2.67169 107.998 7.70759 118.215 14.6756 126.442L14.8833 126.691C21.9738 135.135 30.7578 141.997 40.6672 146.833C50.5766 151.668 61.3906 154.37 72.4099 154.763L97.7805 155.652C118.689 159.429 140.893 142.501 154.214 125.948C167.535 109.394 173.768 76.1826 172.476 54.9753Z" fill="#EBEBEB"/>
<path d="M183.96 175.538C183.96 175.6 142.775 175.646 91.9843 175.646C41.1931 175.646 0 175.6 0 175.538C0 175.476 41.1764 175.43 91.9843 175.43C142.792 175.43 183.96 175.48 183.96 175.538Z" fill="#263238"/>
<path d="M66.7798 32.2597L69.5138 70.9847C69.7304 74.0321 71.0941 76.8842 73.3302 78.966C75.5662 81.0479 78.5083 82.2047 81.5634 82.2033C83.2172 82.2036 84.8533 81.8641 86.3705 81.206C87.8876 80.5479 89.2534 79.5852 90.3831 78.3776C91.5129 77.1699 92.3825 75.743 92.9381 74.1854C93.4937 72.6278 93.7234 70.9727 93.613 69.3227C93.3721 65.6371 93.1518 62.6206 93.1518 62.6206C93.1518 62.6206 102.53 61.1622 102.646 51.7884C102.713 46.3868 101.778 34.0879 100.984 24.6768C100.722 21.6079 99.3172 18.7493 97.0481 16.6664C94.7791 14.5836 91.8109 13.4283 88.7309 13.4291H83.0509C80.7344 13.5642 78.4685 14.1627 76.3874 15.1892C74.3062 16.2157 72.4522 17.6493 70.935 19.4051C69.4179 21.1609 68.2684 23.2033 67.5547 25.4113C66.8409 27.6193 66.5774 29.9481 66.7798 32.2597Z" fill="#B78876"/>
<path d="M93.1601 62.5043C93.1601 62.5043 87.2351 62.9862 80.9402 59.0306C80.9402 59.0306 83.8279 65.7784 93.1809 64.935L93.1601 62.5043Z" fill="#D5663F"/>
<path d="M98.0548 36.0242C98.0582 36.3734 97.925 36.7101 97.6836 36.9624C97.4421 37.2148 97.1116 37.3627 96.7626 37.3746C96.5924 37.3881 96.4213 37.3675 96.2593 37.314C96.0972 37.2604 95.9475 37.175 95.819 37.0627C95.6905 36.9504 95.5857 36.8136 95.5108 36.6602C95.436 36.5068 95.3925 36.34 95.3831 36.1696C95.3796 35.8207 95.5121 35.4841 95.7525 35.2312C95.993 34.9784 96.3225 34.8291 96.6712 34.8151C96.8418 34.8015 97.0135 34.8222 97.176 34.876C97.3386 34.9298 97.4887 35.0155 97.6177 35.1282C97.7466 35.2408 97.8517 35.3781 97.9268 35.532C98.0018 35.6859 98.0453 35.8532 98.0548 36.0242Z" fill="#263238"/>
<path d="M99.3512 34.0963C99.185 34.2708 98.1711 33.5229 96.7335 33.527C95.2959 33.5312 94.2405 34.25 94.0784 34.0755C94.0036 33.9965 94.174 33.66 94.6311 33.3442C95.2546 32.9131 95.9962 32.6852 96.7543 32.6919C97.5009 32.6888 98.2288 32.9247 98.8318 33.365C99.2847 33.7057 99.4343 34.0215 99.3512 34.0963Z" fill="#263238"/>
<path d="M83.9983 36.0242C84.0017 36.3734 83.8685 36.7102 83.6271 36.9625C83.3856 37.2148 83.0551 37.3627 82.7061 37.3746C82.5359 37.3882 82.3648 37.3676 82.2028 37.314C82.0407 37.2605 81.891 37.175 81.7625 37.0627C81.6339 36.9505 81.5292 36.8136 81.4543 36.6602C81.3794 36.5069 81.336 36.3401 81.3266 36.1697C81.3231 35.82 81.4562 35.4829 81.6975 35.2299C81.9389 34.9769 82.2694 34.8281 82.6188 34.8151C82.7891 34.8021 82.9604 34.8233 83.1224 34.8773C83.2845 34.9314 83.4342 35.0172 83.5626 35.1298C83.6911 35.2424 83.7958 35.3795 83.8706 35.5331C83.9454 35.6867 83.9888 35.8537 83.9983 36.0242Z" fill="#263238"/>
<path d="M85.1949 34.3622C85.0287 34.5367 84.0107 33.7846 82.5731 33.7888C81.1355 33.7929 80.0801 34.5159 79.918 34.3372C79.8432 34.2583 80.0094 33.9467 80.4707 33.6101C81.0955 33.1812 81.836 32.9522 82.5939 32.9536C83.3396 32.9563 84.0658 33.1916 84.6714 33.6267C85.1243 33.9716 85.2739 34.2874 85.1949 34.3622Z" fill="#263238"/>
<path d="M90.422 45.0489C90.422 44.9658 91.3112 44.8121 92.7613 44.6334C93.1269 44.5919 93.4759 44.5212 93.5383 44.2678C93.5701 43.8884 93.4845 43.5083 93.2931 43.1792C92.9496 42.29 92.5868 41.3565 92.2045 40.3787C90.6962 36.3898 89.5993 33.1115 89.7613 33.0533C89.9234 32.9952 91.2779 36.1779 92.7904 40.1626C93.1532 41.1487 93.5009 42.0892 93.8333 42.9839C93.9704 43.3994 94.2114 43.8731 94.0202 44.4257C93.968 44.5555 93.8865 44.6714 93.7819 44.7644C93.6774 44.8574 93.5528 44.9249 93.4178 44.9617C93.215 45.0194 93.0053 45.0488 92.7945 45.0489C91.3319 45.1237 90.4261 45.132 90.422 45.0489Z" fill="#263238"/>
<path d="M86.1838 46.0462C86.4165 46.0462 86.4207 47.596 87.7586 48.7054C89.0965 49.8148 90.7585 49.6444 90.771 49.8605C90.7959 49.9602 90.4012 50.1638 89.699 50.1846C88.7827 50.1974 87.8912 49.887 87.181 49.3079C86.4994 48.7511 86.0612 47.9509 85.9595 47.0766C85.9013 46.4118 86.0758 46.0378 86.1838 46.0462Z" fill="#263238"/>
<path d="M85.5647 28.7196C85.4235 29.1351 83.9858 28.9274 82.2947 29.1351C80.6036 29.3429 79.2366 29.7999 79.0122 29.4468C78.9125 29.2805 79.1494 28.9108 79.702 28.5326C80.4367 28.0684 81.2675 27.7774 82.1313 27.6817C82.9951 27.5859 83.8694 27.6879 84.688 27.98C85.3321 28.2293 85.6271 28.5451 85.5647 28.7196Z" fill="#263238"/>
<path d="M98.8235 29.9288C98.57 30.257 97.577 29.9288 96.3845 29.8997C95.192 29.8706 94.1823 30.1199 93.9496 29.7792C93.8457 29.613 94.0036 29.2847 94.4482 28.9731C95.0411 28.6017 95.7312 28.4152 96.4305 28.4374C97.1297 28.4596 97.8066 28.6895 98.3747 29.0978C98.7944 29.4302 98.9357 29.7917 98.8235 29.9288Z" fill="#263238"/>
<path d="M69.9584 39.2942C69.7964 39.2236 63.5181 37.3912 63.7258 43.7983C63.9336 50.2053 70.3199 48.6804 70.3282 48.4935C70.3365 48.3065 69.9584 39.2942 69.9584 39.2942Z" fill="#B78876"/>
<path d="M68.2715 46.1292C68.2424 46.1292 68.1634 46.2123 67.9765 46.3037C67.7155 46.4246 67.4181 46.4409 67.1455 46.3495C66.4599 46.1209 65.8574 45.0655 65.7868 43.9104C65.7548 43.3617 65.8441 42.8127 66.0485 42.3024C66.1043 42.0983 66.2092 41.9109 66.354 41.7566C66.4989 41.6024 66.6793 41.4859 66.8795 41.4174C67.007 41.3796 67.1436 41.3875 67.2658 41.4399C67.388 41.4923 67.488 41.5857 67.5485 41.7041C67.6399 41.8786 67.6025 42.0074 67.6357 42.0199C67.669 42.0324 67.7729 41.9077 67.7105 41.6418C67.6694 41.4849 67.5755 41.347 67.4446 41.2512C67.3555 41.187 67.2545 41.1411 67.1475 41.1161C67.0406 41.0911 66.9297 41.0876 66.8214 41.1058C66.5602 41.1667 66.3189 41.2934 66.1204 41.4737C65.9219 41.6541 65.7727 41.8821 65.687 42.1362C65.4343 42.7008 65.3217 43.318 65.3588 43.9354C65.4419 45.2276 66.1399 46.4284 67.0748 46.6528C67.2489 46.6975 67.4308 46.7024 67.607 46.6671C67.7833 46.6319 67.9493 46.5574 68.0928 46.4492C68.2632 46.2871 68.2964 46.1417 68.2715 46.1292Z" fill="#D5663F"/>
<path d="M66.3768 39.0781C67.3532 38.8413 69.0443 39.7429 69.4598 40.657C69.8753 41.5712 69.9667 42.6099 70.3822 43.5282C70.7977 44.4464 71.7368 45.2691 72.7174 45.0365C73.0487 44.9328 73.3466 44.7433 73.5809 44.4871C73.8152 44.2309 73.9774 43.9173 74.0511 43.578C74.1924 42.8934 74.1995 42.1878 74.0719 41.5005C73.6938 38.5089 73.0664 35.5422 72.9459 32.5256C72.8254 29.5091 73.2534 26.3803 74.8364 23.8001C76.4195 21.2198 79.3239 19.3417 82.3155 19.5868C84.3058 19.7447 86.134 20.7835 88.1118 21.0619C89.2902 21.2177 90.4886 21.103 91.616 20.7265C92.7435 20.35 93.7703 19.7215 94.6186 18.8888C94.8346 18.6769 95.8318 18.0162 95.8318 18.0162C95.8318 17.8625 95.6864 16.5246 95.1587 16.0343C91.2322 12.4069 84.1603 11.3931 78.9748 12.7103C73.7894 14.0274 68.928 17.6963 66.6967 22.5328C64.4654 27.3692 65.1302 34.1669 66.3601 39.0698" fill="#263238"/>
<path d="M101.071 23.2516C101.071 23.2516 76.4818 15.357 65.8449 36.6142C65.8449 36.6142 64.2535 31.2916 64.2535 28.4371C64.2535 26.5299 65.392 15.1784 77.076 11.605C77.076 11.605 94.6726 4.8905 101.071 23.2516Z" fill="#D5663F"/>
<path d="M79.9305 23.7835C80.3674 24.4879 80.9619 25.0811 81.6671 25.5165C82.3724 25.952 83.1692 26.2176 83.9947 26.2925C84.8201 26.3675 85.6517 26.2496 86.4238 25.9483C87.196 25.647 87.8876 25.1705 88.4442 24.5563C88.6887 25.1677 89.1184 25.6871 89.673 26.0419C90.2277 26.3967 90.8794 26.569 91.537 26.5346C92.1945 26.5002 92.8247 26.261 93.3394 25.8503C93.854 25.4396 94.2272 24.8782 94.4067 24.2447C95.0733 24.9877 95.8887 25.5823 96.8 25.9898C97.7349 26.3347 98.919 26.2017 99.5298 25.4206C100.141 24.6394 99.9744 23.4054 99.3595 22.5993C98.6878 21.8371 97.8283 21.2641 96.8664 20.9373C93.9513 19.6553 90.748 19.1707 87.5841 19.5329C84.447 19.9484 81.4097 21.4774 79.4485 23.9622" fill="#263238"/>
<g opacity="0.4">
<path opacity="0.4" d="M101.071 23.2516C99.0257 21.0959 96.2209 19.8217 93.2516 19.6991C85.9969 19.3791 72.4224 23.4594 65.8283 36.6142C65.8283 36.6142 64.2369 31.2916 64.2369 28.4371C64.2369 26.5299 65.3754 15.1784 77.0594 11.605C77.076 11.605 94.6726 4.8905 101.071 23.2516Z" fill="black"/>
</g>
<path d="M66.8712 34.1254C70.5152 28.5451 75.5428 23.933 81.1978 20.4137C86.8528 16.8944 96.1975 13.3917 102.638 11.6881C104.574 11.1729 106.589 10.7242 108.563 11.0649C110.537 11.4056 112.464 12.7269 112.951 14.659C113.566 17.0897 109.253 20.8375 107.229 22.3084C105.206 23.7793 101.071 25.9441 101.071 25.9441C101.071 25.9441 101.13 21.44 93.9164 20.5134C84.1105 19.2295 66.8712 34.1254 66.8712 34.1254Z" fill="#D5663F"/>
<path d="M87.0398 15.7476C87.0398 15.7476 90.5799 13.7864 94.1407 13.3294C93.5461 12.8672 92.8973 12.4793 92.2086 12.1743C90.2759 12.4937 88.4071 13.1223 86.6741 14.0357L87.0398 15.7476Z" fill="#E0E0E0"/>
<path d="M106.996 70.7022L99.1974 68.982L96.023 68.1884L93.3804 64.0915C93.3804 64.0915 92.1339 71.4168 87.4013 75.36C86.7604 75.8842 86.0093 76.2567 85.2041 76.4496C84.3989 76.6424 83.5606 76.6506 82.7518 76.4735C81.6839 76.2491 80.4291 75.9749 79.4984 75.7256C79.2989 75.6716 79.0829 75.601 78.8502 75.5178C75.4287 74.2473 72.5781 71.789 70.8185 68.5914C69.7714 66.7299 68.8864 64.8186 69.1897 64.0915L65.4876 71.7575L43.6736 81.8044L31.2875 112.061L55.2911 119.158L56.039 144.088L51.5183 175.517L119.424 175.563L117.014 105.638" fill="#D5663F"/>
<path d="M89.4414 97.7722C89.3031 97.7832 89.1642 97.7832 89.0259 97.7722L87.8168 97.7431L83.4997 97.5894H83.4166V97.5188C83.346 95.6448 83.2587 93.426 83.1631 91.0535C83.0509 87.6339 82.9512 84.5426 82.8723 82.2698C82.8473 81.1645 82.8266 80.2629 82.8099 79.6064C82.8099 79.3114 82.8099 79.0704 82.8099 78.8834C82.7992 78.7993 82.7992 78.7141 82.8099 78.6299C82.8291 78.7117 82.8388 78.7953 82.839 78.8792C82.839 79.0704 82.8681 79.2948 82.8847 79.6022C82.918 80.2587 82.9637 81.1604 83.0177 82.2615C83.1091 84.5343 83.2338 87.6256 83.3709 91.041C83.454 93.4177 83.5288 95.6365 83.5953 97.5104L83.5038 97.4232L87.8209 97.6517L89.0259 97.7307C89.1655 97.7293 89.3048 97.7433 89.4414 97.7722Z" fill="#263238"/>
<path d="M85.7476 87.6713C85.8428 87.6046 85.9554 87.5671 86.0716 87.5633C86.3414 87.5457 86.6105 87.6066 86.8465 87.7385C87.0824 87.8705 87.2751 88.068 87.4013 88.3071C87.5198 88.5402 87.5619 88.8048 87.5218 89.0633C87.4775 89.3562 87.349 89.6299 87.1521 89.8512C86.9551 90.0725 86.6982 90.2318 86.4124 90.3098C86.1231 90.3705 85.8226 90.3502 85.5441 90.2512C85.2655 90.1523 85.0196 89.9784 84.8334 89.7489C84.6825 89.5639 84.5769 89.3462 84.525 89.1132C84.473 88.8802 84.4762 88.6383 84.5343 88.4068C84.5987 88.0916 84.7549 87.8025 84.983 87.5758C85.1409 87.422 85.2573 87.3722 85.2614 87.3846C85.2656 87.3971 85.1783 87.4719 85.0454 87.6339C84.8612 87.8614 84.7369 88.1314 84.6839 88.4192C84.6417 88.6264 84.6466 88.8405 84.6984 89.0455C84.7502 89.2505 84.8475 89.4412 84.983 89.6034C85.1492 89.7994 85.3647 89.9474 85.6072 90.0321C85.8497 90.1169 86.1105 90.1353 86.3625 90.0854C86.6077 90.0163 86.8282 89.8788 86.9982 89.6889C87.1682 89.4991 87.2806 89.2648 87.3223 89.0134C87.3568 88.8073 87.3336 88.5957 87.2551 88.4021C87.1766 88.2085 87.046 88.0404 86.8777 87.9165C86.6497 87.7345 86.3675 87.6336 86.0758 87.6298C85.8597 87.6464 85.7476 87.688 85.7476 87.6713Z" fill="#263238"/>
<path d="M85.0121 78.8917C85.1082 78.8074 85.2264 78.7526 85.3528 78.7338C85.6978 78.6609 86.0575 78.714 86.3667 78.8834C86.5861 78.9952 86.7734 79.1611 86.911 79.3654C87.0707 79.6046 87.1507 79.8882 87.1395 80.1756C87.1264 80.5033 87.0147 80.8195 86.819 81.0827C86.6233 81.3459 86.3527 81.5438 86.0426 81.6507C85.7255 81.7318 85.3915 81.7175 85.0826 81.6096C84.7736 81.5016 84.5034 81.3049 84.3058 81.044C84.1304 80.8189 84.025 80.5473 84.0024 80.2629C83.9895 80.0177 84.0292 79.7726 84.1188 79.5441C84.2477 79.2188 84.476 78.9425 84.7711 78.7546C84.8739 78.6777 84.9964 78.6316 85.1243 78.6216C85.1243 78.6216 85.0038 78.684 84.821 78.8252C84.564 79.023 84.3704 79.2917 84.2642 79.5981C84.1808 79.8175 84.1554 80.0548 84.1903 80.2869C84.2253 80.5191 84.3194 80.7383 84.4637 80.9235C84.6391 81.1475 84.8758 81.3158 85.145 81.408C85.4142 81.5002 85.7043 81.5123 85.9802 81.4429C86.2478 81.348 86.4815 81.1764 86.6521 80.9496C86.8228 80.7227 86.923 80.4507 86.9401 80.1673C86.9511 79.9344 86.8966 79.7031 86.7827 79.4997C86.6689 79.2962 86.5003 79.1288 86.296 79.0164C86.0167 78.8518 85.6917 78.7818 85.3694 78.8169C85.1409 78.846 85.0204 78.9083 85.0121 78.8917Z" fill="#263238"/>
<path d="M82.8016 112.427C82.8016 112.427 82.8349 112.406 82.9055 112.381L83.2171 112.261C83.4955 112.165 83.8903 111.991 84.393 111.758C85.797 111.05 87.0858 110.134 88.2157 109.041C89.8766 107.405 91.3446 105.584 92.5909 103.614C94.1494 101.219 95.5727 98.739 96.854 96.185C99.1581 91.5298 101.18 86.7401 102.908 81.8418C103.585 79.9637 104.113 78.4388 104.483 77.3876L104.898 76.1744C104.944 76.0497 104.985 75.9458 105.014 75.8627C105.026 75.8267 105.042 75.7919 105.06 75.7589C105.057 75.7972 105.049 75.835 105.035 75.871C105.01 75.9541 104.977 76.058 104.94 76.191C104.844 76.486 104.715 76.8932 104.553 77.4375C104.208 78.497 103.701 80.0302 103.037 81.9125C101.353 86.824 99.3518 91.6208 97.0451 96.2723C95.7607 98.8336 94.329 101.318 92.7571 103.714C91.4962 105.695 90.0067 107.52 88.3195 109.153C87.1716 110.245 85.8592 111.149 84.4304 111.833C84.0395 112.012 83.6385 112.169 83.2296 112.302L82.9097 112.402C82.8751 112.416 82.8387 112.424 82.8016 112.427Z" fill="#263238"/>
<path d="M97.1074 104.129C97.2861 104.129 101.42 103.847 101.42 103.847C101.42 103.847 99.7126 106.863 97.9343 108.002H94.3152L97.1074 104.129Z" fill="#FAFAFA"/>
<path d="M82.0787 121.564C82.1495 121.496 82.2275 121.436 82.3113 121.385L83.0094 120.903C83.6119 120.488 84.4803 119.865 85.5232 119.063C87.6007 117.471 90.368 115.095 93.3264 112.377C94.8055 111.018 96.2349 109.739 97.4565 108.509C98.5526 107.43 99.5705 106.275 100.502 105.052C101.127 104.227 101.683 103.351 102.164 102.434C102.347 102.114 102.459 101.852 102.546 101.678C102.586 101.586 102.635 101.498 102.692 101.416C102.665 101.512 102.63 101.605 102.588 101.695C102.513 101.873 102.409 102.143 102.239 102.472C101.782 103.409 101.241 104.304 100.623 105.143C99.7034 106.387 98.6908 107.56 97.5936 108.65C96.3678 109.897 94.9468 111.181 93.4676 112.535C90.5092 115.252 87.7378 117.621 85.6146 119.183C84.5551 119.968 83.67 120.567 83.0551 120.97C82.7435 121.169 82.4983 121.315 82.3321 121.419C82.2534 121.476 82.1684 121.525 82.0787 121.564Z" fill="#263238"/>
<path d="M70.4279 167.739C70.4279 167.739 70.4279 167.702 70.4778 167.639C70.5277 167.577 70.5817 167.477 70.6481 167.365C70.8019 167.128 71.0346 166.779 71.3462 166.339C71.9694 165.466 72.9334 164.236 74.2049 162.79C76.7644 159.919 80.3502 156.001 84.2975 151.663L94.4731 140.573L97.5687 137.249L98.3997 136.348L98.624 136.119L98.7071 136.044C98.7071 136.044 98.6864 136.078 98.6406 136.132L98.4329 136.377L97.6019 137.307L94.5563 140.694L84.4595 151.796L74.3212 162.882C73.0373 164.311 72.0567 165.52 71.4127 166.376C71.0927 166.792 70.8476 167.145 70.6855 167.377L70.4986 167.639C70.4778 167.674 70.4541 167.708 70.4279 167.739Z" fill="#263238"/>
<path d="M106.456 70.511C106.814 71.047 114.841 71.9404 116.806 73.9016C118.772 75.8627 138.413 90.8541 138.413 90.8541L124.414 109.693L115.381 107.703L106.456 70.511Z" fill="#D5663F"/>
<path opacity="0.4" d="M136.032 89.0259L120.338 108.796L124.414 109.693L138.396 90.8333L136.032 89.0259Z" fill="black"/>
<path d="M110.732 90.1228C110.662 89.9084 110.607 89.6889 110.57 89.4663C110.524 89.2544 110.47 88.9927 110.433 88.6852C110.395 88.3777 110.333 88.0287 110.312 87.6381C110.291 87.2476 110.25 86.8071 110.25 86.3625C110.25 85.9179 110.25 85.4152 110.287 84.9C110.368 83.7795 110.542 82.6676 110.807 81.5759C111.089 80.4896 111.463 79.4291 111.924 78.4056C112.145 77.9403 112.34 77.4915 112.577 77.0926C112.813 76.6937 113.017 76.3239 113.229 75.9957C113.441 75.6675 113.644 75.3849 113.827 75.1315C113.978 74.9141 114.141 74.7047 114.313 74.504C114.45 74.3236 114.601 74.1554 114.766 74.0013C114.653 74.1958 114.524 74.3806 114.38 74.5539C114.251 74.7284 114.093 74.9403 113.927 75.2021C113.761 75.4639 113.549 75.7422 113.358 76.0788C113.167 76.4154 112.942 76.7727 112.735 77.1799C112.527 77.5871 112.319 78.0109 112.107 78.4846C111.67 79.504 111.311 80.5555 111.035 81.6299C110.776 82.7077 110.6 83.8037 110.507 84.9083C110.478 85.4193 110.441 85.9055 110.453 86.3584C110.466 86.8113 110.453 87.2351 110.487 87.6049C110.52 87.9747 110.545 88.3403 110.574 88.6478C110.603 88.9553 110.64 89.217 110.674 89.4289C110.715 89.6578 110.735 89.8902 110.732 90.1228Z" fill="#263238"/>
<path d="M117.014 105.613C116.371 104.365 115.792 103.085 115.282 101.778C114.703 100.5 114.19 99.1937 113.744 97.8636C114.388 99.1104 114.967 100.389 115.481 101.695C116.061 102.973 116.573 104.281 117.014 105.613Z" fill="#263238"/>
<path d="M55.2911 91.9261C55.2579 91.9261 54.9213 91.3236 54.2856 90.3888C53.4561 89.171 52.5068 88.0394 51.4519 87.0107C50.3916 85.9898 49.2338 85.0755 47.9949 84.2809C47.0392 83.6742 46.4118 83.3584 46.4284 83.3252C46.5877 83.3691 46.7411 83.4319 46.8855 83.5122C47.2921 83.7054 47.6887 83.9189 48.0738 84.1521C49.352 84.9137 50.5372 85.8215 51.6056 86.857C52.6705 87.8955 53.6129 89.0527 54.4144 90.3057C54.7177 90.7877 54.9463 91.1865 55.0875 91.4732C55.1737 91.6153 55.2421 91.7674 55.2911 91.9261Z" fill="#263238"/>
<path opacity="0.4" d="M31.2875 112.049L32.2556 109.693L58.8063 116.923L57.7551 119.877L31.2875 112.049Z" fill="black"/>
<path d="M102.168 102.737H112.277V106.893L99.3428 106.809C99.3428 106.809 101.341 104.404 102.168 102.737Z" fill="#FAFAFA"/>
<g opacity="0.2">
<path opacity="0.2" d="M66.1108 72.6716C66.4765 75.9126 66.8754 79.2574 68.4792 82.0994C70.0831 84.9415 73.2201 87.181 76.4486 86.7032C78.6009 86.3833 80.425 84.9456 81.8917 83.3335C83.3584 81.7213 84.5883 79.8973 86.188 78.4222C87.1554 79.4641 88.237 80.3937 89.4123 81.1936C90.5997 81.998 92.0254 82.3746 93.4552 82.2615C94.8637 82.0911 95.6407 81.5302 96.0853 80.184C94.5812 80.6493 93.7543 80.5787 92.2543 80.292C90.5981 79.9745 89.043 79.2618 87.7212 78.2145C86.8403 77.5206 86.5204 76.4777 85.4027 76.5524C84.3681 76.6106 83.5578 77.4292 82.8764 78.2145C81.7763 79.4739 80.5697 80.636 79.2698 81.6881C78.0233 82.6728 76.8184 83.3501 75.2312 83.3044C72.6176 83.2462 70.4778 81.1936 69.036 79.0122C67.7052 77.001 66.7219 74.7804 66.1275 72.4431" fill="black"/>
</g>
<path d="M96.7086 68.6288C96.7323 68.7044 96.7476 68.7825 96.7543 68.8615C96.7543 69.0152 96.8041 69.2396 96.8332 69.5304C96.8955 70.1121 96.9579 70.9556 96.9828 72.0235C97.039 74.7548 96.7782 77.4835 96.2058 80.1549V80.2213V80.2878H96.1435C94.6664 80.6341 93.1248 80.5926 91.6685 80.1673C90.4777 79.849 89.3524 79.323 88.3445 78.6133C87.6623 78.1497 87.0507 77.5899 86.5287 76.9513C86.3883 76.7789 86.2579 76.5985 86.1381 76.4112C86.0916 76.3473 86.0513 76.2791 86.0176 76.2076C86.6955 77.094 87.5088 77.868 88.4276 78.5012C89.4301 79.1783 90.5399 79.6812 91.71 79.9887C93.135 80.3912 94.6386 80.4269 96.0811 80.0925L96.0022 80.1715V80.105C96.568 77.4473 96.8467 74.7365 96.8332 72.0193C96.8332 70.9764 96.7875 70.1329 96.7543 69.547C96.7543 69.277 96.7252 69.0568 96.7127 68.8781C96.6993 68.7956 96.6979 68.7116 96.7086 68.6288Z" fill="#263238"/>
<path d="M84.0856 76.8267C84.0526 76.9154 84.0079 76.9992 83.9526 77.076C83.8135 77.3064 83.6609 77.5284 83.4955 77.7408C82.8751 78.515 82.1913 79.2363 81.4513 79.8972C80.99 80.3128 80.4707 80.774 79.9097 81.2476C79.6272 81.4845 79.3447 81.7338 79.0289 81.9831C78.7037 82.2285 78.3606 82.4493 78.0026 82.6437C77.2335 83.0679 76.3844 83.3269 75.5095 83.4041C74.555 83.4851 73.5985 83.2735 72.7672 82.7975C71.958 82.3154 71.2325 81.7049 70.6191 80.99C70.0376 80.3424 69.4964 79.6597 68.9986 78.9457C68.1595 77.7343 67.4506 76.4377 66.8837 75.0774C66.5038 74.1628 66.1927 73.2212 65.953 72.2603C65.8657 71.9196 65.8117 71.6537 65.7784 71.4708C65.7554 71.3796 65.7414 71.2864 65.7369 71.1924C65.7749 71.279 65.8028 71.3696 65.82 71.4625C65.8699 71.6412 65.9363 71.903 66.0319 72.2395C66.3045 73.1859 66.6362 74.1143 67.025 75.0192C67.6071 76.3586 68.3241 77.6353 69.1648 78.8294C69.6604 79.5336 70.1988 80.2066 70.777 80.8446C71.3704 81.5408 72.0718 82.137 72.8545 82.6105C73.6497 83.0645 74.5637 83.2673 75.4763 83.1922C76.326 83.1191 77.1517 82.873 77.9028 82.4692C78.2554 82.2823 78.593 82.0684 78.9125 81.8293C79.2158 81.5967 79.5067 81.3432 79.7892 81.1105C80.3543 80.641 80.8779 80.2006 81.3432 79.7851C82.0859 79.1446 82.7803 78.4502 83.4207 77.7075C83.641 77.4416 83.803 77.2214 83.911 77.0718C83.962 76.9852 84.0204 76.9032 84.0856 76.8267Z" fill="#263238"/>
<path d="M75.1356 124.568L78.3391 119.898C78.3391 119.898 80.5413 112.244 80.2421 111.172C79.943 110.1 78.9707 106.111 79.1992 106.062C79.4277 106.012 81.8252 105.122 83.1257 108.322C83.936 110.316 84.2019 112.942 84.2891 114.638C84.2987 114.847 84.3535 115.052 84.4498 115.238C84.5462 115.424 84.6818 115.587 84.8473 115.716C85.0128 115.845 85.2042 115.936 85.4084 115.984C85.6126 116.032 85.8247 116.034 86.0301 115.992C88.2447 115.535 91.9303 114.841 92.807 115.053C94.0784 115.356 95.2169 116.977 95.3249 117.521C95.433 118.065 94.5604 119.291 94.5604 119.291C94.5604 119.291 95.6407 119.844 95.9731 120.679C96.0188 120.791 96.0562 120.903 96.0895 121.011C96.1909 121.346 96.2032 121.702 96.1252 122.043C96.0473 122.384 95.8817 122.698 95.6449 122.956L95.3041 123.33C95.3041 123.33 96.6545 123.7 96.8207 124.473C96.9108 125.037 96.8953 125.613 96.775 126.172L95.5077 127.481C95.861 127.81 96.0924 128.25 96.1642 128.727C96.2307 129.442 94.3319 131.22 94.3319 131.22L86.1838 134.129L82.9512 134.96L75.1356 124.568Z" fill="#B78876"/>
<path d="M94.5853 119.299C93.6543 119.55 92.7113 119.754 91.7599 119.91C90.8252 120.139 89.8794 120.319 88.9262 120.45C89.1813 120.326 89.4506 120.232 89.7281 120.172C90.2308 120.031 90.933 119.856 91.7183 119.698C92.5037 119.54 93.2142 119.424 93.7377 119.358C94.0164 119.3 94.3015 119.281 94.5853 119.299Z" fill="#D5663F"/>
<path d="M95.3291 123.33C94.6366 123.655 93.9144 123.912 93.1726 124.099C92.4526 124.357 91.7097 124.546 90.9538 124.664C91.6463 124.339 92.3685 124.081 93.1103 123.895C93.8303 123.637 94.5732 123.447 95.3291 123.33Z" fill="#D5663F"/>
<path d="M95.8152 127.306C95.0853 127.743 94.3194 128.117 93.5258 128.424C92.7612 128.798 91.9661 129.107 91.1491 129.346C91.879 128.909 92.6449 128.535 93.4385 128.229C94.2031 127.854 94.9983 127.546 95.8152 127.306Z" fill="#D5663F"/>
<path d="M56.3631 153.429L86.3293 133.327L78.7671 119.615L51.4186 133.68L54.5224 118.905L35.9619 113.412L31.3165 138.716C30.6019 149.968 39.6266 159.051 50.5045 156.097C52.5897 155.533 54.5687 154.631 56.3631 153.429Z" fill="#B78876"/>
<path d="M47.4589 141.633C47.4048 141.513 47.3698 141.385 47.355 141.255C47.2933 140.905 47.2586 140.551 47.2511 140.195C47.2355 139.013 47.5003 137.844 48.024 136.784C48.5548 135.727 49.3313 134.812 50.2885 134.116C50.5736 133.905 50.8767 133.719 51.1943 133.56C51.3082 133.493 51.4314 133.444 51.5599 133.414C51.5599 133.452 51.0738 133.688 50.3799 134.245C49.4713 134.955 48.7327 135.858 48.218 136.89C47.7032 137.921 47.4255 139.055 47.4049 140.208C47.3841 141.08 47.5212 141.629 47.4589 141.633Z" fill="#D5663F"/>
<path d="M124.414 109.693C124.601 109.435 145.755 122.324 145.755 122.324L152.536 153.217L162.296 156.799C162.296 156.799 165.342 122.42 163.023 117.068C160.704 111.717 137.199 92.4621 137.199 92.4621L124.414 109.693Z" fill="#B78876"/>
<path d="M150.375 119.956C149.904 120.664 149.277 121.256 148.543 121.684C147.846 122.175 147.048 122.502 146.208 122.64C146.967 122.3 147.707 121.92 148.426 121.502C149.104 121.023 149.755 120.507 150.375 119.956Z" fill="#D5663F"/>
<path d="M98.9731 109.76L100.631 139.41L134.436 137.125L133.414 115.053L128.49 108.426L98.9731 109.76Z" fill="#263238"/>
<path d="M91.2904 140.071C91.3901 140.64 94.2612 167.494 94.2612 167.494L144.575 163.999L153.088 162.857L149.162 137.852L143.149 136.41L91.2904 140.071Z" fill="#D5663F"/>
<path opacity="0.4" d="M143.149 136.406L91.2904 140.071C91.3901 140.64 94.2612 167.494 94.2612 167.494L146.644 163.85L143.149 136.406Z" fill="black"/>
<path d="M129.367 137.465L100.631 139.41L98.9731 109.76L128.49 108.426L129.367 137.465Z" fill="#455A64"/>
<path d="M109.689 109.278L110.296 118.414L111.833 117.534L112.685 118.414L113.744 117.534L115.381 118.414V109.02L109.689 109.278Z" fill="#263238"/>
<path d="M121.701 138.089L119.736 115.834L138.945 121.128L140.798 136.489L121.701 138.089Z" fill="#D5663F"/>
<path d="M138.932 121.132C138.898 121.189 138.858 121.242 138.812 121.29L138.442 121.726L137.029 123.338L132.122 128.844L132.047 128.927L131.968 128.848L129.375 126.105L122.532 118.876L120.475 116.665L119.923 116.059C119.854 115.991 119.794 115.916 119.744 115.834C119.82 115.892 119.891 115.956 119.956 116.025L120.538 116.607L122.64 118.768L129.529 125.956L132.139 128.702H131.985L136.971 123.247L138.429 121.676L138.824 121.261C138.856 121.214 138.892 121.171 138.932 121.132Z" fill="#263238"/>
<path d="M128.175 125.254C128.229 125.283 126.858 127.909 125.117 131.121C123.376 134.332 121.921 136.913 121.867 136.884C121.813 136.855 123.184 134.229 124.925 131.017C126.666 127.805 128.129 125.225 128.175 125.254Z" fill="#263238"/>
<path d="M140.349 136.489C140.299 136.518 138.969 134.391 137.378 131.74C135.787 129.089 134.536 126.907 134.59 126.874C134.644 126.841 135.97 128.972 137.561 131.628C139.152 134.283 140.403 136.46 140.349 136.489Z" fill="#263238"/>
<path d="M132.018 137.22L130.763 123.047L142.996 126.421L144.176 136.202L132.018 137.22Z" fill="#D5663F"/>
<path opacity="0.4" d="M132.018 137.22L130.763 123.047L142.996 126.421L144.176 136.202L132.018 137.22Z" fill="white"/>
<path d="M142.996 126.421C142.908 126.56 142.807 126.69 142.692 126.808C142.464 127.078 142.165 127.423 141.803 127.842L138.687 131.357L138.612 131.445L138.533 131.362L136.871 129.616C135.163 127.826 133.626 126.193 132.521 125.004L131.224 123.588C131.057 123.421 130.904 123.24 130.767 123.047C130.952 123.194 131.124 123.355 131.283 123.529L132.633 124.896C133.767 126.06 135.321 127.676 137.029 129.467L138.691 131.216H138.517L141.687 127.751L142.626 126.758C142.738 126.634 142.862 126.521 142.996 126.421Z" fill="#263238"/>
<path d="M136.14 129.047C136.19 129.076 135.334 130.755 134.224 132.787C133.588 134.04 132.886 135.259 132.122 136.439C132.693 135.16 133.331 133.912 134.033 132.7C134.67 131.446 135.373 130.226 136.14 129.047Z" fill="#263238"/>
<path d="M143.893 136.202C143.191 135.24 142.547 134.237 141.965 133.198C141.32 132.196 140.738 131.153 140.224 130.078C141.566 132.046 142.791 134.091 143.893 136.202Z" fill="#263238"/>
<path d="M139.813 125.823V126.961L141.6 127.169L141.695 126.301L139.813 125.823Z" fill="white"/>
<path d="M133.506 120.043V121.705L136.879 122.262L137.066 120.991L133.506 120.043Z" fill="white"/>
<path d="M120.338 146.374L120.172 138.089L113.453 138.542L114.172 146.96L120.338 146.374Z" fill="#D5663F"/>
<path d="M142.248 150.727L130.968 151.797L131.915 161.774L143.195 160.704L142.248 150.727Z" fill="#FAFAFA"/>
<path d="M143.179 160.717C143.165 160.654 143.155 160.59 143.149 160.526C143.149 160.389 143.112 160.21 143.087 159.986C143.037 159.504 142.962 158.818 142.871 157.958C142.692 156.205 142.456 153.728 142.14 150.749L142.239 150.832L130.967 151.917C130.942 151.941 131.15 151.696 131.062 151.8V151.875V151.962V152.128L131.096 152.469L131.158 153.142C131.204 153.587 131.245 154.027 131.287 154.468C131.366 155.344 131.449 156.2 131.528 157.04C131.682 158.702 131.831 160.301 131.964 161.768L131.86 161.685L140 160.962L142.31 160.767L142.929 160.721C143.003 160.715 143.076 160.715 143.149 160.721C143.085 160.736 143.02 160.746 142.954 160.75L142.356 160.821L140.071 161.062L131.881 161.893H131.785V161.797C131.64 160.326 131.486 158.739 131.324 157.069C131.247 156.238 131.165 155.38 131.079 154.497C131.037 154.056 130.996 153.616 130.954 153.167C130.934 152.947 130.913 152.723 130.888 152.498L130.859 152.158V151.991V151.904V151.829C130.772 151.933 130.975 151.684 130.959 151.709L142.235 150.658H142.327V150.749C142.593 153.753 142.813 156.254 142.971 158.024C143.041 158.876 143.095 159.554 143.137 160.036C143.137 160.256 143.166 160.43 143.174 160.563C143.179 160.614 143.181 160.666 143.179 160.717Z" fill="#263238"/>
<path d="M141.35 153.13C141.35 153.192 139.385 153.446 136.946 153.703C135.478 153.897 134.001 154.016 132.521 154.061C132.521 154.002 134.486 153.745 136.925 153.487C139.364 153.23 141.346 153.072 141.35 153.13Z" fill="#263238"/>
<path d="M141.284 154.825C140.892 154.966 140.487 155.068 140.075 155.128C139.318 155.278 138.267 155.452 137.1 155.59C135.932 155.727 134.864 155.801 134.096 155.826C133.681 155.864 133.264 155.864 132.849 155.826C133.26 155.745 133.677 155.698 134.096 155.685C134.86 155.615 135.916 155.519 137.079 155.382C138.242 155.245 139.294 155.095 140.054 154.966C140.46 154.889 140.871 154.842 141.284 154.825Z" fill="#263238"/>
<path d="M141.762 158.531C141.368 158.671 140.962 158.773 140.548 158.835C139.792 158.984 138.741 159.159 137.573 159.296C136.406 159.433 135.342 159.508 134.569 159.533C134.155 159.573 133.737 159.573 133.323 159.533C133.734 159.452 134.151 159.404 134.569 159.391C135.334 159.325 136.393 159.225 137.557 159.088C138.72 158.951 139.771 158.801 140.532 158.673C140.938 158.595 141.349 158.548 141.762 158.531Z" fill="#263238"/>
<path d="M141.192 156.633C139.836 156.939 138.464 157.172 137.083 157.331C135.707 157.564 134.321 157.725 132.928 157.813C134.285 157.511 135.657 157.278 137.037 157.114C138.413 156.883 139.8 156.723 141.192 156.633Z" fill="#263238"/>
<path d="M151.152 172.085C151.152 172.085 160.439 165.94 161.153 162.799C161.868 159.657 162.296 156.799 162.296 156.799L152.374 152.689L153.358 156.263C153.358 156.263 149.802 158.378 149.436 160.941C149.195 162.649 144.595 165.574 144.595 165.574C144.213 165.112 143.726 164.747 143.175 164.509C142.624 164.271 142.024 164.168 141.425 164.207L137.561 164.481L140.174 170.369L151.152 172.085Z" fill="#B78876"/>
<path d="M154.779 163.663C154.644 163.745 154.497 163.806 154.343 163.842C154.052 163.937 153.62 164.033 153.097 164.199C152.506 164.409 151.959 164.727 151.484 165.138C150.887 165.648 150.217 166.068 149.498 166.384C148.168 166.951 146.691 167.075 145.285 166.738C145.038 166.69 144.801 166.601 144.583 166.476C144.494 166.425 144.421 166.349 144.375 166.258C144.329 166.166 144.312 166.062 144.325 165.961C144.332 165.897 144.355 165.837 144.391 165.785C144.428 165.732 144.476 165.69 144.533 165.661C144.616 165.632 144.662 165.661 144.662 165.661C144.662 165.661 144.616 165.661 144.554 165.707C144.51 165.739 144.475 165.78 144.449 165.827C144.424 165.875 144.41 165.928 144.408 165.981C144.401 166.067 144.42 166.153 144.463 166.227C144.506 166.302 144.571 166.361 144.649 166.397C144.862 166.501 145.089 166.573 145.323 166.609C146.697 166.889 148.125 166.744 149.415 166.193C150.118 165.88 150.773 165.469 151.36 164.972C151.857 164.558 152.43 164.245 153.047 164.049C153.579 163.9 154.011 163.829 154.293 163.754C154.453 163.711 154.615 163.68 154.779 163.663Z" fill="#D5663F"/>
<path d="M148.347 168.429C148.347 168.462 147.87 168.188 147.08 167.859C146.051 167.439 144.966 167.169 143.86 167.058C143.536 167.024 143.216 167.016 142.908 167.008H142.85L142.817 166.958C142.336 166.205 141.756 165.52 141.093 164.922C140.59 164.469 140.262 164.236 140.262 164.211C140.262 164.186 140.361 164.245 140.519 164.344C140.743 164.489 140.96 164.646 141.167 164.814C141.876 165.391 142.489 166.077 142.983 166.846L142.896 166.796C143.212 166.796 143.536 166.796 143.868 166.846C144.997 166.954 146.099 167.251 147.13 167.722C147.44 167.864 147.742 168.025 148.032 168.204C148.148 168.262 148.254 168.338 148.347 168.429Z" fill="#D5663F"/>
<path d="M150.857 166.742C150.857 166.8 150.23 167.037 149.498 167.452C148.767 167.868 148.231 168.304 148.189 168.254C148.875 167.455 149.819 166.92 150.857 166.742Z" fill="#D5663F"/>
<path d="M155.889 155.689C155.889 155.756 155.241 155.689 154.501 155.876C153.761 156.063 153.254 156.446 153.196 156.392C153.54 156.042 153.972 155.793 154.446 155.669C154.92 155.545 155.418 155.552 155.889 155.689Z" fill="#D5663F"/>
<path d="M20.4179 152.145C21.6394 153.599 23.7045 152.897 24.5978 151.863C25.4912 150.828 25.782 149.424 26.0438 148.081C26.6338 145.015 27.2238 141.803 26.3097 138.816C26.0739 137.907 25.5923 137.08 24.9178 136.427C24.5764 136.106 24.1568 135.881 23.701 135.774C23.2452 135.667 22.7693 135.681 22.3209 135.816C21.2821 136.19 20.7129 137.291 20.3265 138.309C19.1809 141.356 18.7295 144.621 19.0052 147.865C19.134 149.378 19.4539 150.944 20.4179 152.116" fill="#D5663F"/>
<g opacity="0.2">
<path opacity="0.2" d="M20.4179 152.145C21.6394 153.599 23.7045 152.897 24.5978 151.863C25.4912 150.828 25.782 149.424 26.0438 148.081C26.6338 145.015 27.2238 141.803 26.3097 138.816C26.0739 137.907 25.5923 137.08 24.9178 136.427C24.5764 136.106 24.1568 135.881 23.701 135.774C23.2452 135.667 22.7693 135.681 22.3209 135.816C21.2821 136.19 20.7129 137.291 20.3265 138.309C19.1809 141.356 18.7295 144.621 19.0052 147.865C19.134 149.378 19.4539 150.944 20.4179 152.116" fill="black"/>
</g>
<path d="M25.1837 159.637C26.879 158.56 28.9606 158.253 30.9592 158.39C32.0354 158.473 33.1655 158.689 33.9591 159.421C34.7528 160.152 35.0104 161.54 34.2458 162.296C33.7442 162.705 33.1149 162.926 32.4675 162.919C30.9218 163.04 29.185 162.919 28.0382 163.962C27.3817 164.552 26.9911 165.474 26.1726 165.811C25.7607 165.945 25.3164 165.942 24.9065 165.802C24.4965 165.662 24.1432 165.392 23.8998 165.034C23.4282 164.294 23.26 163.401 23.4303 162.541C23.4805 161.955 23.6648 161.388 23.9688 160.885C24.2728 160.381 24.6885 159.954 25.1837 159.637Z" fill="#D5663F"/>
<path d="M17.634 154.638C18.6894 153.134 18.7309 151.073 18.0495 149.365C17.3681 147.658 16.0468 146.278 14.5759 145.181C12.8348 143.892 10.8588 142.955 8.75883 142.422C7.94343 142.176 7.0848 142.108 6.24087 142.223C5.82656 142.291 5.4348 142.459 5.09857 142.71C4.76234 142.962 4.49148 143.291 4.30878 143.669C3.83095 144.824 4.50407 146.116 5.20211 147.155C6.43026 148.987 7.79859 150.72 9.29483 152.34C10.5039 153.641 11.871 154.908 13.5787 155.394C15.2864 155.88 16.9941 155.648 17.7711 154.426" fill="#D5663F"/>
<path d="M22.4331 175.542C22.4689 175.306 22.48 175.066 22.4663 174.827C22.4663 174.312 22.4663 173.664 22.4663 172.891C22.4771 171.934 22.5381 170.979 22.6491 170.028C22.7987 168.871 23.0419 167.727 23.3763 166.609C23.6998 165.492 24.1811 164.427 24.8056 163.447C25.3138 162.648 25.9937 161.972 26.7958 161.469C27.3394 161.135 27.9327 160.889 28.5534 160.742C28.789 160.708 29.0212 160.654 29.2473 160.58C29.008 160.569 28.7681 160.585 28.5327 160.63C27.8837 160.74 27.2592 160.963 26.6878 161.29C25.8409 161.789 25.1201 162.475 24.5812 163.297C23.9307 164.295 23.4295 165.383 23.0937 166.526C22.7561 167.661 22.517 168.823 22.379 169.999C22.282 170.959 22.2417 171.923 22.2585 172.887C22.2585 173.718 22.3084 174.375 22.3375 174.832C22.342 175.071 22.3741 175.31 22.4331 175.542Z" fill="#263238"/>
<path d="M22.4331 174.05C22.4441 173.941 22.4441 173.831 22.4331 173.722C22.4331 173.477 22.3832 173.165 22.35 172.787C22.2752 171.977 22.1713 170.801 22.084 169.347C21.8971 166.438 21.789 162.416 21.8763 157.975C21.9635 153.533 22.2586 149.515 22.5951 146.623C22.6699 145.896 22.7488 145.244 22.8319 144.67C22.915 144.097 22.9732 143.602 23.0397 143.203C23.1062 142.805 23.1394 142.518 23.1768 142.273C23.1987 142.165 23.2084 142.055 23.2059 141.944C23.1621 142.047 23.1327 142.154 23.1186 142.264C23.0688 142.505 23.0065 142.809 22.9275 143.183C22.8486 143.557 22.7613 144.076 22.6699 144.649C22.5785 145.223 22.4788 145.871 22.3874 146.598C21.9166 150.372 21.6489 154.168 21.5854 157.97C21.4982 162.42 21.6353 166.455 21.8763 169.364C21.9885 170.818 22.1256 171.994 22.2378 172.8C22.2918 173.178 22.3417 173.485 22.3749 173.731C22.3832 173.839 22.4027 173.946 22.4331 174.05Z" fill="#263238"/>
<path d="M21.7599 166.305C21.7561 165.978 21.7255 165.651 21.6685 165.329C21.573 164.706 21.4068 163.808 21.1325 162.711C20.8013 161.431 20.3991 160.17 19.9276 158.934C19.3597 157.416 18.6849 155.94 17.9082 154.518C16.5439 151.892 14.7136 149.537 12.5067 147.566C12.1221 147.231 11.7184 146.919 11.2976 146.631C11.1147 146.503 10.9527 146.374 10.7865 146.274L10.3294 146.012C10.0511 145.841 9.7609 145.689 9.46103 145.559C9.41948 145.626 10.7075 146.232 12.3696 147.724C14.5085 149.718 16.2917 152.061 17.6423 154.655C18.4164 156.062 19.0978 157.518 19.6824 159.013C20.2309 160.393 20.6298 161.668 20.9289 162.753C21.2281 163.837 21.4234 164.722 21.5522 165.337C21.5949 165.665 21.6643 165.989 21.7599 166.305Z" fill="#263238"/>
</svg>
